<svg width="62" height="37" viewBox="0 0 62 37" fill="none" xmlns="http://www.w3.org/2000/svg">
<path d="M49.2332 20.3298C49.2332 20.3298 46.8604 3.64961 40.8006 0.740729C35.5271 -1.79188 33.8102 2.95913 30.9992 3.24727C28.1901 2.95902 26.4733 -1.79188 21.1978 0.740729C15.1394 3.64961 12.7677 20.3298 12.7677 20.3298C12.7677 20.3298 -2.4089 16.8379 0.330845 23.6257C2.55921 29.1435 14.831 36.8357 30.9992 37C47.1678 36.8357 59.4417 29.1435 61.6689 23.6257C64.4096 16.8379 49.2332 20.3298 49.2332 20.3298ZM38.2601 19.4254L34.6701 22.1915L35.8072 26.3713C35.8628 26.5751 35.7779 26.7898 35.5944 26.9128C35.4099 27.0367 35.162 27.0439 34.9687 26.9325L30.9992 24.6451L27.0316 26.9325C26.8373 27.0439 26.5905 27.0367 26.4069 26.9128C26.2214 26.7898 26.1375 26.5751 26.1913 26.3713L27.3303 22.1915L23.7385 19.4254C23.5647 19.2906 23.4955 19.0716 23.5657 18.8723C23.6359 18.6719 23.8311 18.5318 24.0595 18.5175L28.7319 18.2212L30.481 14.2248C30.5659 14.0298 30.7709 13.9023 30.9993 13.9023C31.2277 13.9023 31.4336 14.0298 31.5185 14.2248L33.2686 18.2212L37.9409 18.5175C38.1684 18.5319 38.3625 18.6719 38.4338 18.8723C38.5039 19.0716 38.4356 19.2906 38.2601 19.4254Z" fill="white"/>
</svg>
