<svg width="59" height="58" viewBox="0 0 59 58" fill="none" xmlns="http://www.w3.org/2000/svg">
<path d="M47.2658 5.53148L26.6592 26.0549C25.7233 26.2866 24.8171 26.2417 24.1773 25.6054C22.6619 24.0961 24.8542 20.7952 25.9931 19.2984C26.321 18.8683 26.2074 18.7195 25.7153 18.9477L21.2068 21.0373C20.7154 21.2655 20.2396 21.8818 20.1241 22.4096C19.7674 24.0415 18.9231 27.305 17.6394 28.5835C16.1951 30.0217 7.55018 31.6944 4.62534 32.2274C4.09192 32.3226 3.65374 32.8345 3.60955 33.3739C3.24725 37.8048 1.03367 42.9987 0.0940134 45.0363C-0.133036 45.5267 0.0629241 45.7168 0.555089 45.4897C7.00257 42.5166 11.5522 43.9801 12.5947 45.0192C13.5007 45.9221 10.7885 54.5494 9.85042 57.4267C9.68334 57.9395 9.9301 58.1461 10.4078 57.8903L19.2355 53.1443C19.7129 52.8882 20.1903 52.2513 20.3104 51.7242C20.887 49.1971 22.5591 42.416 24.2719 40.7096C25.7537 39.2338 28.2867 38.8069 29.6751 38.6812C30.2151 38.6338 30.8722 38.2495 31.1365 37.7785L32.9759 34.5215C33.2423 34.0506 33.1147 33.9451 32.6595 34.2397C31.2801 35.1337 28.4078 36.5788 26.4823 34.6609C25.6434 33.8253 25.7883 32.4107 26.3631 30.8758L49.6232 7.70855C50.0415 7.36198 51.0858 6.61093 51.9633 6.96701C51.9633 6.96701 55.2851 3.03856 57.5271 3.08062C57.5271 3.08062 58.2943 1.36495 59 0L47.4374 2.58398C47.4374 2.58398 48.4071 4.11423 47.2658 5.53148ZM18.997 39.9673L17.8902 41.069C17.5063 41.451 16.8849 41.451 16.5006 41.069L13.5489 38.13C13.1656 37.7465 13.1656 37.1281 13.5489 36.7447L14.6558 35.643C15.0391 35.2605 15.6606 35.2605 16.0449 35.643L18.997 38.5819C19.3804 38.9654 19.3804 39.5839 18.997 39.9673ZM23.4514 34.1466C23.8352 34.5282 23.8352 35.1467 23.4514 35.5297L22.3448 36.6328C21.9614 37.0138 21.3397 37.0138 20.9554 36.6328L18.0033 33.6924C17.6199 33.3113 17.6199 32.6919 18.0033 32.3094L19.1106 31.2067C19.494 30.8242 20.1156 30.8242 20.5 31.2067L20.9929 31.6972L23.2641 33.9599L23.4514 34.1466Z" fill="white"/>
</svg>
