<svg width="32" height="30" viewBox="0 0 32 30" fill="none" xmlns="http://www.w3.org/2000/svg">
<path d="M1.76474 12.2488C0.790238 12.2488 0 13.0104 0 13.9495V17.2383C0 18.1775 0.790238 18.9396 1.76474 18.9396C2.7393 18.9396 3.53016 18.178 3.53016 17.2383V16.8227H5.97273V18.5142C5.97273 19.0246 6.31105 19.6933 6.72856 20.0084L11.661 23.7227V30H20.3388V23.6426L25.2657 20.0016C25.6862 19.6903 26.0273 19.0246 26.0273 18.5142V16.8226H28.4696V17.2382C28.4696 18.1774 29.2601 18.9395 30.2352 18.9395C31.2098 18.9395 32 18.178 32 17.2382V13.9495C32 13.0103 31.2098 12.2487 30.2352 12.2487C29.2607 12.2487 28.4696 13.0103 28.4696 13.9495V14.4571H26.0273V6.89181H28.4696V7.39662C28.4696 8.33579 29.2601 9.09793 30.2352 9.09793C31.2098 9.09793 32 8.33632 32 7.39662V4.1085C32 3.16933 31.2098 2.40772 30.2352 2.40772C29.2607 2.40772 28.4696 3.16933 28.4696 4.1085V4.52676H26.0273V0.62578C26.0273 0.115113 25.6333 -0.132897 25.1483 0.0717693L16.8473 3.57433C16.3617 3.77927 15.5748 3.7782 15.0898 3.57234L6.85057 0.0740331C6.36577 -0.131832 5.97273 0.115113 5.97273 0.62578V4.52623H3.53023V4.10804C3.53023 3.16886 2.73992 2.40726 1.7648 2.40726C0.790238 2.40719 0 3.1688 0 4.1085V7.39715C0 8.33632 0.790238 9.09846 1.76474 9.09846C2.7393 9.09846 3.53016 8.33712 3.53016 7.39715V6.89234H5.97273V14.4577H3.53023V13.9501C3.53023 13.0104 2.73992 12.2488 1.76474 12.2488Z" fill="#A1A1A1"/>
</svg>
