<svg width="347" height="273" viewBox="0 0 347 273" fill="none" xmlns="http://www.w3.org/2000/svg">
<path fill-rule="evenodd" clip-rule="evenodd" d="M182.092 8.04093C190.458 1.82327 203.879 0.697515 214.965 8.08464C217.815 9.98417 220.519 14.192 222.562 18.8887C224.589 23.5495 225.805 28.3108 225.909 31.0124C225.991 33.1496 225.488 35.8561 224.778 38.4486C224.62 39.0233 224.454 39.5863 224.284 40.129C224.144 39.9228 223.942 39.6879 223.659 39.5044C223.714 36.434 223.554 32.3102 222.894 28.812C222.528 26.8697 221.985 24.9904 221.155 23.5834C220.324 22.1747 218.985 20.9155 217.031 21.0717C215.877 21.164 213.88 20.8432 211.224 20.1992C208.636 19.5716 205.623 18.6909 202.513 17.7816L202.484 17.773C199.381 16.8657 196.186 15.9322 193.307 15.2267C190.456 14.5284 187.784 14.0191 185.76 14.0191C183.765 14.0191 181.826 14.0604 180.114 14.3037C178.463 14.5384 176.872 14.9797 175.605 15.8798C176.942 13.0252 179.021 10.3234 182.092 8.04093ZM220.104 40.7066C220.287 40.4586 220.483 40.2247 220.691 40.02C220.777 37.0261 220.642 32.8103 219.991 29.3592C219.646 27.5331 219.18 26.0504 218.61 25.083C218.04 24.1173 217.588 23.9896 217.267 24.0153C215.578 24.1503 213.146 23.7038 210.528 23.0689C207.872 22.425 204.805 21.5284 201.73 20.6293L201.654 20.6072C198.536 19.6955 195.407 18.7818 192.603 18.0948C189.77 17.4005 187.398 16.972 185.76 16.972C183.774 16.972 182.017 17.0159 180.53 17.2273C179.03 17.4406 177.964 17.8047 177.258 18.3291C176.617 18.8051 176.167 19.4889 176.032 20.6529C175.889 21.8857 176.106 23.656 176.928 26.1781C178.266 30.2761 179.552 32.2286 180.455 33.0699C180.755 33.349 180.972 33.4802 181.119 33.5395C181.285 32.7381 181.415 31.8835 181.524 30.9962C181.631 30.12 181.717 29.2354 181.801 28.3547L181.806 28.3061C181.888 27.4492 181.971 26.5919 182.071 25.7856C182.268 24.2055 182.558 22.5659 183.219 21.3814C183.567 20.7572 184.073 20.1555 184.819 19.7956C185.581 19.4278 186.412 19.3996 187.234 19.5968C187.37 19.6294 187.564 19.661 187.809 19.7007C188.626 19.8332 190.003 20.0564 191.631 20.715C193.712 21.5565 196.392 23.1262 199.984 26.207C202.247 25.5382 205.001 24.7615 207.56 24.51C210.326 24.2382 213.463 24.5197 215.328 26.9186C217.091 28.9671 219.079 33.2433 219.969 39.6427C220.017 39.9908 220.062 40.3454 220.104 40.7066ZM174.12 27.0936C175.331 30.8052 176.608 33.1939 177.873 34.6408C177.233 35.2954 176.635 36.0297 176.104 36.8323C175.726 36.1165 175.34 35.2354 174.984 34.2017C174.194 31.909 173.611 29.0389 173.562 25.9594C173.557 25.6954 173.557 25.4301 173.561 25.1636C173.714 25.7787 173.901 26.4216 174.12 27.0936ZM220.446 46.6811C220.852 45.5963 221.424 44.2201 222.019 43.1819C222.068 43.0974 222.115 43.0177 222.161 42.9426C222.198 43.1459 222.234 43.3712 222.268 43.6182C222.454 44.9778 222.552 46.7954 222.552 48.7459C222.552 50.6907 222.455 52.7262 222.262 54.5132C222.074 56.2594 221.806 57.6577 221.499 58.5041C221.236 58.9372 220.917 59.3619 220.595 59.6896C220.422 59.865 220.267 59.9938 220.136 60.0794C220.114 60.0948 220.093 60.1078 220.073 60.1196C219.912 59.8515 219.678 59.2467 219.524 58.049L219.516 58.05C220.184 53.8466 220.457 50.0581 220.446 46.6811ZM219.761 63.1305C219.795 63.8693 219.821 64.6524 219.835 65.4704L219.867 65.406C221.777 66.361 224.625 68.1027 227.021 70.2702C229.151 72.1967 231.233 74.7363 231.558 77.5646C242.465 78.6419 258.715 81.5523 273.006 86.909C280.315 89.6494 287.179 93.0542 292.562 97.2303C297.826 101.314 301.774 106.217 303.222 112.047C309.399 114.242 317.18 117.465 324.441 121.31C332.444 125.549 340.033 130.653 344.026 136.107C346.548 139.552 347.79 143.364 346.459 147.231C345.528 151.472 339.897 160.246 325.038 166.035C324.489 166.332 323.912 166.642 323.31 166.963C326.654 183.318 327.768 221.142 306.883 251.803L306.867 251.827L306.85 251.85C302.048 258.343 293.228 266.663 281.322 270.658C269.34 274.678 254.375 274.267 237.515 263.481C237.131 263.236 236.685 262.851 236.196 262.378L236.037 262.585C228.231 256.596 217.021 249.446 205.958 244.278C200.428 241.694 194.972 239.624 190.023 238.435C185.048 237.239 180.722 236.968 177.38 237.838C166.383 240.699 156.636 233.55 151.411 222.714C146.301 212.119 145.239 197.611 151.232 183.904L150.7 183.764C149.015 187.313 145.44 191.681 140.866 195.27C135.718 199.31 129.06 202.557 122.003 202.439C113.381 202.296 103.358 198.093 95.545 193.808C91.6104 191.65 88.1739 189.437 85.6739 187.631C84.4266 186.729 83.395 185.917 82.6451 185.253C82.2723 184.924 81.9473 184.612 81.695 184.33L81.6643 184.295L81.6436 184.272L81.6212 184.246L81.607 184.23C80.0116 184.01 78.0653 183.363 76.09 182.56C73.7384 181.602 71.1734 180.35 68.7922 179.082C66.4092 177.812 64.1864 176.515 62.516 175.459C61.6834 174.932 60.972 174.456 60.4414 174.067C60.1785 173.874 59.9398 173.688 59.7472 173.518C59.6514 173.434 59.5504 173.339 59.4576 173.238C59.3938 173.169 59.2857 173.046 59.1882 172.881C58.4236 172.662 57.7908 172.236 57.3015 171.664C56.6705 170.924 56.339 170.014 56.1647 169.167C56.1228 168.962 56.0885 168.754 56.0613 168.545C55.9591 168.559 55.8569 168.57 55.7541 168.579C54.9298 168.65 53.9832 168.57 53.1235 168.164C52.2183 167.736 51.4703 166.967 51.1335 165.833C51.0803 165.655 51.0389 165.471 51.0082 165.283C50.4032 165.159 49.8525 164.906 49.3863 164.494C48.5484 163.754 48.2542 162.735 48.1809 161.855C48.0379 160.139 48.6624 158.177 49.2007 156.954C49.4306 156.432 49.7485 155.889 50.1243 155.34L44.6445 153.149C44.1683 154 43.2737 154.503 42.5233 154.816C41.6305 155.19 40.5256 155.465 39.3415 155.669C36.9603 156.077 34.0047 156.237 31.178 156.195C31.0297 156.192 30.8814 156.19 30.7337 156.187L30.6326 156.523C31.0457 156.826 31.3854 157.219 31.6454 157.582C31.9615 158.023 32.2321 158.521 32.4277 159.003C32.6079 159.447 32.7728 159.995 32.7805 160.531C32.8425 161.957 32.4572 163.211 31.5 164.025C30.5564 164.828 29.364 164.938 28.3755 164.748C27.3817 164.557 26.4144 164.039 25.6817 163.309C24.9449 162.573 24.3641 161.533 24.3641 160.297C24.3641 158.719 25.3107 157.771 26.1598 157.227C26.5698 156.963 26.9976 156.765 27.3356 156.614C27.413 156.579 27.4839 156.548 27.5489 156.52L27.6942 156.035C26.1485 155.914 24.7151 155.725 23.5345 155.471C22.5436 155.259 21.5917 154.973 20.8992 154.562C20.6989 154.443 20.4703 154.285 20.2611 154.076L20.1861 154.325C20.5997 154.629 20.9388 155.021 21.1988 155.383C21.5155 155.825 21.7861 156.322 21.9817 156.805C22.1613 157.249 22.3262 157.797 22.3345 158.333C22.3959 159.758 22.0107 161.013 21.054 161.827C20.1098 162.629 18.9174 162.74 17.9295 162.55C16.9357 162.359 15.9679 161.841 15.2358 161.11C14.499 160.375 13.9175 159.334 13.9175 158.098C13.9175 156.521 14.8641 155.572 15.7132 155.028C16.1232 154.765 16.551 154.567 16.889 154.416C16.967 154.381 17.0373 154.35 17.1029 154.321L17.4592 153.133C17.4586 153.133 17.458 153.134 17.4574 153.134C16.3224 153.274 14.8665 153.416 13.6783 153.13C13.0549 152.979 12.3547 152.677 11.8323 152.057C11.8294 152.054 11.8271 152.05 11.8241 152.047C11.8336 152.06 11.843 152.073 11.8524 152.086C12.1685 152.527 12.4391 153.025 12.6347 153.508C12.8149 153.952 12.9798 154.5 12.9875 155.035C13.0496 156.461 12.6643 157.716 11.7071 158.529C10.7635 159.332 9.57111 159.443 8.58258 159.252C7.58871 159.062 6.62146 158.544 5.88879 157.813C5.15198 157.078 4.57117 156.037 4.57117 154.801C4.57117 153.224 5.51773 152.275 6.36682 151.731C6.77628 151.468 7.20465 151.269 7.54263 151.119C7.62003 151.084 7.69095 151.053 7.75595 151.024L8.11636 149.825C7.57571 149.87 7.00613 149.937 6.42706 150.018C5.36057 150.168 4.36197 150.35 3.53595 150.501C3.18851 150.564 2.8718 150.621 2.5929 150.669C2.36719 150.708 2.15152 150.741 1.97131 150.763C1.95123 150.765 1.93115 150.767 1.91046 150.77C1.88803 150.772 1.86496 150.774 1.84192 150.776C1.78815 150.781 1.7326 150.785 1.67706 150.787C1.60794 150.79 1.40762 150.798 1.18311 150.747C1.08679 150.725 0.796661 150.654 0.518951 150.413C0.142578 150.089 -0.0801697 149.564 0.0267944 149.002C0.105377 148.592 0.331055 148.336 0.404907 148.255C0.504181 148.148 0.600525 148.073 0.656647 148.032C0.852234 147.89 1.09802 147.772 1.27527 147.69C1.27765 147.689 1.32727 147.662 1.41589 147.561C1.51456 147.449 1.63629 147.273 1.77222 147.016C2.04755 146.494 2.3158 145.76 2.57104 144.828C3.08157 142.967 3.47452 140.577 3.83551 138.101C3.92651 137.477 4.01575 136.846 4.10437 136.22L4.10791 136.193L4.10849 136.193C4.36374 134.386 4.61371 132.616 4.88907 131.14C5.07578 130.139 5.28433 129.213 5.53308 128.461C5.65775 128.085 5.80429 127.715 5.98273 127.387C6.15231 127.075 6.40402 126.7 6.7822 126.417C7.20172 126.102 7.68564 126.007 7.99939 125.966C8.35449 125.921 8.74329 125.919 9.13446 125.94C9.91971 125.981 10.8923 126.121 11.9742 126.325C13.0962 126.536 14.3837 126.824 15.7776 127.167L16.0724 126.184C15.6588 125.881 15.3191 125.489 15.0597 125.126C14.743 124.685 14.4723 124.187 14.2768 123.704C14.0971 123.261 13.9323 122.713 13.924 122.176C13.8626 120.751 14.2478 119.496 15.2044 118.683C16.1487 117.88 17.341 117.769 18.3289 117.96C19.3228 118.15 20.2906 118.668 21.0227 119.399C21.7596 120.134 22.3409 121.175 22.3409 122.412C22.3409 123.988 21.3938 124.937 20.5453 125.481C20.1352 125.744 19.7069 125.943 19.3689 126.094C19.2915 126.128 19.2206 126.159 19.1556 126.188L18.6398 127.906C19.0628 128.02 19.4912 128.137 19.9237 128.256C21.8346 128.784 23.8365 129.368 25.8235 129.966L25.9689 129.482C25.5553 129.179 25.2161 128.786 24.9561 128.423C24.6394 127.982 24.3688 127.484 24.1732 127.002C23.9936 126.558 23.8288 126.01 23.8205 125.474C23.7591 124.048 24.1443 122.794 25.1009 121.98C26.0451 121.177 27.2375 121.067 28.2254 121.257C29.2193 121.448 30.1871 121.966 30.9192 122.696C31.656 123.432 32.2374 124.472 32.2374 125.709C32.2374 127.286 31.2903 128.234 30.4418 128.779C30.0317 129.042 29.6033 129.24 29.2654 129.391L29.159 129.438L29.0521 129.486L28.6485 130.83C31.2436 131.636 33.7217 132.435 35.8311 133.134L35.8654 133.02C35.4518 132.716 35.1126 132.324 34.8526 131.961C34.5359 131.52 34.2653 131.022 34.0697 130.54C33.8901 130.096 33.7252 129.548 33.7169 129.012C33.6555 127.586 34.0408 126.332 34.9974 125.518C35.9416 124.715 37.134 124.605 38.1219 124.795C39.1158 124.986 40.0836 125.504 40.8157 126.234C41.5525 126.97 42.1339 128.01 42.1339 129.247C42.1339 130.824 41.1868 131.772 40.3383 132.316C39.9282 132.58 39.4998 132.778 39.1618 132.929C39.0844 132.964 39.0135 132.995 38.9485 133.023L38.6058 134.166C39.7769 134.722 41.1088 135.512 42.3915 136.363C44.1086 137.501 45.8558 138.827 47.1853 140.027L62.8303 142.939C63.3733 141.296 64.0593 140.058 64.9468 139.279C65.4786 138.812 66.0901 138.504 66.7632 138.4C67.429 138.296 68.0589 138.405 68.6132 138.621C69.6779 139.035 70.576 139.878 71.2656 140.704C71.922 141.491 72.4898 142.385 72.9277 143.206C73.0122 143.193 73.0967 143.183 73.1806 143.176C73.6521 143.136 74.2341 143.166 74.7795 143.448C75.3863 143.762 75.7757 144.299 75.9364 144.923C76.0067 145.199 76.0309 145.478 76.0233 145.754L126.295 156.679L126.296 156.678C126.373 156.656 126.616 156.537 127.025 156.191C127.406 155.868 127.828 155.434 128.26 154.937C128.622 154.522 128.975 154.08 129.297 153.653C128.464 153.228 127.772 152.816 127.233 152.442L126.882 152.198L126.715 151.804C126.289 150.796 126.17 149.47 126.193 148.066C126.216 146.618 126.395 144.909 126.686 143.027C127.268 139.262 128.321 134.679 129.589 129.886C132.126 120.293 135.562 109.73 137.953 102.928L138.031 102.956C138.18 102.394 138.355 101.885 138.559 101.438C139.046 100.37 140.024 99.0257 141.7 99.2017C141.923 99.2253 142.435 99.1745 143.314 98.9194C144.15 98.6761 145.18 98.291 146.369 97.7813C148.743 96.7631 151.642 95.2973 154.709 93.63C160.401 90.5359 166.579 86.7998 170.865 84.0913C170.965 83.8403 171.086 83.6011 171.211 83.3808C171.463 82.9373 171.784 82.4766 172.14 82.0177C172.853 81.0993 173.777 80.0959 174.756 79.1132C176.716 77.1441 178.996 75.155 180.501 73.9206L182.769 72.0609C182.475 71.2193 182.094 70.2897 181.664 69.2419L181.663 69.2413C180.248 65.7958 178.309 61.0764 177.282 54.0441C174.193 50.1018 173.33 46.067 173.894 42.4644C174.033 41.578 174.257 40.7251 174.551 39.9128C173.664 38.7268 172.844 37.0581 172.191 35.1631C171.306 32.594 170.662 29.416 170.608 26.0068C170.498 19.1728 172.766 11.2926 180.329 5.67129C189.705 -1.29749 204.489 -2.4453 216.604 5.62764C220.199 8.02333 223.182 12.9096 225.271 17.7111C227.376 22.5483 228.738 27.6892 228.861 30.8988C228.96 33.4905 228.364 36.5436 227.627 39.2296C226.919 41.8096 226.049 44.1666 225.422 45.6481C225.479 46.6277 225.507 47.6777 225.507 48.7459C225.507 50.7798 225.405 52.9221 225.2 54.8294C224.998 56.7012 224.684 58.4689 224.212 59.6825L224.17 59.7924L224.11 59.894C223.74 60.5247 223.255 61.198 222.701 61.7614C222.178 62.2912 221.44 62.8824 220.548 63.0743C220.298 63.1287 220.033 63.1511 219.761 63.1305ZM11.1345 150.044C11.1393 150.691 11.3006 151.311 11.6693 151.843C11.4394 151.555 11.1617 151.264 10.8397 151.028L11.1345 150.044ZM176.813 42.921C176.629 44.0925 176.635 45.3513 176.906 46.6693C176.928 46.3575 176.962 46.0339 177.011 45.6935C177.307 43.6092 178.144 41.0182 180.134 36.5552C178.511 38.1567 177.21 40.3851 176.813 42.921ZM188.68 80.0239C186.629 78.975 184.832 77.0656 183.388 73.6696L182.855 75.4786L181.773 79.1569C181.759 80.4769 182.108 82.5705 182.773 85.0735C183.459 87.6508 184.445 90.5335 185.584 93.2131C186.729 95.905 188 98.3276 189.235 100.022C189.855 100.872 190.423 101.478 190.913 101.848C191.277 102.123 191.518 102.209 191.652 102.232H191.656H191.697H191.738H191.779H191.82H191.828C193.944 102.015 197.341 100.92 201.073 98.7145C204.818 96.5009 208.811 93.2196 212.09 88.7411C214.58 85.3398 215.914 79.9654 216.505 74.4114C216.717 72.4182 216.83 70.4355 216.872 68.5604C215.154 71.8181 211.927 74.8402 208.478 77.091C206.26 78.5391 203.863 79.728 201.542 80.4981C199.241 81.2624 196.916 81.648 194.884 81.3811C194.584 81.3415 194.25 81.3084 193.893 81.2736H193.892H193.891L193.89 81.273C192.39 81.1259 190.463 80.9369 188.68 80.0239ZM44.7379 141.807C44.9317 142.951 45.0824 144.699 44.937 146.397C44.7763 148.277 44.2859 149.707 43.5118 150.411L42.0529 151.736L42.0524 151.736C42.0553 151.729 42.0583 151.723 42.0601 151.718L42.0618 151.715L42.0642 151.71C42.0648 151.709 42.0654 151.707 42.0659 151.706L42.0666 151.705C42.0671 151.703 42.0671 151.703 42.0671 151.703C42.0659 151.702 42.0624 151.705 42.0553 151.712C42.0134 151.749 41.8479 151.898 41.3823 152.093C40.7796 152.345 39.9199 152.573 38.8416 152.758C36.6967 153.126 33.9344 153.283 31.2217 153.242C28.5043 153.202 25.9293 152.965 24.1544 152.585C23.5026 152.445 23.0281 152.299 22.712 152.17C22.7835 151.663 22.7032 151.062 22.1921 150.545C21.8653 150.213 21.4795 150.063 21.2 149.988C20.9117 149.911 20.6221 149.885 20.371 149.878C19.6625 149.857 18.6894 149.989 17.809 150.109L17.8031 150.109C17.7074 150.122 17.6134 150.135 17.5207 150.148C17.3735 150.167 17.2305 150.186 17.0934 150.203C15.9005 150.351 14.9622 150.402 14.3713 150.259C14.2082 150.22 14.1308 150.178 14.1013 150.16C14.0936 150.127 14.0842 150.061 14.0912 149.942C14.1515 148.919 13.68 148.099 12.9337 147.586C12.2873 147.142 11.4908 146.96 10.7889 146.876C9.3584 146.707 7.56924 146.876 6.01584 147.094C5.63474 147.148 5.2554 147.207 4.88788 147.266C5.08582 146.746 5.2619 146.187 5.42023 145.608C5.98392 143.553 6.39871 140.998 6.75916 138.527C6.85663 137.856 6.95059 137.193 7.04218 136.544V136.543C7.29446 134.76 7.53082 133.088 7.79318 131.681C7.97162 130.724 8.15182 129.951 8.33795 129.388C8.41122 129.167 8.478 129.001 8.5347 128.883C8.64578 128.879 8.79291 128.879 8.98019 128.889C9.57285 128.919 10.3965 129.033 11.4276 129.227C13.4797 129.613 16.1782 130.285 19.1367 131.103C25.0442 132.735 31.8617 134.91 36.3363 136.416C37.3703 136.764 39.0017 137.659 40.7584 138.824C42.1836 139.768 43.6046 140.833 44.7379 141.807ZM66.8967 141.497C66.5983 141.759 66.1865 142.339 65.7669 143.486L69.9745 144.27C70.0182 144.248 70.0614 144.226 70.1039 144.205C69.7825 143.646 69.4037 143.083 68.9972 142.596C68.4318 141.919 67.9218 141.521 67.5425 141.373C67.3753 141.308 67.2748 141.308 67.2175 141.317C67.1667 141.325 67.0609 141.353 66.8967 141.497ZM72.5336 147.75L70.4584 147.364C69.2578 148.048 67.8533 148.984 66.3525 150.109C63.8236 152.005 61.141 154.348 58.8863 156.695C56.6374 159.036 54.9209 161.272 54.141 163.007C53.8308 164.063 53.8716 164.676 53.9655 164.993C54.0459 165.263 54.1841 165.398 54.3874 165.494C54.6367 165.612 55.0214 165.678 55.5023 165.637C55.6967 165.62 55.8882 165.588 56.0696 165.543C56.1192 165.12 56.1842 164.73 56.2545 164.392C57.7613 157.162 62.7334 153.599 67.1785 152.286L67.2548 152.263L67.3327 152.249C67.5833 152.204 67.8409 152.177 68.1009 152.17C69.3553 150.852 70.3627 150.103 71.0363 149.603C71.2709 149.428 71.4647 149.284 71.6148 149.157C71.9084 148.906 72.1099 148.677 72.3084 148.281C72.3817 148.134 72.4568 147.96 72.5336 147.75ZM60.3351 145.479L47.8754 143.159C47.9611 144.227 47.9841 145.44 47.8807 146.649C47.7649 148.004 47.4766 149.528 46.8124 150.836L51.9264 152.88L51.7793 153.248C52.5894 152.329 53.5141 151.386 54.4766 150.469C56.4259 148.612 58.576 146.816 60.3351 145.479ZM51.1246 161.609C51.1541 161.959 51.2327 162.136 51.2924 162.222C51.3072 162.17 51.3232 162.117 51.3391 162.065L51.3645 161.982L51.3987 161.904C52.3766 159.665 54.411 157.09 56.755 154.65C59.1279 152.179 61.9322 149.731 64.5799 147.746C64.9858 147.442 65.3906 147.147 65.7929 146.862C65.6511 146.697 65.4863 146.562 65.309 146.483C65.0396 146.363 64.3459 146.192 62.9727 147.199L62.9662 147.204C61.1859 148.493 58.7137 150.512 56.5151 152.606C55.4167 153.653 54.4034 154.703 53.5856 155.677C52.7524 156.669 52.1841 157.51 51.9052 158.143C51.4354 159.21 51.0431 160.628 51.1246 161.609ZM75.3556 148.632L157.159 166.406L199.296 176.679C199.255 176.733 199.215 176.791 199.179 176.852C199.002 177.141 198.828 177.587 198.918 178.125C199.046 178.898 199.22 179.888 199.822 180.671C200.395 181.416 201.194 181.798 202.112 181.997C202.053 182.032 201.995 182.066 201.938 182.101L201.887 182.131L201.822 182.17C201.227 182.531 200.681 182.903 200.228 183.28C199.796 183.64 199.354 184.082 199.074 184.601C199.059 184.628 199.042 184.659 199.023 184.692C199.007 184.721 198.99 184.753 198.971 184.786V184.786L198.97 184.79C198.842 185.018 198.662 185.338 198.529 185.632C198.335 186.058 198.136 186.623 198.135 187.281C198.13 188.754 199.07 189.952 200.7 190.954C201.513 191.455 202.468 191.662 203.429 191.712C203.399 191.723 203.369 191.734 203.339 191.745L203.26 191.775C202.026 192.237 200.746 192.83 199.807 193.661L76.7181 161.198C75.7585 159.902 74.4835 158.039 73.4583 156.236C72.8887 155.233 72.4184 154.287 72.1194 153.489C71.9977 153.164 71.9185 152.899 71.8683 152.69C72.1389 152.472 72.3888 152.286 72.6299 152.107L72.6305 152.107C72.9354 151.88 73.2273 151.663 73.5309 151.404C74.0751 150.94 74.5473 150.408 74.9508 149.601C75.0968 149.31 75.2303 148.988 75.3556 148.632ZM59.0582 168.572C59.1404 168.971 59.2544 169.278 59.3814 169.504C59.5232 169.063 59.6892 168.598 59.8653 168.133C60.4775 166.517 61.2746 164.743 61.8341 163.572C63.0779 160.156 65.4904 157.882 67.8072 156.846C68.1428 156.696 68.4861 156.568 68.8318 156.466C69.2501 156.076 69.3795 155.799 69.4138 155.676C69.4392 155.585 69.4256 155.566 69.4008 155.532L69.3996 155.53C69.3464 155.456 69.1922 155.316 68.8861 155.216C68.6084 155.126 68.2722 155.092 67.9319 155.143C64.3353 156.23 60.3794 159.08 59.1468 164.994C58.9412 165.982 58.8224 167.425 59.0582 168.572ZM139.042 192.947C143.162 189.715 146.258 185.928 147.784 182.995L104.777 171.652C101.22 173.223 95.8434 174.801 90.9929 174.422C89.4561 174.301 87.9316 173.981 86.5236 173.375C86.5921 173.691 86.6223 174.007 86.6246 174.314C86.6364 175.57 86.1915 176.901 85.7348 178.026C85.4979 178.608 85.2367 179.184 84.9921 179.715L84.8733 179.973C84.6706 180.413 84.4851 180.816 84.3238 181.192C84.1306 181.645 84 181.998 83.9303 182.266C83.925 182.286 83.9202 182.306 83.9161 182.324C83.912 182.341 83.9084 182.356 83.9055 182.371C84.0526 182.534 84.2818 182.758 84.6033 183.042C85.2556 183.62 86.2039 184.37 87.4046 185.237C89.8017 186.97 93.1348 189.118 96.966 191.219C104.685 195.452 114.18 199.356 122.052 199.487C128.191 199.589 134.201 196.746 139.042 192.947ZM82.2575 169.966C81.6595 169.792 81.0267 169.631 80.3892 169.481C79.1803 169.197 77.8585 168.93 76.5858 168.674L76.5692 168.67L76.5255 168.662C76.184 168.593 75.846 168.524 75.5145 168.457C73.9015 168.127 72.4662 167.813 71.4156 167.484C71.0292 167.363 70.7338 167.251 70.5205 167.153C70.6788 166.585 71.1031 166.145 71.8109 165.41C71.9752 165.239 72.1548 165.053 72.3504 164.845C72.9176 164.242 73.5694 163.462 73.9457 162.411C74.2034 162.768 74.4462 163.096 74.6672 163.387L74.975 163.792L75.4673 163.922L80.297 165.196C80.6687 167.091 81.3375 168.674 82.2575 169.966ZM83.5699 166.059L99.8004 170.34C97.0736 171.156 93.9963 171.694 91.2234 171.478C89.1063 171.312 87.2769 170.715 85.8973 169.579C84.9265 168.78 84.1046 167.654 83.5699 166.059ZM132.062 154.882C137.132 156.85 145.033 158.557 154.759 157.451C155.301 158.248 155.852 159.225 156.228 160.239C156.367 160.612 156.475 160.972 156.552 161.316C156.414 161.925 156.285 162.543 156.166 163.169L129.949 157.472C130.133 157.277 130.314 157.077 130.489 156.876C131.06 156.219 131.603 155.517 132.062 154.882ZM207.209 241.603C213.827 244.694 220.483 248.474 226.46 252.301C223.878 249.816 220.868 247.141 217.431 244.524C206.498 236.202 191.298 228.507 171.85 229.366L171.778 229.369L171.707 229.365C166.905 229.113 160.304 226.407 155.707 219.317C152.621 214.556 150.487 207.9 150.329 198.813C149.488 207.122 151.002 215.065 154.072 221.431C158.976 231.602 167.564 237.34 176.636 234.98C180.657 233.934 185.534 234.319 190.713 235.564C195.918 236.815 201.569 238.968 207.209 241.603ZM154.449 184.753L197.788 196.182C197.478 196.698 197.159 197.392 197.18 198.151C197.193 198.674 197.367 199.195 197.736 199.643C198.086 200.068 198.548 200.35 199.023 200.542C199.943 200.912 201.217 201.065 202.849 201.065H202.875L202.901 201.065C203.441 201.045 204.094 200.871 204.692 200.683C205.333 200.482 206.077 200.211 206.858 199.911C207.634 199.613 208.471 199.278 209.307 198.943L209.329 198.934C209.823 198.737 210.316 198.539 210.802 198.347C209.667 198.94 208.444 199.512 207.242 200.074L207.239 200.075L207 200.187L206.836 200.263L206.666 200.343L206.562 200.391L206.343 200.495C204.677 201.279 202.98 202.103 201.971 202.921C201.52 203.285 200.814 203.948 200.727 204.907C200.618 206.098 201.474 206.828 202.122 207.194C205.305 208.993 208.078 208.652 210.187 207.768C209.977 208.243 209.81 208.751 209.763 209.25C209.714 209.774 209.784 210.432 210.217 211.018C210.649 211.603 211.276 211.893 211.886 212.024C212.387 212.131 212.914 212.092 213.374 212.019C213.857 211.941 214.385 211.802 214.937 211.626C216.041 211.274 217.355 210.732 218.783 210.069C221.496 208.81 224.74 207.065 227.969 205.195L228.008 205.214L228.044 205.23C228.429 205.41 228.959 205.629 229.573 205.872C230.808 206.36 232.487 206.981 234.272 207.632C235.318 208.013 236.401 208.404 237.457 208.786L237.465 208.789L237.47 208.79L237.481 208.794C239.764 209.62 241.925 210.4 243.342 210.945C243.174 211.232 242.994 211.527 242.804 211.828C242.44 212.407 242.056 212.991 241.667 213.582L241.637 213.627L241.636 213.629L241.635 213.63L241.632 213.634L241.632 213.636L241.631 213.637C241.256 214.205 240.877 214.781 240.524 215.342C239.815 216.47 239.127 217.665 238.788 218.758C238.457 219.825 238.311 221.335 239.538 222.407L239.598 222.46L239.663 222.506C240.638 223.188 242.197 224.133 243.73 224.742C244.49 225.045 245.329 225.3 246.132 225.36C246.912 225.419 247.933 225.308 248.702 224.539L248.84 224.401L248.937 224.232C251.004 220.651 254.105 215.154 256.693 210.299C257.986 207.873 259.159 205.592 260.011 203.784C260.437 202.882 260.792 202.077 261.045 201.421C261.17 201.093 261.279 200.783 261.357 200.504C261.426 200.259 261.501 199.937 261.505 199.615C261.551 197.903 261.579 195.312 261.511 193.081C261.478 191.967 261.42 190.908 261.322 190.083C261.284 189.757 261.236 189.437 261.173 189.15C262.333 188.772 263.481 188.407 264.592 188.07C267.639 187.147 270.32 186.46 272.229 186.233C275.234 186.383 279.226 185.585 283.6 184.29C288.08 182.963 293.117 181.066 298.184 178.941C306.192 175.583 314.336 171.631 320.582 168.394C323.692 184.685 324.379 220.85 304.457 250.117C299.908 256.26 291.554 264.11 280.382 267.858C269.272 271.587 255.235 271.311 239.107 260.994C238.745 260.762 238.051 260.093 236.898 258.869C236.499 258.447 236.051 257.965 235.561 257.437L235.557 257.432C234.725 256.537 233.771 255.51 232.727 254.417C229.366 250.899 224.86 246.468 219.22 242.175C207.954 233.598 192.115 225.536 171.794 226.413C167.893 226.185 162.22 223.933 158.187 217.711C154.174 211.522 151.675 201.228 154.449 184.753ZM258.659 190.102L258.76 189.95L258.55 190.02C258.583 190.048 258.619 190.075 258.659 190.102ZM258.389 190.429C258.373 190.301 258.358 190.188 258.343 190.09C257.212 190.471 256.085 190.856 254.983 191.232L254.913 191.256L254.911 191.257C253.019 191.902 251.194 192.525 249.561 193.056L249.559 193.064C249.545 193.119 249.529 193.194 249.511 193.291C249.477 193.488 249.443 193.743 249.412 194.058C249.348 194.688 249.299 195.487 249.252 196.411C249.23 196.843 249.209 197.301 249.186 197.778C249.115 199.31 249.035 201.028 248.9 202.668C248.724 204.792 248.445 206.955 247.908 208.517C247.708 209.099 247.433 209.718 247.028 210.23C246.58 211.289 245.95 212.374 245.306 213.398C244.923 214.008 244.522 214.618 244.135 215.206L244.112 215.24V215.24L244.111 215.241C243.729 215.821 243.363 216.377 243.025 216.914C242.318 218.038 241.823 218.946 241.61 219.634C241.517 219.931 241.504 220.107 241.508 220.191C242.369 220.778 243.641 221.529 244.823 221.999C245.455 222.251 245.977 222.387 246.352 222.415C246.45 222.423 246.522 222.422 246.573 222.418C248.626 218.854 251.598 213.577 254.085 208.91C255.37 206.5 256.517 204.268 257.339 202.525C257.751 201.651 258.072 200.92 258.287 200.361C258.395 200.081 258.468 199.865 258.512 199.706C258.539 199.613 258.548 199.562 258.551 199.546L258.552 199.544C258.597 197.866 258.624 195.33 258.559 193.17C258.526 192.083 258.471 191.125 258.389 190.429ZM246.302 196.261C246.343 195.44 246.389 194.671 246.448 194.014C245.441 194.298 244.539 194.516 243.832 194.614C243.794 194.619 243.756 194.624 243.717 194.629C243.233 195.135 242.473 195.759 241.578 196.434C240.606 197.169 239.396 198.021 238.031 198.938C236.009 200.297 233.628 201.812 231.144 203.315C232.282 203.756 233.73 204.291 235.283 204.858C236.295 205.226 237.354 205.608 238.396 205.985L238.4 205.987L238.411 205.99C240.912 206.894 243.318 207.763 244.762 208.328C244.849 208.197 244.976 207.958 245.114 207.557C245.521 206.376 245.781 204.54 245.956 202.426C246.086 200.844 246.162 199.201 246.234 197.679C246.256 197.192 246.278 196.717 246.302 196.261ZM159.495 163.936C159.685 163.089 159.684 162.227 159.567 161.397C161.134 154.851 163.842 149.445 166.872 145.4C170.388 140.708 174.225 137.99 177.091 137.274C184.966 135.306 192.717 136.553 201.086 138.714C203.334 139.295 205.635 139.945 207.992 140.61H207.993C214.316 142.396 221.039 144.295 228.215 145.273C234.522 146.132 244.354 144.986 254.037 143.236C263.721 141.485 273.466 139.089 279.83 137.295C286.006 136.631 291.248 139.36 293.8 141.325C275.669 159.687 253.769 167.361 243.545 168.977C242.316 168.88 241.197 169.051 240.228 169.534C239.403 169.944 238.761 170.543 238.277 171.257C235.497 170.563 231.43 169.827 227.162 169.593C222.464 169.336 217.302 169.673 213.348 171.537C211.037 172.095 207.658 172.993 204.845 173.925C204.167 174.149 203.511 174.379 202.902 174.61L202.924 174.524L159.495 163.936ZM217.54 207.39C220.286 206.117 223.653 204.296 227.017 202.332C230.377 200.371 233.71 198.284 236.383 196.488C237.72 195.589 238.883 194.769 239.798 194.078C240.27 193.721 240.658 193.412 240.963 193.156L209.785 181.651C208.939 181.99 208.099 182.342 207.295 182.7C205.765 183.38 204.396 184.064 203.354 184.695C202.833 185.012 202.42 185.299 202.119 185.549C201.969 185.674 201.86 185.779 201.783 185.864C201.745 185.905 201.718 185.939 201.7 185.964C201.683 185.987 201.676 185.999 201.675 186C201.645 186.057 201.617 186.109 201.59 186.158C201.566 186.201 201.543 186.242 201.521 186.281L201.481 186.351C201.379 186.536 201.299 186.678 201.218 186.854C201.112 187.089 201.089 187.218 201.089 187.291C201.088 187.33 201.091 187.414 201.208 187.577C201.343 187.766 201.636 188.063 202.248 188.44C202.704 188.72 203.569 188.857 204.932 188.714C206.236 188.577 207.709 188.219 209.163 187.825C209.252 187.802 209.34 187.778 209.429 187.753C209.475 187.74 209.523 187.727 209.569 187.714L209.693 187.681L209.855 187.636L209.978 187.602L210.174 187.547C211.233 187.254 212.265 186.967 213.07 186.816C213.576 186.721 214.199 186.635 214.752 186.726C215.04 186.774 215.468 186.893 215.837 187.235C216.254 187.621 216.422 188.128 216.422 188.598C216.422 189.535 215.899 190.217 215.392 190.654C214.89 191.085 214.251 191.416 213.619 191.684C212.349 192.221 210.669 192.677 209.046 193.115L208.919 193.149C207.287 193.59 205.672 194.025 204.296 194.54C202.826 195.09 201.92 195.631 201.523 196.121C201.471 196.185 201.421 196.247 201.371 196.309L201.309 196.384L201.308 196.385C200.975 196.794 200.68 197.156 200.444 197.51C200.352 197.648 200.287 197.759 200.242 197.845C200.657 197.982 201.444 198.11 202.813 198.112C202.93 198.104 203.243 198.043 203.808 197.866C204.36 197.692 205.036 197.447 205.798 197.154C206.555 196.864 207.376 196.535 208.221 196.197L208.23 196.193C209.074 195.855 209.941 195.508 210.772 195.188C212.376 194.571 214.017 193.989 215.135 193.826C215.425 193.784 215.765 193.756 216.102 193.795C216.407 193.831 216.97 193.952 217.392 194.448C217.869 195.01 217.853 195.664 217.753 196.081C217.659 196.475 217.462 196.828 217.273 197.111C216.368 198.467 214.666 199.592 212.998 200.518C211.562 201.315 209.94 202.073 208.464 202.763C208.169 202.9 207.881 203.034 207.602 203.166C206.114 203.866 204.94 204.452 204.202 204.944C206.501 205.997 208.346 205.474 209.797 204.682C210.53 204.282 211.136 203.826 211.678 203.418L211.68 203.417L211.701 203.401C211.74 203.372 211.778 203.343 211.817 203.314C211.842 203.295 211.867 203.277 211.893 203.258C212.148 203.066 212.495 202.809 212.823 202.65C212.98 202.574 213.298 202.435 213.694 202.434C214.203 202.433 214.728 202.663 215.062 203.149C215.36 203.582 215.381 204.034 215.358 204.31C215.335 204.588 215.257 204.833 215.19 205.008C215.054 205.36 214.846 205.724 214.655 206.038C214.481 206.324 214.279 206.635 214.083 206.936L213.999 207.065C213.77 207.416 213.549 207.76 213.348 208.098C213.094 208.527 212.925 208.865 212.824 209.115C212.849 209.112 212.875 209.108 212.904 209.103C213.192 209.057 213.569 208.963 214.038 208.813C214.975 208.515 216.163 208.029 217.54 207.39ZM209.786 181.651L240.963 193.156C239.327 189.166 237.454 183.386 237.037 178.573C236.901 177.007 236.909 175.439 237.186 174.03C234.583 173.405 230.875 172.754 227 172.542C222.392 172.289 217.774 172.672 214.489 174.265L214.345 174.334L214.189 174.372C211.921 174.916 208.542 175.811 205.773 176.728C204.38 177.189 203.196 177.638 202.394 178.032C202.213 178.121 202.067 178.2 201.951 178.268C202.037 178.649 202.105 178.793 202.164 178.871L202.165 178.872C202.177 178.89 202.295 179.059 203.055 179.168C203.055 179.167 203.068 179.169 203.096 179.17C203.116 179.17 203.145 179.17 203.183 179.17C203.279 179.168 203.406 179.161 203.567 179.146C203.889 179.116 204.3 179.059 204.79 178.978C205.766 178.816 206.986 178.567 208.293 178.275C210.903 177.693 213.796 176.956 215.661 176.456L216.466 179.297C214.585 179.858 212.157 180.702 209.786 181.651ZM209.786 181.651L203.058 179.168H203.055L209.785 181.651H209.786ZM157.81 156.749C157.248 155.798 156.644 154.981 156.137 154.389L156.129 154.379L156.12 154.369C147.578 144.764 142.979 131.26 141.183 120.15C140.286 114.603 140.102 109.739 140.442 106.347C140.614 104.633 140.91 103.403 141.248 102.663C141.381 102.369 141.484 102.221 141.546 102.152C142.334 102.201 143.245 102.015 144.139 101.755C145.135 101.465 146.286 101.03 147.533 100.495C150.029 99.4249 153.02 97.9095 156.12 96.2245C160.961 93.5934 166.133 90.5123 170.228 87.9739C169.974 90.0357 169.671 92.717 169.42 95.2654C169.206 97.4317 169.026 99.5324 168.942 101.101C168.901 101.878 168.881 102.562 168.897 103.068C168.906 103.309 168.923 103.583 168.974 103.825C168.995 103.934 169.046 104.149 169.168 104.372C169.264 104.547 169.667 105.185 170.52 105.185H170.523H170.527H170.531H170.535H170.54H170.545H170.55H170.555H170.561H170.567H170.574H170.58H170.587H170.594H170.602H170.61H170.618H170.626H170.635H170.644H170.653H170.663H170.673H170.683H170.694H170.704H170.715H170.727H170.738H170.75H170.762H170.774H170.787H170.8H170.813H170.826H170.841H170.855H170.869H170.883H170.899H170.913H170.929H170.945H170.961H170.977H170.993H171.01H171.027H171.044H171.062H171.079H171.097H171.115H171.134H171.153H171.172H171.192H171.211H171.231H171.251H171.271H171.292H171.313H171.333H171.355H171.377H171.398H171.42H171.443H171.465H171.488H171.511H171.534H171.558H171.582H171.605H171.629H171.654H171.679H171.704H171.729H171.754H171.78H171.806H171.832H171.858H171.885H171.911H171.939H171.966H171.993H172.021H172.048H172.076H172.105H172.133H172.162H172.191H172.22H172.249H172.279H172.309H172.339H172.369H172.399H172.43H172.461H172.492H172.523H172.555H172.587H172.619H172.651H172.683H172.715H172.748H172.781H172.814H172.847H172.881H172.915H172.949H172.983H173.017H173.052H173.086H173.121H173.156H173.191H173.227H173.262H173.298H173.334H173.37H173.406H173.443H173.479H173.517H173.554H173.591H173.628H173.666H173.704H173.742H173.78H173.818H173.856H173.895H173.934H173.973H174.012H174.051H174.091H174.131H174.17H174.21H174.251H174.291H174.332H174.372H174.412H174.454H174.495H174.536H174.577H174.619H174.661H174.703H174.745H174.787H174.829H174.872H174.914H174.957H175H175.043H175.086H175.13H175.173H175.217H175.26H175.305H175.348H175.393H175.437H175.481H175.526H175.571H175.615H175.661H175.706H175.751H175.796H175.842H175.888H175.933H175.979H176.026H176.072H176.118H176.164H176.211H176.258H176.304H176.351H176.398H176.446H176.493H176.54H176.587H176.635H176.683H176.73H176.778H176.827H176.875H176.923H176.972H177.02H177.068H177.117H177.166H177.215H177.264H177.313H177.362H177.411H177.461H177.51H177.56H177.61H177.659H177.709H177.759H177.809H177.859H177.909H177.96H178.01H178.061H178.111H178.162H178.213H178.264H178.315H178.365H178.417H178.468H178.519H178.57H178.622H178.673H178.725H178.776H178.828H178.88H178.931H178.983H179.035H179.087H179.139H179.192H179.244H179.297H179.349H179.401H179.454H179.506H179.559H179.612H179.665H179.717H179.77H179.823H179.876H179.929H179.982H180.035H180.088H180.142H180.195H180.249H180.302H180.355H180.409H180.462H180.516H180.569H180.623H180.677H180.731H180.784H180.838H180.892H180.946H180.999H181.054H181.108H181.162H181.216H181.27H181.324H181.378H181.433H181.486H181.541H181.595H181.649H181.704H181.758H181.813H181.867H181.921H181.976H182.03H182.084H182.139H182.194H182.248H182.302H182.357H182.412H182.466H182.521H182.575H182.63H182.685H182.739H182.794H182.848H182.903H182.958H183.012H183.067H183.121H183.176H183.231H183.286H183.34H183.395H183.449H183.504H183.559H183.613H183.668H183.722H183.777H183.832H183.886H183.94H183.995H184.05H184.104H184.158H184.213H184.267H184.321H184.376H184.43H184.484H184.539H184.593H184.648H184.702H184.756H184.81H184.864H184.919H184.973H185.027H185.081H185.135H185.189H185.243H185.297H185.351H185.404H185.458H185.512H185.566H185.619H185.673H185.726H185.78H185.833H185.887H185.94H185.994H186.047H186.1H186.154H186.207H186.259H186.313H186.366H186.418H186.472H186.524H186.577H186.63H186.682H186.735H186.788H186.84H186.892H186.945H186.997H187.049H187.101H187.153H187.205H187.257H187.309H187.361H187.413H187.464H187.516H187.568H187.619H187.67H187.721H187.773H187.824H187.875H187.926H187.976H188.027H188.078H188.129H188.179H188.229H188.28H188.33H188.381H188.43H188.48H188.53H188.58H188.63H188.68H188.729H188.778H188.828H188.877H188.926H188.975H189.024H189.073H189.122H189.17H189.219H189.267H189.315H189.363H189.412H189.46H189.507H189.555H189.603H189.65H189.698H189.745H189.792H189.839H189.886H189.933H189.98H190.026H190.072H190.119H190.165H190.211H190.257H190.303H190.349H190.394H190.44H190.485H190.53H190.575H190.62H190.665H190.709H190.754H190.798H190.843H190.887H190.931H190.975H191.018H191.061H191.105H191.148H191.191H191.235H191.277H191.32H191.362H191.405H191.447H191.489H191.496C191.675 105.197 191.856 105.196 192.041 105.179C192.508 105.134 193.011 105.058 193.544 104.949L194.739 106.229C194.678 106.285 194.629 106.304 194.618 106.308C194.622 106.307 194.632 106.304 194.649 106.302C194.662 106.301 194.678 106.299 194.698 106.298C194.854 106.288 195.127 106.311 195.545 106.416C196.382 106.628 197.498 107.091 198.847 107.759C200.653 108.652 202.686 109.811 204.79 111.011L204.791 111.011H204.791L204.796 111.014C205.843 111.611 206.907 112.218 207.97 112.807C209.544 113.68 211.102 114.504 212.532 115.156C213.942 115.799 215.321 116.318 216.518 116.517C217.639 116.704 219.124 116.691 220.095 115.549C221.016 114.467 220.978 112.922 220.649 111.426C220.096 108.915 220.406 106.057 221.277 102.992C222.147 99.9346 223.543 96.782 225.052 93.7245C225.769 92.2711 226.504 90.853 227.215 89.4817L227.321 89.2761C228.062 87.8469 228.777 86.4643 229.398 85.175C230.017 83.8881 230.559 82.6603 230.948 81.5376C231.068 81.1915 231.177 80.846 231.27 80.5034C241.997 81.563 257.982 84.4309 271.968 89.6742C279.123 92.3561 285.687 95.6351 290.75 99.5626C294.394 102.39 297.205 105.509 298.929 108.937C292.786 104.82 284.538 99.8088 276.298 95.8241C271.254 93.3843 266.17 91.309 261.55 90.067C256.975 88.8367 252.649 88.366 249.23 89.3606C248.798 89.4858 248.305 89.6122 247.766 89.7504C244.993 90.4603 240.99 91.485 237.78 94.3446C233.801 97.89 231.211 103.985 232.227 114.821L232.238 114.933L232.265 115.041C232.944 117.758 234.575 122.02 237.287 126.154C239.997 130.287 243.862 134.405 249.056 136.647L249.225 136.721L249.407 136.749C252.99 137.326 258.352 138.005 263.548 138.307C260.294 139.026 256.898 139.718 253.512 140.33C243.813 142.084 234.403 143.136 228.614 142.347C221.658 141.399 215.24 139.586 208.981 137.818L208.98 137.818L208.976 137.817C206.576 137.139 204.199 136.468 201.825 135.855C193.346 133.665 184.994 132.255 176.375 134.409C172.591 135.354 168.236 138.655 164.507 143.63C161.878 147.14 159.504 151.555 157.81 156.749ZM279.625 134.348C279.453 131.526 280.205 127.418 283.086 123.62C286.092 119.656 291.518 115.898 300.968 114.387C307.21 116.538 315.44 119.886 323.058 123.92C323.342 124.07 323.625 124.222 323.907 124.374C323.734 124.339 323.562 124.306 323.389 124.274C319.648 123.584 315.961 123.525 312.724 124.148C309.497 124.769 306.616 126.09 304.634 128.248L304.565 128.324L304.506 128.408C301.799 132.331 298.889 135.915 295.852 139.183C292.927 136.849 286.879 133.607 279.625 134.348ZM129.317 150.279C132.471 152.266 140.895 155.59 152.523 154.698C144.37 144.681 140.016 131.442 138.266 120.621C137.871 118.177 137.606 115.841 137.461 113.676C135.742 119.022 133.936 125.005 132.445 130.641C131.188 135.392 130.165 139.862 129.606 143.479C129.326 145.289 129.167 146.853 129.147 148.113C129.131 149.102 129.203 149.811 129.317 150.279ZM225.039 72.4595C223.367 70.9476 221.42 69.6447 219.823 68.7334C219.777 70.6552 219.66 72.6828 219.443 74.7239C218.839 80.3971 217.444 86.4283 214.475 90.4845C210.929 95.3274 206.62 98.8668 202.576 101.256C200.729 102.348 198.919 103.211 197.242 103.849C198.149 104.165 199.14 104.609 200.158 105.112C202.04 106.043 204.209 107.279 206.361 108.506C207.39 109.092 208.415 109.677 209.403 110.224C210.955 111.085 212.434 111.866 213.758 112.469C215.102 113.082 216.197 113.47 217.004 113.605C217.547 113.695 217.776 113.645 217.849 113.618C217.885 113.523 217.998 113.125 217.763 112.06C217.065 108.886 217.495 105.493 218.436 102.185C219.379 98.8686 220.868 95.5276 222.402 92.4187C223.133 90.9381 223.88 89.4964 224.588 88.1304L224.589 88.1298L224.698 87.9178C225.442 86.482 226.137 85.1384 226.735 83.8952C227.335 82.6491 227.822 81.5376 228.157 80.5708C228.497 79.588 228.647 78.8486 228.647 78.3218C228.647 76.5423 227.27 74.4776 225.039 72.4595ZM187.153 102.232H187.203C187.083 102.078 186.965 101.921 186.848 101.761C185.425 99.8112 184.052 97.1606 182.865 94.3677C181.673 91.5623 180.64 88.5479 179.918 85.8324C179.263 83.3678 178.832 81.0367 178.819 79.3057C178.153 79.9211 177.483 80.5607 176.85 81.1962C175.912 82.1382 175.082 83.0448 174.475 83.8279C174.17 84.2195 173.94 84.5579 173.781 84.8366C173.703 84.9748 173.649 85.0871 173.614 85.1733C173.597 85.2164 173.586 85.2489 173.578 85.2731C173.571 85.2973 173.569 85.3085 173.569 85.3085C173.351 86.6196 172.786 91.2375 172.36 95.5554C172.147 97.7087 171.972 99.7569 171.892 101.258C171.872 101.626 171.859 101.952 171.852 102.232H171.858H171.885H171.911H171.939H171.966H171.993H172.021H172.048H172.076H172.105H172.133H172.162H172.191H172.22H172.249H172.279H172.309H172.339H172.369H172.399H172.43H172.461H172.492H172.523H172.555H172.587H172.619H172.651H172.683H172.715H172.748H172.781H172.814H172.847H172.881H172.915H172.949H172.983H173.017H173.052H173.086H173.121H173.156H173.191H173.227H173.262H173.298H173.334H173.37H173.406H173.443H173.479H173.517H173.554H173.591H173.628H173.666H173.704H173.742H173.78H173.818H173.856H173.895H173.934H173.973H174.012H174.051H174.091H174.131H174.17H174.21H174.251H174.291H174.332H174.372H174.412H174.454H174.495H174.536H174.577H174.619H174.661H174.703H174.745H174.787H174.829H174.872H174.914H174.957H175H175.043H175.086H175.13H175.173H175.217H175.26H175.305H175.348H175.393H175.437H175.481H175.526H175.571H175.615H175.661H175.706H175.751H175.796H175.842H175.888H175.933H175.979H176.026H176.072H176.118H176.164H176.211H176.258H176.304H176.351H176.398H176.446H176.493H176.54H176.587H176.635H176.683H176.73H176.778H176.827H176.875H176.923H176.972H177.02H177.068H177.117H177.166H177.215H177.264H177.313H177.362H177.411H177.461H177.51H177.56H177.61H177.659H177.709H177.759H177.809H177.859H177.909H177.96H178.01H178.061H178.111H178.162H178.213H178.264H178.315H178.365H178.417H178.468H178.519H178.57H178.622H178.673H178.725H178.776H178.828H178.88H178.931H178.983H179.035H179.087H179.139H179.192H179.244H179.297H179.349H179.401H179.454H179.506H179.559H179.612H179.665H179.717H179.77H179.823H179.876H179.929H179.982H180.035H180.088H180.142H180.195H180.249H180.302H180.355H180.409H180.462H180.516H180.569H180.623H180.677H180.731H180.784H180.838H180.892H180.946H180.999H181.054H181.108H181.162H181.216H181.27H181.324H181.378H181.433H181.486H181.541H181.595H181.649H181.704H181.758H181.813H181.867H181.921H181.976H182.03H182.084H182.139H182.194H182.248H182.302H182.357H182.412H182.466H182.521H182.575H182.63H182.685H182.739H182.794H182.848H182.903H182.958H183.012H183.067H183.121H183.176H183.231H183.286H183.34H183.395H183.449H183.504H183.559H183.613H183.668H183.722H183.777H183.832H183.886H183.94H183.995H184.05H184.104H184.158H184.213H184.267H184.321H184.376H184.43H184.484H184.539H184.593H184.648H184.702H184.756H184.81H184.864H184.919H184.973H185.027H185.081H185.135H185.189H185.243H185.297H185.351H185.404H185.458H185.512H185.566H185.619H185.673H185.726H185.78H185.833H185.887H185.94H185.994H186.047H186.1H186.154H186.207H186.259H186.313H186.366H186.418H186.472H186.524H186.577H186.63H186.682H186.735H186.788H186.84H186.892H186.945H186.997H187.049H187.101H187.153ZM217.875 113.607C217.877 113.605 217.878 113.605 217.878 113.605C217.878 113.605 217.878 113.605 217.877 113.606C217.877 113.606 217.876 113.606 217.875 113.607ZM280.732 121.836C283.984 117.547 289.435 113.762 298.074 111.922C291.951 107.773 283.462 102.569 275.012 98.4824C270.057 96.0857 265.157 94.0942 260.783 92.9184C256.364 91.7307 252.683 91.4318 250.055 92.1961C249.497 92.3579 248.912 92.5102 248.308 92.6679C245.53 93.3908 242.365 94.2153 239.746 96.5493C236.713 99.2513 234.224 104.243 235.158 114.433C235.779 116.855 237.274 120.748 239.758 124.535C242.249 128.333 245.66 131.912 250.062 133.864C254.014 134.492 260.061 135.233 265.583 135.451C268.39 135.562 271.018 135.536 273.148 135.302C274.213 135.186 275.119 135.021 275.844 134.811C276.176 134.714 276.451 134.613 276.675 134.513C276.467 131.037 277.399 126.23 280.732 121.836ZM341.662 137.879C343.871 140.907 344.573 143.715 343.641 146.338L343.607 146.435L343.586 146.536C342.984 149.47 338.306 157.721 323.881 163.316L323.793 163.35L323.711 163.395C317.329 166.858 307.065 172.015 297.041 176.218C292.028 178.32 287.1 180.174 282.761 181.458C278.38 182.756 274.75 183.426 272.273 183.277L272.146 183.27L272.021 183.284C269.812 183.529 266.856 184.298 263.734 185.244C260.59 186.198 257.176 187.363 254.029 188.437L254.027 188.438L254.024 188.439L254.022 188.44C250.858 189.52 247.984 190.501 245.857 191.111C244.86 191.398 244.086 191.586 243.548 191.671C242.004 187.831 240.349 182.568 239.98 178.318C239.781 176.015 239.985 174.266 240.552 173.197C240.817 172.7 241.145 172.376 241.545 172.177C241.954 171.973 242.555 171.843 243.447 171.932L243.633 171.951L243.818 171.922C256.663 169.955 287.02 158.873 306.877 130.174C308.303 128.661 310.502 127.583 313.282 127.048C316.096 126.507 319.405 126.543 322.854 127.178C329.757 128.451 336.977 132.083 341.662 137.879ZM141.611 102.096C141.61 102.094 141.599 102.099 141.577 102.119C141.6 102.109 141.612 102.099 141.611 102.096ZM201.625 178.49C201.626 178.49 201.627 178.489 201.629 178.486C201.626 178.489 201.625 178.49 201.625 178.49ZM203.466 204.555L203.47 204.558C203.467 204.555 203.465 204.553 203.465 204.553L203.466 204.555ZM246.684 222.399C246.683 222.399 246.681 222.399 246.677 222.401L246.679 222.401L246.682 222.399C246.682 222.399 246.684 222.399 246.684 222.399ZM71.1214 159.313C71.1214 159.315 71.1214 159.317 71.122 159.317C71.3991 160.315 71.3276 160.947 71.1716 161.395C71.0044 161.875 70.6871 162.302 70.1973 162.823C70.088 162.939 69.9609 163.066 69.8232 163.203L69.8221 163.204L69.8215 163.205C68.9009 164.122 67.494 165.523 67.494 167.715V167.897L67.5384 168.073C67.7523 168.928 68.4666 169.398 68.8619 169.621C69.3411 169.892 69.929 170.113 70.5323 170.302C71.7477 170.683 73.3265 171.024 74.9225 171.35C75.2799 171.423 75.6392 171.495 75.9984 171.567L76.0309 171.575C77.296 171.83 78.5545 172.084 79.7126 172.356C81.2353 172.714 82.4312 173.071 83.1556 173.432C83.4002 173.555 83.4995 173.676 83.5521 173.77C83.6118 173.875 83.6679 174.049 83.6709 174.34C83.6762 174.973 83.4339 175.84 82.9973 176.914C82.7875 177.43 82.5506 177.954 82.3077 178.483L82.1943 178.728V178.729C81.9916 179.168 81.786 179.615 81.6075 180.032C81.4504 180.4 81.2985 180.78 81.1798 181.151C80.1032 180.907 78.7495 180.454 77.2044 179.825C74.9774 178.918 72.5082 177.715 70.1813 176.476C67.8568 175.237 65.6984 173.976 64.0954 172.963C63.2924 172.455 62.6436 172.019 62.1898 171.686L62.1585 171.663C62.0616 171.592 61.9777 171.528 61.9062 171.472C61.9163 171.419 61.928 171.361 61.9428 171.297C61.9517 171.258 61.9617 171.217 61.9724 171.173C62.103 170.647 62.334 169.956 62.6282 169.179C63.2132 167.635 63.9919 165.903 64.5302 164.782L64.5639 164.712L64.5899 164.64C65.5536 161.943 67.4137 160.257 69.0132 159.542C69.828 159.178 70.4673 159.111 70.8348 159.171C71.1155 159.216 71.1202 159.292 71.1214 159.313ZM61.8666 171.766C61.8678 171.782 61.8678 171.791 61.8672 171.792C61.8672 171.792 61.8666 171.79 61.8666 171.785C61.8666 171.781 61.8666 171.774 61.8666 171.766ZM70.1849 166.964C70.1837 166.964 70.1908 166.97 70.2079 166.983C70.1943 166.97 70.1855 166.963 70.1849 166.964ZM83.7766 182.215C83.7695 182.204 83.7684 182.203 83.7761 182.214L83.7766 182.215ZM8.3078 128.908C8.30838 128.908 8.31372 128.906 8.32434 128.903C8.31253 128.906 8.3078 128.907 8.3078 128.908ZM14.1107 150.184C14.1107 150.184 14.1096 150.18 14.1054 150.173C14.1084 150.181 14.1102 150.184 14.1107 150.184ZM22.3404 151.979C22.3368 151.976 22.3345 151.974 22.3345 151.974C22.3345 151.974 22.3362 151.976 22.3404 151.979ZM186.104 22.4547C186.123 22.4455 186.231 22.3932 186.544 22.4682C186.935 22.562 187.288 22.6186 187.647 22.6763C188.426 22.8011 189.234 22.9308 190.523 23.4523C192.325 24.1813 194.913 25.6702 198.65 28.961L199.263 29.501L200.047 29.2686L200.128 29.2445C202.57 28.5196 205.352 27.6941 207.849 27.4488C210.453 27.1928 212.151 27.6269 213.01 28.75L213.039 28.7869L213.069 28.8219C214.332 30.2732 216.193 33.9424 217.043 40.0492C217.885 46.1107 217.715 54.4829 215.025 65.2359C214.242 68.3684 211.01 71.912 206.863 74.6187C204.83 75.9458 202.66 77.0154 200.611 77.6957C198.542 78.3826 196.695 78.6407 195.27 78.4529C194.792 78.3903 194.34 78.3436 193.908 78.2993C192.475 78.1529 191.262 78.0282 190.026 77.3957C188.559 76.6451 186.938 75.0534 185.563 71.1011C185.22 70.1154 184.798 69.086 184.338 67.9633C182.794 64.1959 180.819 59.376 179.95 51.6421C179.948 50.7498 179.909 49.9752 179.876 49.3029C179.863 49.0482 179.851 48.8081 179.842 48.5821C179.808 47.726 179.811 46.9842 179.935 46.109C180.188 44.3307 180.964 41.8571 183.229 36.8761L183.25 36.8316L183.267 36.7857C183.901 35.1028 184.232 33.1844 184.456 31.356C184.57 30.4349 184.658 29.5124 184.742 28.6368L184.745 28.6104V28.6096C184.829 27.7364 184.908 26.9147 185.003 26.1504C185.203 24.5431 185.452 23.4421 185.799 22.8193C185.955 22.5399 186.07 22.4712 186.103 22.4549L186.104 22.4547ZM221.84 41.7874C221.833 41.7757 221.833 41.7774 221.84 41.7886L221.84 41.7874ZM212.437 203.933C212.437 203.933 212.436 203.935 212.435 203.939L212.436 203.936C212.437 203.933 212.437 203.933 212.437 203.933ZM18.9358 121.489C19.2572 121.81 19.3866 122.137 19.3866 122.412C19.3866 122.593 19.3429 122.743 18.9494 122.996C18.7384 123.131 18.4826 123.256 18.1659 123.397C18.1151 123.419 18.0601 123.443 18.0016 123.469L17.9993 123.47L17.9963 123.472C17.8852 123.52 17.7629 123.574 17.6388 123.631C17.5868 123.572 17.5266 123.498 17.461 123.406C17.2849 123.16 17.1259 122.869 17.0149 122.595C16.9605 122.461 16.9233 122.344 16.9008 122.253C16.8837 122.183 16.8795 122.145 16.8784 122.135V122.135V122.133V122.101L16.8766 122.067C16.8352 121.197 17.0793 120.965 17.1189 120.932C17.1786 120.881 17.3658 120.782 17.7706 120.859C18.17 120.936 18.6096 121.164 18.9358 121.489ZM28.8322 124.786C29.1537 125.108 29.2831 125.434 29.2831 125.709C29.2831 125.89 29.2394 126.041 28.8459 126.294C28.6349 126.429 28.3791 126.553 28.0624 126.694C28.0116 126.716 27.9566 126.741 27.8981 126.767L27.8957 126.768L27.894 126.768C27.7829 126.817 27.66 126.871 27.5353 126.928C27.4833 126.869 27.423 126.795 27.3574 126.703C27.1813 126.458 27.0224 126.166 26.9113 125.893C26.857 125.758 26.8197 125.642 26.7973 125.551C26.7772 125.468 26.7748 125.43 26.7748 125.43V125.399L26.7731 125.364C26.7317 124.494 26.9757 124.262 27.0153 124.229C27.075 124.178 27.2623 124.079 27.6671 124.157C28.0665 124.234 28.5061 124.461 28.8322 124.786ZM38.7288 128.325C39.0502 128.645 39.1796 128.972 39.1796 129.247C39.1796 129.428 39.1358 129.579 38.7423 129.831C38.5314 129.966 38.2755 130.091 37.9588 130.232C37.9074 130.255 37.8513 130.279 37.7922 130.305L37.7892 130.307C37.6782 130.356 37.5559 130.409 37.4318 130.466C37.3798 130.407 37.3195 130.333 37.2539 130.241C37.0779 129.996 36.9189 129.704 36.8078 129.431C36.7534 129.296 36.7162 129.18 36.6938 129.089C36.6761 129.017 36.6725 128.978 36.6713 128.97V128.968V128.937L36.6695 128.902C36.6282 128.032 36.8722 127.801 36.9118 127.767C36.9721 127.716 37.1588 127.617 37.5635 127.694C37.963 127.771 38.4026 127.999 38.7288 128.325ZM7.97635 155.723C7.65433 155.402 7.52551 155.075 7.52551 154.801C7.52551 154.619 7.56863 154.469 7.96216 154.216C8.1731 154.08 8.42892 153.956 8.74622 153.815C8.79764 153.792 8.85379 153.768 8.91287 153.742L8.91403 153.741C9.02512 153.692 9.14801 153.638 9.27267 153.581C9.32529 153.64 9.38495 153.714 9.45114 153.806C9.6272 154.052 9.78616 154.344 9.89667 154.617C9.9516 154.751 9.98883 154.868 10.0107 154.959C10.016 154.979 10.0196 154.997 10.0231 155.012C10.0308 155.05 10.0326 155.072 10.0332 155.077L10.0338 155.079V155.11L10.0355 155.146C10.0769 156.015 9.83224 156.247 9.79266 156.28C9.73297 156.331 9.54568 156.43 9.14093 156.353C8.74152 156.276 8.30249 156.048 7.97635 155.723ZM17.3227 159.02C17.0007 158.699 16.8719 158.372 16.8719 158.098C16.8719 157.916 16.915 157.766 17.3085 157.514C17.5201 157.378 17.7759 157.254 18.0926 157.113C18.1434 157.09 18.1984 157.066 18.2569 157.04L18.2592 157.039L18.2604 157.039L18.2616 157.038C18.3727 156.989 18.495 156.935 18.6191 156.879C18.6717 156.938 18.7319 157.012 18.7975 157.103C18.9736 157.349 19.1325 157.641 19.2436 157.914C19.298 158.049 19.3352 158.165 19.3577 158.256C19.363 158.277 19.3665 158.296 19.3701 158.312C19.3719 158.321 19.3736 158.329 19.3748 158.337C19.3784 158.358 19.3795 158.37 19.3801 158.375V158.375C19.3801 158.376 19.3801 158.376 19.3801 158.376V158.408L19.3819 158.443C19.4232 159.313 19.1792 159.544 19.139 159.578C19.0793 159.629 18.8926 159.728 18.4873 159.65C18.0885 159.573 17.6489 159.346 17.3227 159.02ZM27.7693 161.218C27.4473 160.897 27.3185 160.571 27.3185 160.297C27.3185 160.115 27.3616 159.964 27.7551 159.712C27.966 159.576 28.2225 159.452 28.5392 159.311C28.5906 159.288 28.6467 159.264 28.7058 159.238L28.707 159.237L28.7082 159.236C28.8192 159.187 28.9416 159.134 29.0657 159.077C29.1053 159.121 29.149 159.174 29.1962 159.237C29.2116 159.257 29.2276 159.279 29.2441 159.301C29.4202 159.547 29.5791 159.839 29.6896 160.112C29.7446 160.247 29.7818 160.363 29.8036 160.454C29.8214 160.524 29.8255 160.563 29.8261 160.572V160.573L29.8267 160.575V160.606L29.8285 160.641C29.8698 161.511 29.6258 161.742 29.5856 161.776C29.5259 161.827 29.3386 161.926 28.9339 161.848C28.5345 161.771 28.0954 161.544 27.7693 161.218Z" fill="#7F00FF"/>
</svg>
