<svg width="430" height="234" viewBox="0 0 430 234" fill="none" xmlns="http://www.w3.org/2000/svg">
<mask id="mask0_508_1446" style="mask-type:alpha" maskUnits="userSpaceOnUse" x="0" y="0" width="430" height="234">
<rect width="430" height="234" fill="#D9D9D9"/>
</mask>
<g mask="url(#mask0_508_1446)">
<path d="M-2 72.1278L431 59V234L-2 219V72.1278Z" fill="#232323"/>
<path d="M53.2939 70L38.2939 70.5117V220.362L53.2939 221V70Z" fill="url(#paint0_linear_508_1446)"/>
<path d="M181.294 66.583L169.294 66.9539V224.705L181.294 225.109V66.583Z" fill="url(#paint1_linear_508_1446)"/>
<path d="M297.294 63.0791L285.294 63.4395V228.363L297.294 228.75V63.0791Z" fill="url(#paint2_linear_508_1446)"/>
<path d="M411.294 59.6328L399.294 60.0007V231.961L411.294 232.34V59.6328Z" fill="url(#paint3_linear_508_1446)"/>
<line y1="-2" x2="430.01" y2="-2" transform="matrix(-0.999976 -0.00697657 -0.00697657 0.999976 430 194)" stroke="#7F00FF" stroke-width="4"/>
<line y1="-2" x2="430.01" y2="-2" transform="matrix(-0.999976 -0.00697657 -0.00697657 0.999976 430 194)" stroke="#7F00FF" stroke-width="4"/>
<line y1="-2" x2="430.01" y2="-2" transform="matrix(-0.999976 -0.00697657 -0.00697657 0.999976 430 194)" stroke="#7F00FF" stroke-width="4"/>
<line y1="-2" x2="430.01" y2="-2" transform="matrix(-0.999976 -0.00697657 -0.00697657 0.999976 430 194)" stroke="#7F00FF" stroke-width="4"/>
<line y1="-2" x2="430.01" y2="-2" transform="matrix(-0.999976 -0.00697657 -0.00697657 0.999976 430 194)" stroke="#7F00FF" stroke-width="4"/>
<line y1="-2" x2="435.074" y2="-2" transform="matrix(-0.999831 -0.0183877 -0.0183877 0.999831 430 224)" stroke="#7F00FF" stroke-width="4"/>
<path d="M430 161.5L28 161L-3.91293e-06 161" stroke="#7F00FF" stroke-width="4"/>
<path d="M430 130.2L26 131.5L-4 131.5" stroke="#7F00FF" stroke-width="4"/>
<path d="M430 99L20.5 102.5H-3.5" stroke="#7F00FF" stroke-width="4"/>
<path d="M-2 76.5H33.5L430 70.5" stroke="#7F00FF" stroke-width="4"/>
<path d="M369.18 15.5902C369.18 24.7527 357.492 45 352.59 45C347.689 45 336 24.7527 336 15.5902C336 6.42767 343.428 -1 352.59 -1C361.753 -1 369.18 6.42767 369.18 15.5902Z" fill="white"/>
<path d="M344.552 13.908C344.552 13.948 344.536 13.984 344.504 14.016C344.48 14.04 344.448 14.052 344.408 14.052H340.484C340.444 14.052 340.424 14.072 340.424 14.112V15.972C340.424 16.012 340.444 16.032 340.484 16.032H343.064C343.104 16.032 343.136 16.048 343.16 16.08C343.192 16.104 343.208 16.136 343.208 16.176V17.34C343.208 17.38 343.192 17.416 343.16 17.448C343.136 17.472 343.104 17.484 343.064 17.484H340.484C340.444 17.484 340.424 17.504 340.424 17.544V20.856C340.424 20.896 340.408 20.932 340.376 20.964C340.352 20.988 340.32 21 340.28 21H338.876C338.836 21 338.8 20.988 338.768 20.964C338.744 20.932 338.732 20.896 338.732 20.856V12.744C338.732 12.704 338.744 12.672 338.768 12.648C338.8 12.616 338.836 12.6 338.876 12.6H344.408C344.448 12.6 344.48 12.616 344.504 12.648C344.536 12.672 344.552 12.704 344.552 12.744V13.908ZM348.059 14.748C348.347 14.748 348.575 14.804 348.743 14.916C348.807 14.948 348.831 15.008 348.815 15.096L348.563 16.464C348.555 16.56 348.499 16.588 348.395 16.548C348.275 16.508 348.135 16.488 347.975 16.488C347.911 16.488 347.823 16.496 347.711 16.512C347.423 16.536 347.179 16.644 346.979 16.836C346.779 17.02 346.679 17.268 346.679 17.58V20.856C346.679 20.896 346.663 20.932 346.631 20.964C346.607 20.988 346.575 21 346.535 21H345.131C345.091 21 345.055 20.988 345.023 20.964C344.999 20.932 344.987 20.896 344.987 20.856V14.976C344.987 14.936 344.999 14.904 345.023 14.88C345.055 14.848 345.091 14.832 345.131 14.832H346.535C346.575 14.832 346.607 14.848 346.631 14.88C346.663 14.904 346.679 14.936 346.679 14.976V15.432C346.679 15.456 346.687 15.472 346.703 15.48C346.719 15.488 346.731 15.484 346.739 15.468C347.067 14.988 347.507 14.748 348.059 14.748ZM354.889 17.28C354.937 17.584 354.953 17.924 354.937 18.3C354.929 18.396 354.877 18.444 354.781 18.444H351.073C351.025 18.444 351.009 18.464 351.025 18.504C351.049 18.664 351.093 18.824 351.157 18.984C351.365 19.432 351.789 19.656 352.429 19.656C352.941 19.648 353.345 19.44 353.641 19.032C353.673 18.984 353.709 18.96 353.749 18.96C353.773 18.96 353.801 18.976 353.833 19.008L354.697 19.86C354.737 19.9 354.757 19.936 354.757 19.968C354.757 19.984 354.741 20.016 354.709 20.064C354.445 20.392 354.105 20.648 353.689 20.832C353.273 21.008 352.817 21.096 352.321 21.096C351.633 21.096 351.049 20.94 350.569 20.628C350.097 20.316 349.757 19.88 349.549 19.32C349.381 18.92 349.297 18.396 349.297 17.748C349.297 17.308 349.357 16.92 349.477 16.584C349.661 16.016 349.981 15.564 350.437 15.228C350.901 14.892 351.449 14.724 352.081 14.724C352.881 14.724 353.521 14.956 354.001 15.42C354.489 15.884 354.785 16.504 354.889 17.28ZM352.093 16.188C351.589 16.188 351.257 16.424 351.097 16.896C351.065 17 351.037 17.128 351.013 17.28C351.013 17.32 351.033 17.34 351.073 17.34H353.149C353.197 17.34 353.213 17.32 353.197 17.28C353.157 17.048 353.137 16.936 353.137 16.944C353.065 16.704 352.937 16.52 352.753 16.392C352.577 16.256 352.357 16.188 352.093 16.188ZM359.379 16.044C359.379 16.084 359.363 16.12 359.331 16.152C359.307 16.176 359.275 16.188 359.235 16.188H358.083C358.043 16.188 358.023 16.208 358.023 16.248V18.792C358.023 19.056 358.075 19.252 358.179 19.38C358.291 19.508 358.467 19.572 358.707 19.572H359.103C359.143 19.572 359.175 19.588 359.199 19.62C359.231 19.644 359.247 19.676 359.247 19.716V20.856C359.247 20.944 359.199 20.996 359.103 21.012C358.767 21.028 358.527 21.036 358.383 21.036C357.719 21.036 357.223 20.928 356.895 20.712C356.567 20.488 356.399 20.072 356.391 19.464V16.248C356.391 16.208 356.371 16.188 356.331 16.188H355.647C355.607 16.188 355.571 16.176 355.539 16.152C355.515 16.12 355.503 16.084 355.503 16.044V14.976C355.503 14.936 355.515 14.904 355.539 14.88C355.571 14.848 355.607 14.832 355.647 14.832H356.331C356.371 14.832 356.391 14.812 356.391 14.772V13.344C356.391 13.304 356.403 13.272 356.427 13.248C356.459 13.216 356.495 13.2 356.535 13.2H357.879C357.919 13.2 357.951 13.216 357.975 13.248C358.007 13.272 358.023 13.304 358.023 13.344V14.772C358.023 14.812 358.043 14.832 358.083 14.832H359.235C359.275 14.832 359.307 14.848 359.331 14.88C359.363 14.904 359.379 14.936 359.379 14.976V16.044ZM365.665 17.172C365.785 17.564 365.845 17.944 365.845 18.312C365.845 18.72 365.781 19.088 365.653 19.416C365.469 19.928 365.145 20.336 364.681 20.64C364.217 20.936 363.673 21.084 363.049 21.084C362.441 21.084 361.905 20.94 361.441 20.652C360.985 20.356 360.661 19.956 360.469 19.452C360.389 19.244 360.329 19.024 360.289 18.792V18.768C360.289 18.68 360.337 18.636 360.433 18.636H361.885C361.965 18.636 362.017 18.68 362.041 18.768C362.049 18.816 362.061 18.856 362.077 18.888C362.093 18.92 362.105 18.948 362.113 18.972C362.193 19.18 362.313 19.34 362.473 19.452C362.633 19.564 362.821 19.62 363.037 19.62C363.261 19.62 363.457 19.56 363.625 19.44C363.793 19.32 363.917 19.152 363.997 18.936C364.077 18.776 364.117 18.568 364.117 18.312C364.117 18.08 364.081 17.872 364.009 17.688C363.953 17.48 363.841 17.32 363.673 17.208C363.505 17.096 363.309 17.04 363.085 17.04C362.861 17.04 362.653 17.092 362.461 17.196C362.269 17.3 362.141 17.436 362.077 17.604C362.053 17.684 362.001 17.724 361.921 17.724H360.445C360.405 17.724 360.369 17.712 360.337 17.688C360.313 17.656 360.301 17.62 360.301 17.58V12.744C360.301 12.704 360.313 12.672 360.337 12.648C360.369 12.616 360.405 12.6 360.445 12.6H365.401C365.441 12.6 365.473 12.616 365.497 12.648C365.529 12.672 365.545 12.704 365.545 12.744V13.908C365.545 13.948 365.529 13.984 365.497 14.016C365.473 14.04 365.441 14.052 365.401 14.052H362.053C362.013 14.052 361.993 14.072 361.993 14.112L361.981 15.888C361.981 15.944 362.005 15.956 362.053 15.924C362.413 15.692 362.829 15.576 363.301 15.576C363.861 15.576 364.349 15.72 364.765 16.008C365.189 16.288 365.489 16.676 365.665 17.172Z" fill="black"/>
<path d="M249.18 15.5902C249.18 24.7527 237.492 45 232.59 45C227.689 45 216 24.7527 216 15.5902C216 6.42767 223.428 -1 232.59 -1C241.753 -1 249.18 6.42767 249.18 15.5902Z" fill="white"/>
<path d="M224.552 13.908C224.552 13.948 224.536 13.984 224.504 14.016C224.48 14.04 224.448 14.052 224.408 14.052H220.484C220.444 14.052 220.424 14.072 220.424 14.112V15.972C220.424 16.012 220.444 16.032 220.484 16.032H223.064C223.104 16.032 223.136 16.048 223.16 16.08C223.192 16.104 223.208 16.136 223.208 16.176V17.34C223.208 17.38 223.192 17.416 223.16 17.448C223.136 17.472 223.104 17.484 223.064 17.484H220.484C220.444 17.484 220.424 17.504 220.424 17.544V20.856C220.424 20.896 220.408 20.932 220.376 20.964C220.352 20.988 220.32 21 220.28 21H218.876C218.836 21 218.8 20.988 218.768 20.964C218.744 20.932 218.732 20.896 218.732 20.856V12.744C218.732 12.704 218.744 12.672 218.768 12.648C218.8 12.616 218.836 12.6 218.876 12.6H224.408C224.448 12.6 224.48 12.616 224.504 12.648C224.536 12.672 224.552 12.704 224.552 12.744V13.908ZM228.059 14.748C228.347 14.748 228.575 14.804 228.743 14.916C228.807 14.948 228.831 15.008 228.815 15.096L228.563 16.464C228.555 16.56 228.499 16.588 228.395 16.548C228.275 16.508 228.135 16.488 227.975 16.488C227.911 16.488 227.823 16.496 227.711 16.512C227.423 16.536 227.179 16.644 226.979 16.836C226.779 17.02 226.679 17.268 226.679 17.58V20.856C226.679 20.896 226.663 20.932 226.631 20.964C226.607 20.988 226.575 21 226.535 21H225.131C225.091 21 225.055 20.988 225.023 20.964C224.999 20.932 224.987 20.896 224.987 20.856V14.976C224.987 14.936 224.999 14.904 225.023 14.88C225.055 14.848 225.091 14.832 225.131 14.832H226.535C226.575 14.832 226.607 14.848 226.631 14.88C226.663 14.904 226.679 14.936 226.679 14.976V15.432C226.679 15.456 226.687 15.472 226.703 15.48C226.719 15.488 226.731 15.484 226.739 15.468C227.067 14.988 227.507 14.748 228.059 14.748ZM234.889 17.28C234.937 17.584 234.953 17.924 234.937 18.3C234.929 18.396 234.877 18.444 234.781 18.444H231.073C231.025 18.444 231.009 18.464 231.025 18.504C231.049 18.664 231.093 18.824 231.157 18.984C231.365 19.432 231.789 19.656 232.429 19.656C232.941 19.648 233.345 19.44 233.641 19.032C233.673 18.984 233.709 18.96 233.749 18.96C233.773 18.96 233.801 18.976 233.833 19.008L234.697 19.86C234.737 19.9 234.757 19.936 234.757 19.968C234.757 19.984 234.741 20.016 234.709 20.064C234.445 20.392 234.105 20.648 233.689 20.832C233.273 21.008 232.817 21.096 232.321 21.096C231.633 21.096 231.049 20.94 230.569 20.628C230.097 20.316 229.757 19.88 229.549 19.32C229.381 18.92 229.297 18.396 229.297 17.748C229.297 17.308 229.357 16.92 229.477 16.584C229.661 16.016 229.981 15.564 230.437 15.228C230.901 14.892 231.449 14.724 232.081 14.724C232.881 14.724 233.521 14.956 234.001 15.42C234.489 15.884 234.785 16.504 234.889 17.28ZM232.093 16.188C231.589 16.188 231.257 16.424 231.097 16.896C231.065 17 231.037 17.128 231.013 17.28C231.013 17.32 231.033 17.34 231.073 17.34H233.149C233.197 17.34 233.213 17.32 233.197 17.28C233.157 17.048 233.137 16.936 233.137 16.944C233.065 16.704 232.937 16.52 232.753 16.392C232.577 16.256 232.357 16.188 232.093 16.188ZM239.379 16.044C239.379 16.084 239.363 16.12 239.331 16.152C239.307 16.176 239.275 16.188 239.235 16.188H238.083C238.043 16.188 238.023 16.208 238.023 16.248V18.792C238.023 19.056 238.075 19.252 238.179 19.38C238.291 19.508 238.467 19.572 238.707 19.572H239.103C239.143 19.572 239.175 19.588 239.199 19.62C239.231 19.644 239.247 19.676 239.247 19.716V20.856C239.247 20.944 239.199 20.996 239.103 21.012C238.767 21.028 238.527 21.036 238.383 21.036C237.719 21.036 237.223 20.928 236.895 20.712C236.567 20.488 236.399 20.072 236.391 19.464V16.248C236.391 16.208 236.371 16.188 236.331 16.188H235.647C235.607 16.188 235.571 16.176 235.539 16.152C235.515 16.12 235.503 16.084 235.503 16.044V14.976C235.503 14.936 235.515 14.904 235.539 14.88C235.571 14.848 235.607 14.832 235.647 14.832H236.331C236.371 14.832 236.391 14.812 236.391 14.772V13.344C236.391 13.304 236.403 13.272 236.427 13.248C236.459 13.216 236.495 13.2 236.535 13.2H237.879C237.919 13.2 237.951 13.216 237.975 13.248C238.007 13.272 238.023 13.304 238.023 13.344V14.772C238.023 14.812 238.043 14.832 238.083 14.832H239.235C239.275 14.832 239.307 14.848 239.331 14.88C239.363 14.904 239.379 14.936 239.379 14.976V16.044ZM246.325 17.34C246.365 17.34 246.397 17.356 246.421 17.388C246.453 17.412 246.469 17.444 246.469 17.484V18.696C246.469 18.736 246.453 18.772 246.421 18.804C246.397 18.828 246.365 18.84 246.325 18.84H245.809C245.769 18.84 245.749 18.86 245.749 18.9V20.856C245.749 20.896 245.733 20.932 245.701 20.964C245.677 20.988 245.645 21 245.605 21H244.201C244.161 21 244.125 20.988 244.093 20.964C244.069 20.932 244.057 20.896 244.057 20.856V18.9C244.057 18.86 244.037 18.84 243.997 18.84H240.313C240.273 18.84 240.237 18.828 240.205 18.804C240.181 18.772 240.169 18.736 240.169 18.696V17.736C240.169 17.688 240.181 17.628 240.205 17.556L242.365 12.708C242.397 12.636 242.453 12.6 242.533 12.6H244.033C244.089 12.6 244.125 12.616 244.141 12.648C244.165 12.672 244.165 12.712 244.141 12.768L242.137 17.268C242.129 17.284 242.129 17.3 242.137 17.316C242.145 17.332 242.157 17.34 242.173 17.34H243.997C244.037 17.34 244.057 17.32 244.057 17.28V15.792C244.057 15.752 244.069 15.72 244.093 15.696C244.125 15.664 244.161 15.648 244.201 15.648H245.605C245.645 15.648 245.677 15.664 245.701 15.696C245.733 15.72 245.749 15.752 245.749 15.792V17.28C245.749 17.32 245.769 17.34 245.809 17.34H246.325Z" fill="black"/>
<path d="M124.18 15.5902C124.18 24.7527 112.492 45 107.59 45C102.689 45 91 24.7527 91 15.5902C91 6.42767 98.4277 -1 107.59 -1C116.753 -1 124.18 6.42767 124.18 15.5902Z" fill="white"/>
<path d="M99.552 13.908C99.552 13.948 99.536 13.984 99.504 14.016C99.48 14.04 99.448 14.052 99.408 14.052H95.484C95.444 14.052 95.424 14.072 95.424 14.112V15.972C95.424 16.012 95.444 16.032 95.484 16.032H98.064C98.104 16.032 98.136 16.048 98.16 16.08C98.192 16.104 98.208 16.136 98.208 16.176V17.34C98.208 17.38 98.192 17.416 98.16 17.448C98.136 17.472 98.104 17.484 98.064 17.484H95.484C95.444 17.484 95.424 17.504 95.424 17.544V20.856C95.424 20.896 95.408 20.932 95.376 20.964C95.352 20.988 95.32 21 95.28 21H93.876C93.836 21 93.8 20.988 93.768 20.964C93.744 20.932 93.732 20.896 93.732 20.856V12.744C93.732 12.704 93.744 12.672 93.768 12.648C93.8 12.616 93.836 12.6 93.876 12.6H99.408C99.448 12.6 99.48 12.616 99.504 12.648C99.536 12.672 99.552 12.704 99.552 12.744V13.908ZM103.059 14.748C103.347 14.748 103.575 14.804 103.743 14.916C103.807 14.948 103.831 15.008 103.815 15.096L103.563 16.464C103.555 16.56 103.499 16.588 103.395 16.548C103.275 16.508 103.135 16.488 102.975 16.488C102.911 16.488 102.823 16.496 102.711 16.512C102.423 16.536 102.179 16.644 101.979 16.836C101.779 17.02 101.679 17.268 101.679 17.58V20.856C101.679 20.896 101.663 20.932 101.631 20.964C101.607 20.988 101.575 21 101.535 21H100.131C100.091 21 100.055 20.988 100.023 20.964C99.9993 20.932 99.9873 20.896 99.9873 20.856V14.976C99.9873 14.936 99.9993 14.904 100.023 14.88C100.055 14.848 100.091 14.832 100.131 14.832H101.535C101.575 14.832 101.607 14.848 101.631 14.88C101.663 14.904 101.679 14.936 101.679 14.976V15.432C101.679 15.456 101.687 15.472 101.703 15.48C101.719 15.488 101.731 15.484 101.739 15.468C102.067 14.988 102.507 14.748 103.059 14.748ZM109.889 17.28C109.937 17.584 109.953 17.924 109.937 18.3C109.929 18.396 109.877 18.444 109.781 18.444H106.073C106.025 18.444 106.009 18.464 106.025 18.504C106.049 18.664 106.093 18.824 106.157 18.984C106.365 19.432 106.789 19.656 107.429 19.656C107.941 19.648 108.345 19.44 108.641 19.032C108.673 18.984 108.709 18.96 108.749 18.96C108.773 18.96 108.801 18.976 108.833 19.008L109.697 19.86C109.737 19.9 109.757 19.936 109.757 19.968C109.757 19.984 109.741 20.016 109.709 20.064C109.445 20.392 109.105 20.648 108.689 20.832C108.273 21.008 107.817 21.096 107.321 21.096C106.633 21.096 106.049 20.94 105.569 20.628C105.097 20.316 104.757 19.88 104.549 19.32C104.381 18.92 104.297 18.396 104.297 17.748C104.297 17.308 104.357 16.92 104.477 16.584C104.661 16.016 104.981 15.564 105.437 15.228C105.901 14.892 106.449 14.724 107.081 14.724C107.881 14.724 108.521 14.956 109.001 15.42C109.489 15.884 109.785 16.504 109.889 17.28ZM107.093 16.188C106.589 16.188 106.257 16.424 106.097 16.896C106.065 17 106.037 17.128 106.013 17.28C106.013 17.32 106.033 17.34 106.073 17.34H108.149C108.197 17.34 108.213 17.32 108.197 17.28C108.157 17.048 108.137 16.936 108.137 16.944C108.065 16.704 107.937 16.52 107.753 16.392C107.577 16.256 107.357 16.188 107.093 16.188ZM114.379 16.044C114.379 16.084 114.363 16.12 114.331 16.152C114.307 16.176 114.275 16.188 114.235 16.188H113.083C113.043 16.188 113.023 16.208 113.023 16.248V18.792C113.023 19.056 113.075 19.252 113.179 19.38C113.291 19.508 113.467 19.572 113.707 19.572H114.103C114.143 19.572 114.175 19.588 114.199 19.62C114.231 19.644 114.247 19.676 114.247 19.716V20.856C114.247 20.944 114.199 20.996 114.103 21.012C113.767 21.028 113.527 21.036 113.383 21.036C112.719 21.036 112.223 20.928 111.895 20.712C111.567 20.488 111.399 20.072 111.391 19.464V16.248C111.391 16.208 111.371 16.188 111.331 16.188H110.647C110.607 16.188 110.571 16.176 110.539 16.152C110.515 16.12 110.503 16.084 110.503 16.044V14.976C110.503 14.936 110.515 14.904 110.539 14.88C110.571 14.848 110.607 14.832 110.647 14.832H111.331C111.371 14.832 111.391 14.812 111.391 14.772V13.344C111.391 13.304 111.403 13.272 111.427 13.248C111.459 13.216 111.495 13.2 111.535 13.2H112.879C112.919 13.2 112.951 13.216 112.975 13.248C113.007 13.272 113.023 13.304 113.023 13.344V14.772C113.023 14.812 113.043 14.832 113.083 14.832H114.235C114.275 14.832 114.307 14.848 114.331 14.88C114.363 14.904 114.379 14.936 114.379 14.976V16.044ZM120.497 16.992C120.657 17.36 120.737 17.784 120.737 18.264C120.737 18.696 120.665 19.096 120.521 19.464C120.329 19.976 120.005 20.376 119.549 20.664C119.101 20.952 118.569 21.096 117.953 21.096C117.345 21.096 116.809 20.944 116.345 20.64C115.889 20.336 115.561 19.924 115.361 19.404C115.249 19.092 115.185 18.756 115.169 18.396C115.169 18.3 115.217 18.252 115.313 18.252H116.729C116.825 18.252 116.873 18.3 116.873 18.396C116.905 18.66 116.949 18.856 117.005 18.984C117.077 19.192 117.193 19.356 117.353 19.476C117.521 19.588 117.717 19.644 117.941 19.644C118.389 19.644 118.697 19.448 118.865 19.056C118.977 18.816 119.033 18.536 119.033 18.216C119.033 17.84 118.973 17.532 118.853 17.292C118.669 16.916 118.361 16.728 117.929 16.728C117.841 16.728 117.749 16.756 117.653 16.812C117.557 16.86 117.441 16.932 117.305 17.028C117.273 17.052 117.241 17.064 117.209 17.064C117.161 17.064 117.125 17.04 117.101 16.992L116.393 15.996C116.377 15.972 116.369 15.944 116.369 15.912C116.369 15.864 116.385 15.824 116.417 15.792L118.325 14.124C118.341 14.108 118.345 14.092 118.337 14.076C118.337 14.06 118.325 14.052 118.301 14.052H115.481C115.441 14.052 115.405 14.04 115.373 14.016C115.349 13.984 115.337 13.948 115.337 13.908V12.744C115.337 12.704 115.349 12.672 115.373 12.648C115.405 12.616 115.441 12.6 115.481 12.6H120.485C120.525 12.6 120.557 12.616 120.581 12.648C120.613 12.672 120.629 12.704 120.629 12.744V14.064C120.629 14.128 120.601 14.188 120.545 14.244L118.973 15.684C118.957 15.7 118.949 15.716 118.949 15.732C118.957 15.748 118.977 15.756 119.009 15.756C119.705 15.892 120.201 16.304 120.497 16.992Z" fill="black"/>
<circle cx="353.5" cy="192.5" r="14.5" fill="#2400FF"/>
<path d="M357.632 192.656C357.845 193.147 357.952 193.712 357.952 194.352C357.952 194.928 357.856 195.461 357.664 195.952C357.408 196.635 356.976 197.168 356.368 197.552C355.771 197.936 355.061 198.128 354.24 198.128C353.429 198.128 352.715 197.925 352.096 197.52C351.488 197.115 351.051 196.565 350.784 195.872C350.635 195.456 350.549 195.008 350.528 194.528C350.528 194.4 350.592 194.336 350.72 194.336H352.608C352.736 194.336 352.8 194.4 352.8 194.528C352.843 194.88 352.901 195.141 352.976 195.312C353.072 195.589 353.227 195.808 353.44 195.968C353.664 196.117 353.925 196.192 354.224 196.192C354.821 196.192 355.232 195.931 355.456 195.408C355.605 195.088 355.68 194.715 355.68 194.288C355.68 193.787 355.6 193.376 355.44 193.056C355.195 192.555 354.784 192.304 354.208 192.304C354.091 192.304 353.968 192.341 353.84 192.416C353.712 192.48 353.557 192.576 353.376 192.704C353.333 192.736 353.291 192.752 353.248 192.752C353.184 192.752 353.136 192.72 353.104 192.656L352.16 191.328C352.139 191.296 352.128 191.259 352.128 191.216C352.128 191.152 352.149 191.099 352.192 191.056L354.736 188.832C354.757 188.811 354.763 188.789 354.752 188.768C354.752 188.747 354.736 188.736 354.704 188.736H350.944C350.891 188.736 350.843 188.72 350.8 188.688C350.768 188.645 350.752 188.597 350.752 188.544V186.992C350.752 186.939 350.768 186.896 350.8 186.864C350.843 186.821 350.891 186.8 350.944 186.8H357.616C357.669 186.8 357.712 186.821 357.744 186.864C357.787 186.896 357.808 186.939 357.808 186.992V188.752C357.808 188.837 357.771 188.917 357.696 188.992L355.6 190.912C355.579 190.933 355.568 190.955 355.568 190.976C355.579 190.997 355.605 191.008 355.648 191.008C356.576 191.189 357.237 191.739 357.632 192.656Z" fill="white"/>
<circle cx="353.5" cy="160.5" r="14.5" fill="#2400FF"/>
<path d="M357.736 161.12C357.789 161.12 357.832 161.141 357.864 161.184C357.907 161.216 357.928 161.259 357.928 161.312V162.928C357.928 162.981 357.907 163.029 357.864 163.072C357.832 163.104 357.789 163.12 357.736 163.12H357.048C356.995 163.12 356.968 163.147 356.968 163.2V165.808C356.968 165.861 356.947 165.909 356.904 165.952C356.872 165.984 356.829 166 356.776 166H354.904C354.851 166 354.803 165.984 354.76 165.952C354.728 165.909 354.712 165.861 354.712 165.808V163.2C354.712 163.147 354.685 163.12 354.632 163.12H349.72C349.667 163.12 349.619 163.104 349.576 163.072C349.544 163.029 349.528 162.981 349.528 162.928V161.648C349.528 161.584 349.544 161.504 349.576 161.408L352.456 154.944C352.499 154.848 352.573 154.8 352.68 154.8H354.68C354.755 154.8 354.803 154.821 354.824 154.864C354.856 154.896 354.856 154.949 354.824 155.024L352.152 161.024C352.141 161.045 352.141 161.067 352.152 161.088C352.163 161.109 352.179 161.12 352.2 161.12H354.632C354.685 161.12 354.712 161.093 354.712 161.04V159.056C354.712 159.003 354.728 158.96 354.76 158.928C354.803 158.885 354.851 158.864 354.904 158.864H356.776C356.829 158.864 356.872 158.885 356.904 158.928C356.947 158.96 356.968 159.003 356.968 159.056V161.04C356.968 161.093 356.995 161.12 357.048 161.12H357.736Z" fill="white"/>
<path d="M52 76.5C52 80.5 39.7467 86 34.5 86C29.2533 86 25 81.7467 25 76.5C25 71.2533 29.2533 67 34.5 67C39.7467 67 52 73 52 76.5Z" fill="#7F00FF"/>
<path d="M37.564 72.224C37.564 72.304 37.524 72.344 37.444 72.344H33.028C32.996 72.344 32.98 72.36 32.98 72.392V75.356C32.98 75.388 32.996 75.404 33.028 75.404H36.124C36.204 75.404 36.244 75.444 36.244 75.524V76.028C36.244 76.108 36.204 76.148 36.124 76.148H33.028C32.996 76.148 32.98 76.164 32.98 76.196V79.208C32.98 79.24 32.996 79.256 33.028 79.256H37.444C37.524 79.256 37.564 79.296 37.564 79.376V79.88C37.564 79.96 37.524 80 37.444 80H32.248C32.168 80 32.128 79.96 32.128 79.88V71.72C32.128 71.64 32.168 71.6 32.248 71.6H37.444C37.524 71.6 37.564 71.64 37.564 71.72V72.224Z" fill="white"/>
<path d="M52 101.5C52 105.5 39.7467 111 34.5 111C29.2533 111 25 106.747 25 101.5C25 96.2533 29.2533 92 34.5 92C39.7467 92 52 98 52 101.5Z" fill="#7F00FF"/>
<path d="M36.34 100.62C36.3 100.644 36.3 100.668 36.34 100.692C36.772 100.868 37.1 101.128 37.324 101.472C37.548 101.816 37.66 102.232 37.66 102.72C37.66 103.44 37.428 104 36.964 104.4C36.508 104.8 35.904 105 35.152 105H32.248C32.168 105 32.128 104.96 32.128 104.88V96.72C32.128 96.64 32.168 96.6 32.248 96.6H35.068C35.844 96.6 36.452 96.792 36.892 97.176C37.34 97.56 37.564 98.1 37.564 98.796C37.564 99.236 37.456 99.612 37.24 99.924C37.032 100.228 36.732 100.46 36.34 100.62ZM33.028 97.344C32.996 97.344 32.98 97.36 32.98 97.392V100.272C32.98 100.304 32.996 100.32 33.028 100.32H35.068C35.572 100.32 35.972 100.188 36.268 99.924C36.572 99.66 36.724 99.308 36.724 98.868C36.724 98.404 36.572 98.036 36.268 97.764C35.972 97.484 35.572 97.344 35.068 97.344H33.028ZM35.152 104.244C35.656 104.244 36.056 104.1 36.352 103.812C36.656 103.524 36.808 103.136 36.808 102.648C36.808 102.16 36.652 101.772 36.34 101.484C36.036 101.188 35.624 101.04 35.104 101.04H33.028C32.996 101.04 32.98 101.056 32.98 101.088V104.196C32.98 104.228 32.996 104.244 33.028 104.244H35.152Z" fill="white"/>
<path d="M52 131.5C52 135.5 39.7467 141 34.5 141C29.2533 141 25 136.747 25 131.5C25 126.253 29.2533 122 34.5 122C39.7467 122 52 128 52 131.5Z" fill="#7F00FF"/>
<path d="M34.684 135.096C34.124 135.096 33.632 134.988 33.208 134.772C32.784 134.548 32.452 134.236 32.212 133.836C31.98 133.436 31.864 132.976 31.864 132.456V129.144C31.864 128.624 31.98 128.164 32.212 127.764C32.452 127.364 32.784 127.056 33.208 126.84C33.632 126.616 34.124 126.504 34.684 126.504C35.236 126.504 35.724 126.612 36.148 126.828C36.58 127.044 36.912 127.348 37.144 127.74C37.376 128.124 37.492 128.56 37.492 129.048V129.204C37.492 129.284 37.452 129.324 37.372 129.324H36.76C36.68 129.324 36.64 129.284 36.64 129.204V129.06C36.64 128.524 36.46 128.088 36.1 127.752C35.748 127.416 35.276 127.248 34.684 127.248C34.092 127.248 33.616 127.42 33.256 127.764C32.896 128.108 32.716 128.56 32.716 129.12V132.48C32.716 133.04 32.9 133.492 33.268 133.836C33.636 134.18 34.12 134.352 34.72 134.352C35.304 134.352 35.768 134.192 36.112 133.872C36.464 133.552 36.64 133.124 36.64 132.588V131.496C36.64 131.464 36.624 131.448 36.592 131.448H34.828C34.748 131.448 34.708 131.408 34.708 131.328V130.824C34.708 130.744 34.748 130.704 34.828 130.704H37.372C37.452 130.704 37.492 130.744 37.492 130.824V132.372C37.492 133.228 37.236 133.896 36.724 134.376C36.22 134.856 35.54 135.096 34.684 135.096Z" fill="white"/>
<path d="M52 161.5C52 165.5 39.7467 171 34.5 171C29.2533 171 25 166.747 25 161.5C25 156.253 29.2533 152 34.5 152C39.7467 152 52 158 52 161.5Z" fill="#7F00FF"/>
<path d="M32.248 165C32.168 165 32.128 164.96 32.128 164.88V156.72C32.128 156.64 32.168 156.6 32.248 156.6H35.08C35.872 156.6 36.5 156.808 36.964 157.224C37.436 157.64 37.672 158.204 37.672 158.916V162.684C37.672 163.396 37.436 163.96 36.964 164.376C36.5 164.792 35.872 165 35.08 165H32.248ZM32.98 164.208C32.98 164.24 32.996 164.256 33.028 164.256H35.116C35.636 164.256 36.048 164.104 36.352 163.8C36.664 163.496 36.82 163.088 36.82 162.576V159.036C36.82 158.516 36.668 158.104 36.364 157.8C36.06 157.496 35.644 157.344 35.116 157.344H33.028C32.996 157.344 32.98 157.36 32.98 157.392V164.208Z" fill="white"/>
<path d="M52 190.5C52 194.5 39.7467 200 34.5 200C29.2533 200 25 195.747 25 190.5C25 185.253 29.2533 181 34.5 181C39.7467 181 52 187 52 190.5Z" fill="#7F00FF"/>
<path d="M37.108 194C37.036 194 36.988 193.968 36.964 193.904L36.484 192.392C36.476 192.368 36.46 192.356 36.436 192.356H32.848C32.824 192.356 32.808 192.368 32.8 192.392L32.32 193.904C32.296 193.968 32.248 194 32.176 194H31.528C31.44 194 31.408 193.956 31.432 193.868L34.084 185.696C34.108 185.632 34.156 185.6 34.228 185.6H35.044C35.116 185.6 35.164 185.632 35.188 185.696L37.852 193.868L37.864 193.916C37.864 193.972 37.828 194 37.756 194H37.108ZM33.04 191.6C33.032 191.616 33.032 191.632 33.04 191.648C33.056 191.656 33.072 191.66 33.088 191.66H36.184C36.2 191.66 36.212 191.656 36.22 191.648C36.236 191.632 36.24 191.616 36.232 191.6L34.672 186.704C34.664 186.688 34.652 186.68 34.636 186.68C34.62 186.68 34.608 186.688 34.6 186.704L33.04 191.6Z" fill="white"/>
<path d="M52 215.5C52 219.5 39.7467 225 34.5 225C29.2533 225 25 220.747 25 215.5C25 210.253 29.2533 206 34.5 206C39.7467 206 52 212 52 215.5Z" fill="#7F00FF"/>
<path d="M37.564 211.224C37.564 211.304 37.524 211.344 37.444 211.344H33.028C32.996 211.344 32.98 211.36 32.98 211.392V214.356C32.98 214.388 32.996 214.404 33.028 214.404H36.124C36.204 214.404 36.244 214.444 36.244 214.524V215.028C36.244 215.108 36.204 215.148 36.124 215.148H33.028C32.996 215.148 32.98 215.164 32.98 215.196V218.208C32.98 218.24 32.996 218.256 33.028 218.256H37.444C37.524 218.256 37.564 218.296 37.564 218.376V218.88C37.564 218.96 37.524 219 37.444 219H32.248C32.168 219 32.128 218.96 32.128 218.88V210.72C32.128 210.64 32.168 210.6 32.248 210.6H37.444C37.524 210.6 37.564 210.64 37.564 210.72V211.224Z" fill="white"/>
<path d="M96 69.0854L125 68V214.5C125 222.508 118.508 229 110.5 229V229C102.492 229 96 222.508 96 214.5V69.0854Z" fill="#8CACFF"/>
<circle cx="110.5" cy="214.5" r="14.5" fill="#2400FF"/>
<path d="M110.4 208.848C110.453 208.816 110.533 208.8 110.64 208.8H112.576C112.629 208.8 112.672 208.821 112.704 208.864C112.747 208.896 112.768 208.939 112.768 208.992V219.808C112.768 219.861 112.747 219.909 112.704 219.952C112.672 219.984 112.629 220 112.576 220H110.704C110.651 220 110.603 219.984 110.56 219.952C110.528 219.909 110.512 219.861 110.512 219.808V211.04C110.512 211.019 110.501 210.997 110.48 210.976C110.459 210.955 110.437 210.949 110.416 210.96L108.832 211.392L108.768 211.408C108.672 211.408 108.624 211.349 108.624 211.232L108.576 209.856C108.576 209.749 108.624 209.675 108.72 209.632L110.4 208.848Z" fill="white"/>
</g>
<defs>
<linearGradient id="paint0_linear_508_1446" x1="45.6016" y1="138.743" x2="33.6786" y2="138.743" gradientUnits="userSpaceOnUse">
<stop stop-color="#D9D9D9"/>
<stop offset="1" stop-color="#D9D9D9" stop-opacity="0"/>
</linearGradient>
<linearGradient id="paint1_linear_508_1446" x1="175.14" y1="138.743" x2="165.602" y2="138.743" gradientUnits="userSpaceOnUse">
<stop stop-color="#D9D9D9"/>
<stop offset="1" stop-color="#D9D9D9" stop-opacity="0"/>
</linearGradient>
<linearGradient id="paint2_linear_508_1446" x1="291.14" y1="134.16" x2="281.602" y2="134.16" gradientUnits="userSpaceOnUse">
<stop stop-color="#D9D9D9"/>
<stop offset="1" stop-color="#D9D9D9" stop-opacity="0"/>
</linearGradient>
<linearGradient id="paint3_linear_508_1446" x1="405.14" y1="134.081" x2="395.602" y2="134.081" gradientUnits="userSpaceOnUse">
<stop stop-color="#D9D9D9"/>
<stop offset="1" stop-color="#D9D9D9" stop-opacity="0"/>
</linearGradient>
</defs>
</svg>
