<svg width="59" height="49" viewBox="0 0 59 49" fill="none" xmlns="http://www.w3.org/2000/svg">
<path d="M42.4922 35.3912C42.791 36.039 42.5085 36.8067 41.8602 37.1051L35.9143 39.8494C35.2667 40.1486 34.4989 39.866 34.2 39.2183L32.4173 35.3558C32.1184 34.708 32.401 33.9402 33.0493 33.642L38.9952 30.8977C39.6428 30.5995 40.4106 30.8821 40.7093 31.5299L40.8835 31.907L48.3278 28.4662C48.453 28.4094 48.5781 28.3515 48.7034 28.2836C48.8976 27.0529 48.9999 25.7876 48.9999 24.5001C48.9999 10.9625 38.0264 8.9628e-10 24.4998 8.9628e-10C10.9626 -0.000114458 0 10.9624 0 24.4999C0 38.0264 10.9626 49 24.5001 49C35.2005 49 44.305 42.1294 47.6323 32.5569L42.3164 35.0107L42.4922 35.3912ZM24.4962 34.5477C18.9448 34.5477 14.4451 30.0485 14.4451 24.4966C14.4451 18.9447 18.9448 14.4444 24.4962 14.4444C30.0475 14.4444 34.5472 18.9447 34.5472 24.4966C34.5472 30.0485 30.0475 34.5477 24.4962 34.5477Z" fill="white"/>
<path d="M24.4962 20.0781C22.0564 20.0781 20.0793 22.0567 20.0793 24.496C20.0793 26.9376 22.0564 28.9128 24.4962 28.9128C26.9359 28.9128 28.913 26.9376 28.913 24.496C28.913 22.0568 26.9359 20.0781 24.4962 20.0781Z" fill="white"/>
<path d="M58.6027 4.02246H50.2114V14.2783H52.6808C52.6808 18.0952 52.6808 21.6741 52.6808 21.6741C52.6808 24.454 51.1422 26.9958 48.7036 28.2832C48.476 29.7533 48.1226 31.1888 47.6323 32.5565L49.7636 31.5762C53.6268 29.799 56.0994 25.9241 56.0994 21.6741C56.0994 21.6741 56.0994 18.0952 56.0994 14.2783H58.6027V4.02246Z" fill="white"/>
</svg>
