<svg width="61" height="29" viewBox="0 0 61 29" fill="none" xmlns="http://www.w3.org/2000/svg">
<path d="M57.662 4.11248C53.7518 1.34287e-06 47.6542 0 44.7235 0C44.7211 0 44.7185 0 44.7161 0H16.2768H16.2765C13.3461 0 7.24848 1.34287e-06 3.33828 4.11248C0.835137 6.74505 -0.269297 10.5476 0.055361 15.4147C0.320568 19.3896 1.7723 22.7723 4.254 25.1975C6.79932 27.6851 10.258 29 14.2559 29C18.3697 29 22.5802 26.9526 26.1119 23.235C27.9052 21.3472 29.4033 19.1494 30.5 16.8929C31.5967 19.1495 33.0947 21.3472 34.8881 23.235C38.4197 26.9526 42.6303 29 46.7441 29C50.7419 29 54.2006 27.6852 56.746 25.1975C59.2277 22.7723 60.6793 19.3893 60.9446 15.4147C61.2694 10.5475 60.1651 6.74505 57.662 4.11248ZM16.2768 3.91828C17.7249 3.91828 21.4215 4.02436 24.4674 5.00616C25.4434 5.32075 26.2455 5.68756 26.8723 6.10448H7.00031C9.78558 3.91957 13.9466 3.91828 16.2768 3.91828ZM14.256 25.0817C11.7462 25.0817 9.55874 24.4015 7.86086 23.1078H20.2004C18.2517 24.396 16.2158 25.0817 14.256 25.0817ZM24.3959 19.1895H4.91952C4.58831 18.3801 4.34431 17.5018 4.18942 16.5652H26.1902C25.6635 17.4695 25.0613 18.3538 24.3959 19.1895ZM27.9464 12.6469H4.01762C4.0822 11.6917 4.231 10.817 4.4613 10.0225H28.5026C28.4205 10.8568 28.2309 11.741 27.9464 12.6469ZM36.5328 5.00604C39.5787 4.02424 43.2752 3.91816 44.7236 3.91816C47.0534 3.91816 51.2144 3.91946 53.9998 6.10425H34.1279C34.7546 5.68745 35.5568 5.32075 36.5328 5.00604ZM46.7442 25.0817C44.7842 25.0817 42.7484 24.396 40.7998 23.1078H53.1393C51.4415 24.4015 49.254 25.0817 46.7442 25.0817ZM56.0807 19.1895H36.6042C35.9388 18.3538 35.3365 17.4695 34.81 16.5652H56.8108C56.656 17.5018 56.412 18.3801 56.0807 19.1895ZM33.0538 12.6469C32.7691 11.741 32.5797 10.8567 32.4976 10.0225H56.5389C56.7692 10.817 56.918 11.6917 56.9826 12.6469H33.0538Z" fill="white"/>
</svg>
