<svg width="58" height="58" viewBox="0 0 58 58" fill="none" xmlns="http://www.w3.org/2000/svg">
<path d="M5.12462 51.021L5.10536 51.002L0 56.1074L1.89236 57.9998L6.99784 52.8944L5.13527 51.0321L5.12462 51.021Z" fill="white"/>
<path d="M54.1364 3.86377C48.9847 -1.28792 40.6287 -1.28792 35.477 3.86377C32.8706 6.47015 31.5783 9.90178 31.6175 13.32L44.68 26.3825C48.0984 26.4219 51.53 25.1294 54.1364 22.523C59.2879 17.3714 59.2879 9.01535 54.1364 3.86377ZM42.1752 5.14917C43.4837 3.84066 45.6055 3.84066 46.914 5.1494C48.2225 6.45791 48.2225 8.57945 46.914 9.88796C45.6055 11.1965 43.484 11.1967 42.1752 9.88796C40.8667 8.57945 40.8667 6.45791 42.1752 5.14917Z" fill="white"/>
<path d="M30.9123 16.6576L30.5849 16.3291L30.5843 16.3298L30.5652 16.3105L5.97445 43.0529C5.7309 43.2964 6.36776 44.3596 7.52074 45.7521L5.60244 47.6704C5.29884 47.9738 5.29884 48.4657 5.60244 48.7692L9.23095 52.3977C9.53454 52.7013 10.0265 52.7013 10.3299 52.3977L12.248 50.4798C13.6414 51.6337 14.7052 52.2713 14.9491 52.0277C14.9506 52.0259 14.9509 52.0231 14.9522 52.0216L40.8859 28.1745L41.6705 27.4541L41.6699 27.4537L41.6898 27.4353L30.9123 16.6576ZM28.9812 30.9114L27.0888 29.019L32.1942 23.9137L34.0866 25.806L28.9916 30.9007L28.9812 30.9114Z" fill="white"/>
</svg>
