<svg width="430" height="234" viewBox="0 0 430 234" fill="none" xmlns="http://www.w3.org/2000/svg">
<mask id="mask0_508_347" style="mask-type:alpha" maskUnits="userSpaceOnUse" x="0" y="0" width="430" height="234">
<rect width="430" height="234" fill="#D9D9D9"/>
</mask>
<g mask="url(#mask0_508_347)">
<path d="M-0.706055 233.958V64.1257C15.6939 72.8778 27.2939 72.982 34.7939 72.982L431.294 61V235L34.7939 222.497C20.3939 222.497 5.12728 231.527 -0.706055 233.958Z" fill="#232323"/>
<mask id="mask1_508_347" style="mask-type:alpha" maskUnits="userSpaceOnUse" x="-61" y="93" width="92" height="110">
<path d="M3.4422 93.2704L19.8942 126.257L30.7429 148.489L14.5832 180.291L3.7948 202.062L-28.0541 191.286L-60.2186 181.492L-59.8118 147.872L-60.4365 114.255L-28.3362 104.253L3.4422 93.2704Z" fill="#404040"/>
</mask>
<g mask="url(#mask1_508_347)">
<rect x="-0.707031" y="56" width="68" height="167" fill="#404040"/>
</g>
<circle cx="6.79395" cy="123.5" r="4.5" fill="#D9D9D9"/>
<path fill-rule="evenodd" clip-rule="evenodd" d="M5.70983 125.437C5.70983 125.989 6.15754 126.437 6.70983 126.437C7.26211 126.437 7.70983 125.989 7.70983 125.437V124.415H8.73126C9.28355 124.415 9.73126 123.968 9.73126 123.415C9.73126 122.863 9.28355 122.415 8.73126 122.415H7.70983V121.562C7.70983 121.01 7.26211 120.562 6.70983 120.562C6.15754 120.562 5.70983 121.01 5.70983 121.562V122.415H4.85693C4.30465 122.415 3.85693 122.863 3.85693 123.415C3.85693 123.968 4.30465 124.415 4.85693 124.415H5.70983V125.437Z" fill="black"/>
<circle cx="7.79395" cy="173.5" r="4.5" fill="#D9D9D9"/>
<g filter="url(#filter0_d_508_347)">
<path fill-rule="evenodd" clip-rule="evenodd" d="M6.70983 175.437C6.70983 175.989 7.15754 176.437 7.70983 176.437C8.26211 176.437 8.70983 175.989 8.70983 175.437V174.415H9.73126C10.2835 174.415 10.7313 173.968 10.7313 173.415C10.7313 172.863 10.2835 172.415 9.73126 172.415H8.70983V171.562C8.70983 171.01 8.26211 170.562 7.70983 170.562C7.15754 170.562 6.70983 171.01 6.70983 171.562V172.415H5.85693C5.30465 172.415 4.85693 172.863 4.85693 173.415C4.85693 173.968 5.30465 174.415 5.85693 174.415H6.70983V175.437Z" fill="black"/>
</g>
<path d="M52.2939 72L37.2939 72.5117V222.362L52.2939 223V72Z" fill="url(#paint0_linear_508_347)"/>
<path d="M180.294 68.583L168.294 68.9539V226.705L180.294 227.109V68.583Z" fill="url(#paint1_linear_508_347)"/>
<path d="M296.294 65.0791L284.294 65.4395V230.363L296.294 230.75V65.0791Z" fill="url(#paint2_linear_508_347)"/>
<path d="M410.294 61.6328L398.294 62.0007V233.961L410.294 234.34V61.6328Z" fill="url(#paint3_linear_508_347)"/>
<path d="M430 194L-0.986058 191" stroke="#7F00FF" stroke-width="4"/>
<path d="M430 194L-0.986058 191" stroke="#7F00FF" stroke-width="4"/>
<path d="M430 194L-0.986058 191" stroke="#7F00FF" stroke-width="4"/>
<path d="M430 194L-0.986058 191" stroke="#7F00FF" stroke-width="4"/>
<path d="M430 194L-0.986058 191" stroke="#7F00FF" stroke-width="4"/>
<path d="M430 225L-5.98159 217" stroke="#5F5F5F" stroke-width="2"/>
<path d="M430 163.5L27 163L-2 166" stroke="#7F00FF" stroke-width="4"/>
<path d="M430 132L25 133.5L-3.5 130" stroke="#7F00FF" stroke-width="4"/>
<path d="M430 101L19.5 104.5L-3.5 103" stroke="#7F00FF" stroke-width="4"/>
<path d="M-0.5 82L32.5 78.5L430 72.5" stroke="#7F00FF" stroke-width="4"/>
<path d="M368.18 17.5902C368.18 26.7527 356.492 47 351.59 47C346.689 47 335 26.7527 335 17.5902C335 8.42767 342.428 1 351.59 1C360.753 1 368.18 8.42767 368.18 17.5902Z" fill="white"/>
<path d="M343.552 15.908C343.552 15.948 343.536 15.984 343.504 16.016C343.48 16.04 343.448 16.052 343.408 16.052H339.484C339.444 16.052 339.424 16.072 339.424 16.112V17.972C339.424 18.012 339.444 18.032 339.484 18.032H342.064C342.104 18.032 342.136 18.048 342.16 18.08C342.192 18.104 342.208 18.136 342.208 18.176V19.34C342.208 19.38 342.192 19.416 342.16 19.448C342.136 19.472 342.104 19.484 342.064 19.484H339.484C339.444 19.484 339.424 19.504 339.424 19.544V22.856C339.424 22.896 339.408 22.932 339.376 22.964C339.352 22.988 339.32 23 339.28 23H337.876C337.836 23 337.8 22.988 337.768 22.964C337.744 22.932 337.732 22.896 337.732 22.856V14.744C337.732 14.704 337.744 14.672 337.768 14.648C337.8 14.616 337.836 14.6 337.876 14.6H343.408C343.448 14.6 343.48 14.616 343.504 14.648C343.536 14.672 343.552 14.704 343.552 14.744V15.908ZM347.059 16.748C347.347 16.748 347.575 16.804 347.743 16.916C347.807 16.948 347.831 17.008 347.815 17.096L347.563 18.464C347.555 18.56 347.499 18.588 347.395 18.548C347.275 18.508 347.135 18.488 346.975 18.488C346.911 18.488 346.823 18.496 346.711 18.512C346.423 18.536 346.179 18.644 345.979 18.836C345.779 19.02 345.679 19.268 345.679 19.58V22.856C345.679 22.896 345.663 22.932 345.631 22.964C345.607 22.988 345.575 23 345.535 23H344.131C344.091 23 344.055 22.988 344.023 22.964C343.999 22.932 343.987 22.896 343.987 22.856V16.976C343.987 16.936 343.999 16.904 344.023 16.88C344.055 16.848 344.091 16.832 344.131 16.832H345.535C345.575 16.832 345.607 16.848 345.631 16.88C345.663 16.904 345.679 16.936 345.679 16.976V17.432C345.679 17.456 345.687 17.472 345.703 17.48C345.719 17.488 345.731 17.484 345.739 17.468C346.067 16.988 346.507 16.748 347.059 16.748ZM353.889 19.28C353.937 19.584 353.953 19.924 353.937 20.3C353.929 20.396 353.877 20.444 353.781 20.444H350.073C350.025 20.444 350.009 20.464 350.025 20.504C350.049 20.664 350.093 20.824 350.157 20.984C350.365 21.432 350.789 21.656 351.429 21.656C351.941 21.648 352.345 21.44 352.641 21.032C352.673 20.984 352.709 20.96 352.749 20.96C352.773 20.96 352.801 20.976 352.833 21.008L353.697 21.86C353.737 21.9 353.757 21.936 353.757 21.968C353.757 21.984 353.741 22.016 353.709 22.064C353.445 22.392 353.105 22.648 352.689 22.832C352.273 23.008 351.817 23.096 351.321 23.096C350.633 23.096 350.049 22.94 349.569 22.628C349.097 22.316 348.757 21.88 348.549 21.32C348.381 20.92 348.297 20.396 348.297 19.748C348.297 19.308 348.357 18.92 348.477 18.584C348.661 18.016 348.981 17.564 349.437 17.228C349.901 16.892 350.449 16.724 351.081 16.724C351.881 16.724 352.521 16.956 353.001 17.42C353.489 17.884 353.785 18.504 353.889 19.28ZM351.093 18.188C350.589 18.188 350.257 18.424 350.097 18.896C350.065 19 350.037 19.128 350.013 19.28C350.013 19.32 350.033 19.34 350.073 19.34H352.149C352.197 19.34 352.213 19.32 352.197 19.28C352.157 19.048 352.137 18.936 352.137 18.944C352.065 18.704 351.937 18.52 351.753 18.392C351.577 18.256 351.357 18.188 351.093 18.188ZM358.379 18.044C358.379 18.084 358.363 18.12 358.331 18.152C358.307 18.176 358.275 18.188 358.235 18.188H357.083C357.043 18.188 357.023 18.208 357.023 18.248V20.792C357.023 21.056 357.075 21.252 357.179 21.38C357.291 21.508 357.467 21.572 357.707 21.572H358.103C358.143 21.572 358.175 21.588 358.199 21.62C358.231 21.644 358.247 21.676 358.247 21.716V22.856C358.247 22.944 358.199 22.996 358.103 23.012C357.767 23.028 357.527 23.036 357.383 23.036C356.719 23.036 356.223 22.928 355.895 22.712C355.567 22.488 355.399 22.072 355.391 21.464V18.248C355.391 18.208 355.371 18.188 355.331 18.188H354.647C354.607 18.188 354.571 18.176 354.539 18.152C354.515 18.12 354.503 18.084 354.503 18.044V16.976C354.503 16.936 354.515 16.904 354.539 16.88C354.571 16.848 354.607 16.832 354.647 16.832H355.331C355.371 16.832 355.391 16.812 355.391 16.772V15.344C355.391 15.304 355.403 15.272 355.427 15.248C355.459 15.216 355.495 15.2 355.535 15.2H356.879C356.919 15.2 356.951 15.216 356.975 15.248C357.007 15.272 357.023 15.304 357.023 15.344V16.772C357.023 16.812 357.043 16.832 357.083 16.832H358.235C358.275 16.832 358.307 16.848 358.331 16.88C358.363 16.904 358.379 16.936 358.379 16.976V18.044ZM364.497 18.992C364.657 19.36 364.737 19.784 364.737 20.264C364.737 20.696 364.665 21.096 364.521 21.464C364.329 21.976 364.005 22.376 363.549 22.664C363.101 22.952 362.569 23.096 361.953 23.096C361.345 23.096 360.809 22.944 360.345 22.64C359.889 22.336 359.561 21.924 359.361 21.404C359.249 21.092 359.185 20.756 359.169 20.396C359.169 20.3 359.217 20.252 359.313 20.252H360.729C360.825 20.252 360.873 20.3 360.873 20.396C360.905 20.66 360.949 20.856 361.005 20.984C361.077 21.192 361.193 21.356 361.353 21.476C361.521 21.588 361.717 21.644 361.941 21.644C362.389 21.644 362.697 21.448 362.865 21.056C362.977 20.816 363.033 20.536 363.033 20.216C363.033 19.84 362.973 19.532 362.853 19.292C362.669 18.916 362.361 18.728 361.929 18.728C361.841 18.728 361.749 18.756 361.653 18.812C361.557 18.86 361.441 18.932 361.305 19.028C361.273 19.052 361.241 19.064 361.209 19.064C361.161 19.064 361.125 19.04 361.101 18.992L360.393 17.996C360.377 17.972 360.369 17.944 360.369 17.912C360.369 17.864 360.385 17.824 360.417 17.792L362.325 16.124C362.341 16.108 362.345 16.092 362.337 16.076C362.337 16.06 362.325 16.052 362.301 16.052H359.481C359.441 16.052 359.405 16.04 359.373 16.016C359.349 15.984 359.337 15.948 359.337 15.908V14.744C359.337 14.704 359.349 14.672 359.373 14.648C359.405 14.616 359.441 14.6 359.481 14.6H364.485C364.525 14.6 364.557 14.616 364.581 14.648C364.613 14.672 364.629 14.704 364.629 14.744V16.064C364.629 16.128 364.601 16.188 364.545 16.244L362.973 17.684C362.957 17.7 362.949 17.716 362.949 17.732C362.957 17.748 362.977 17.756 363.009 17.756C363.705 17.892 364.201 18.304 364.497 18.992Z" fill="black"/>
<path d="M248.18 17.5902C248.18 26.7527 236.492 47 231.59 47C226.689 47 215 26.7527 215 17.5902C215 8.42767 222.428 1 231.59 1C240.753 1 248.18 8.42767 248.18 17.5902Z" fill="white"/>
<path d="M223.552 15.908C223.552 15.948 223.536 15.984 223.504 16.016C223.48 16.04 223.448 16.052 223.408 16.052H219.484C219.444 16.052 219.424 16.072 219.424 16.112V17.972C219.424 18.012 219.444 18.032 219.484 18.032H222.064C222.104 18.032 222.136 18.048 222.16 18.08C222.192 18.104 222.208 18.136 222.208 18.176V19.34C222.208 19.38 222.192 19.416 222.16 19.448C222.136 19.472 222.104 19.484 222.064 19.484H219.484C219.444 19.484 219.424 19.504 219.424 19.544V22.856C219.424 22.896 219.408 22.932 219.376 22.964C219.352 22.988 219.32 23 219.28 23H217.876C217.836 23 217.8 22.988 217.768 22.964C217.744 22.932 217.732 22.896 217.732 22.856V14.744C217.732 14.704 217.744 14.672 217.768 14.648C217.8 14.616 217.836 14.6 217.876 14.6H223.408C223.448 14.6 223.48 14.616 223.504 14.648C223.536 14.672 223.552 14.704 223.552 14.744V15.908ZM227.059 16.748C227.347 16.748 227.575 16.804 227.743 16.916C227.807 16.948 227.831 17.008 227.815 17.096L227.563 18.464C227.555 18.56 227.499 18.588 227.395 18.548C227.275 18.508 227.135 18.488 226.975 18.488C226.911 18.488 226.823 18.496 226.711 18.512C226.423 18.536 226.179 18.644 225.979 18.836C225.779 19.02 225.679 19.268 225.679 19.58V22.856C225.679 22.896 225.663 22.932 225.631 22.964C225.607 22.988 225.575 23 225.535 23H224.131C224.091 23 224.055 22.988 224.023 22.964C223.999 22.932 223.987 22.896 223.987 22.856V16.976C223.987 16.936 223.999 16.904 224.023 16.88C224.055 16.848 224.091 16.832 224.131 16.832H225.535C225.575 16.832 225.607 16.848 225.631 16.88C225.663 16.904 225.679 16.936 225.679 16.976V17.432C225.679 17.456 225.687 17.472 225.703 17.48C225.719 17.488 225.731 17.484 225.739 17.468C226.067 16.988 226.507 16.748 227.059 16.748ZM233.889 19.28C233.937 19.584 233.953 19.924 233.937 20.3C233.929 20.396 233.877 20.444 233.781 20.444H230.073C230.025 20.444 230.009 20.464 230.025 20.504C230.049 20.664 230.093 20.824 230.157 20.984C230.365 21.432 230.789 21.656 231.429 21.656C231.941 21.648 232.345 21.44 232.641 21.032C232.673 20.984 232.709 20.96 232.749 20.96C232.773 20.96 232.801 20.976 232.833 21.008L233.697 21.86C233.737 21.9 233.757 21.936 233.757 21.968C233.757 21.984 233.741 22.016 233.709 22.064C233.445 22.392 233.105 22.648 232.689 22.832C232.273 23.008 231.817 23.096 231.321 23.096C230.633 23.096 230.049 22.94 229.569 22.628C229.097 22.316 228.757 21.88 228.549 21.32C228.381 20.92 228.297 20.396 228.297 19.748C228.297 19.308 228.357 18.92 228.477 18.584C228.661 18.016 228.981 17.564 229.437 17.228C229.901 16.892 230.449 16.724 231.081 16.724C231.881 16.724 232.521 16.956 233.001 17.42C233.489 17.884 233.785 18.504 233.889 19.28ZM231.093 18.188C230.589 18.188 230.257 18.424 230.097 18.896C230.065 19 230.037 19.128 230.013 19.28C230.013 19.32 230.033 19.34 230.073 19.34H232.149C232.197 19.34 232.213 19.32 232.197 19.28C232.157 19.048 232.137 18.936 232.137 18.944C232.065 18.704 231.937 18.52 231.753 18.392C231.577 18.256 231.357 18.188 231.093 18.188ZM238.379 18.044C238.379 18.084 238.363 18.12 238.331 18.152C238.307 18.176 238.275 18.188 238.235 18.188H237.083C237.043 18.188 237.023 18.208 237.023 18.248V20.792C237.023 21.056 237.075 21.252 237.179 21.38C237.291 21.508 237.467 21.572 237.707 21.572H238.103C238.143 21.572 238.175 21.588 238.199 21.62C238.231 21.644 238.247 21.676 238.247 21.716V22.856C238.247 22.944 238.199 22.996 238.103 23.012C237.767 23.028 237.527 23.036 237.383 23.036C236.719 23.036 236.223 22.928 235.895 22.712C235.567 22.488 235.399 22.072 235.391 21.464V18.248C235.391 18.208 235.371 18.188 235.331 18.188H234.647C234.607 18.188 234.571 18.176 234.539 18.152C234.515 18.12 234.503 18.084 234.503 18.044V16.976C234.503 16.936 234.515 16.904 234.539 16.88C234.571 16.848 234.607 16.832 234.647 16.832H235.331C235.371 16.832 235.391 16.812 235.391 16.772V15.344C235.391 15.304 235.403 15.272 235.427 15.248C235.459 15.216 235.495 15.2 235.535 15.2H236.879C236.919 15.2 236.951 15.216 236.975 15.248C237.007 15.272 237.023 15.304 237.023 15.344V16.772C237.023 16.812 237.043 16.832 237.083 16.832H238.235C238.275 16.832 238.307 16.848 238.331 16.88C238.363 16.904 238.379 16.936 238.379 16.976V18.044ZM241.569 21.476C241.553 21.492 241.549 21.508 241.557 21.524C241.565 21.54 241.581 21.548 241.605 21.548H244.857C244.897 21.548 244.929 21.564 244.953 21.596C244.985 21.62 245.001 21.652 245.001 21.692V22.856C245.001 22.896 244.985 22.932 244.953 22.964C244.929 22.988 244.897 23 244.857 23H239.457C239.417 23 239.381 22.988 239.349 22.964C239.325 22.932 239.313 22.896 239.313 22.856V21.752C239.313 21.68 239.337 21.62 239.385 21.572C239.777 21.188 240.177 20.772 240.585 20.324C240.993 19.868 241.249 19.584 241.353 19.472C241.577 19.208 241.805 18.956 242.037 18.716C242.765 17.908 243.129 17.308 243.129 16.916C243.129 16.636 243.029 16.408 242.829 16.232C242.629 16.048 242.369 15.956 242.049 15.956C241.729 15.956 241.469 16.048 241.269 16.232C241.069 16.408 240.969 16.644 240.969 16.94V17.24C240.969 17.28 240.953 17.316 240.921 17.348C240.897 17.372 240.865 17.384 240.825 17.384H239.409C239.369 17.384 239.333 17.372 239.301 17.348C239.277 17.316 239.265 17.28 239.265 17.24V16.676C239.289 16.244 239.425 15.864 239.673 15.536C239.921 15.2 240.249 14.944 240.657 14.768C241.073 14.592 241.537 14.504 242.049 14.504C242.617 14.504 243.109 14.612 243.525 14.828C243.949 15.036 244.273 15.32 244.497 15.68C244.729 16.04 244.845 16.44 244.845 16.88C244.845 17.216 244.761 17.56 244.593 17.912C244.425 18.264 244.173 18.644 243.837 19.052C243.589 19.364 243.321 19.672 243.033 19.976C242.745 20.28 242.317 20.72 241.749 21.296L241.569 21.476Z" fill="black"/>
<path d="M123.18 17.5902C123.18 26.7527 111.492 47 106.59 47C101.689 47 90 26.7527 90 17.5902C90 8.42767 97.4277 1 106.59 1C115.753 1 123.18 8.42767 123.18 17.5902Z" fill="white"/>
<path d="M99.552 15.908C99.552 15.948 99.536 15.984 99.504 16.016C99.48 16.04 99.448 16.052 99.408 16.052H95.484C95.444 16.052 95.424 16.072 95.424 16.112V17.972C95.424 18.012 95.444 18.032 95.484 18.032H98.064C98.104 18.032 98.136 18.048 98.16 18.08C98.192 18.104 98.208 18.136 98.208 18.176V19.34C98.208 19.38 98.192 19.416 98.16 19.448C98.136 19.472 98.104 19.484 98.064 19.484H95.484C95.444 19.484 95.424 19.504 95.424 19.544V22.856C95.424 22.896 95.408 22.932 95.376 22.964C95.352 22.988 95.32 23 95.28 23H93.876C93.836 23 93.8 22.988 93.768 22.964C93.744 22.932 93.732 22.896 93.732 22.856V14.744C93.732 14.704 93.744 14.672 93.768 14.648C93.8 14.616 93.836 14.6 93.876 14.6H99.408C99.448 14.6 99.48 14.616 99.504 14.648C99.536 14.672 99.552 14.704 99.552 14.744V15.908ZM103.059 16.748C103.347 16.748 103.575 16.804 103.743 16.916C103.807 16.948 103.831 17.008 103.815 17.096L103.563 18.464C103.555 18.56 103.499 18.588 103.395 18.548C103.275 18.508 103.135 18.488 102.975 18.488C102.911 18.488 102.823 18.496 102.711 18.512C102.423 18.536 102.179 18.644 101.979 18.836C101.779 19.02 101.679 19.268 101.679 19.58V22.856C101.679 22.896 101.663 22.932 101.631 22.964C101.607 22.988 101.575 23 101.535 23H100.131C100.091 23 100.055 22.988 100.023 22.964C99.9993 22.932 99.9873 22.896 99.9873 22.856V16.976C99.9873 16.936 99.9993 16.904 100.023 16.88C100.055 16.848 100.091 16.832 100.131 16.832H101.535C101.575 16.832 101.607 16.848 101.631 16.88C101.663 16.904 101.679 16.936 101.679 16.976V17.432C101.679 17.456 101.687 17.472 101.703 17.48C101.719 17.488 101.731 17.484 101.739 17.468C102.067 16.988 102.507 16.748 103.059 16.748ZM109.889 19.28C109.937 19.584 109.953 19.924 109.937 20.3C109.929 20.396 109.877 20.444 109.781 20.444H106.073C106.025 20.444 106.009 20.464 106.025 20.504C106.049 20.664 106.093 20.824 106.157 20.984C106.365 21.432 106.789 21.656 107.429 21.656C107.941 21.648 108.345 21.44 108.641 21.032C108.673 20.984 108.709 20.96 108.749 20.96C108.773 20.96 108.801 20.976 108.833 21.008L109.697 21.86C109.737 21.9 109.757 21.936 109.757 21.968C109.757 21.984 109.741 22.016 109.709 22.064C109.445 22.392 109.105 22.648 108.689 22.832C108.273 23.008 107.817 23.096 107.321 23.096C106.633 23.096 106.049 22.94 105.569 22.628C105.097 22.316 104.757 21.88 104.549 21.32C104.381 20.92 104.297 20.396 104.297 19.748C104.297 19.308 104.357 18.92 104.477 18.584C104.661 18.016 104.981 17.564 105.437 17.228C105.901 16.892 106.449 16.724 107.081 16.724C107.881 16.724 108.521 16.956 109.001 17.42C109.489 17.884 109.785 18.504 109.889 19.28ZM107.093 18.188C106.589 18.188 106.257 18.424 106.097 18.896C106.065 19 106.037 19.128 106.013 19.28C106.013 19.32 106.033 19.34 106.073 19.34H108.149C108.197 19.34 108.213 19.32 108.197 19.28C108.157 19.048 108.137 18.936 108.137 18.944C108.065 18.704 107.937 18.52 107.753 18.392C107.577 18.256 107.357 18.188 107.093 18.188ZM114.379 18.044C114.379 18.084 114.363 18.12 114.331 18.152C114.307 18.176 114.275 18.188 114.235 18.188H113.083C113.043 18.188 113.023 18.208 113.023 18.248V20.792C113.023 21.056 113.075 21.252 113.179 21.38C113.291 21.508 113.467 21.572 113.707 21.572H114.103C114.143 21.572 114.175 21.588 114.199 21.62C114.231 21.644 114.247 21.676 114.247 21.716V22.856C114.247 22.944 114.199 22.996 114.103 23.012C113.767 23.028 113.527 23.036 113.383 23.036C112.719 23.036 112.223 22.928 111.895 22.712C111.567 22.488 111.399 22.072 111.391 21.464V18.248C111.391 18.208 111.371 18.188 111.331 18.188H110.647C110.607 18.188 110.571 18.176 110.539 18.152C110.515 18.12 110.503 18.084 110.503 18.044V16.976C110.503 16.936 110.515 16.904 110.539 16.88C110.571 16.848 110.607 16.832 110.647 16.832H111.331C111.371 16.832 111.391 16.812 111.391 16.772V15.344C111.391 15.304 111.403 15.272 111.427 15.248C111.459 15.216 111.495 15.2 111.535 15.2H112.879C112.919 15.2 112.951 15.216 112.975 15.248C113.007 15.272 113.023 15.304 113.023 15.344V16.772C113.023 16.812 113.043 16.832 113.083 16.832H114.235C114.275 16.832 114.307 16.848 114.331 16.88C114.363 16.904 114.379 16.936 114.379 16.976V18.044ZM116.573 14.636C116.613 14.612 116.673 14.6 116.753 14.6H118.205C118.245 14.6 118.277 14.616 118.301 14.648C118.333 14.672 118.349 14.704 118.349 14.744V22.856C118.349 22.896 118.333 22.932 118.301 22.964C118.277 22.988 118.245 23 118.205 23H116.801C116.761 23 116.725 22.988 116.693 22.964C116.669 22.932 116.657 22.896 116.657 22.856V16.28C116.657 16.264 116.649 16.248 116.633 16.232C116.617 16.216 116.601 16.212 116.585 16.22L115.397 16.544L115.349 16.556C115.277 16.556 115.241 16.512 115.241 16.424L115.205 15.392C115.205 15.312 115.241 15.256 115.313 15.224L116.573 14.636Z" fill="black"/>
<path d="M96 71.1263L125 70.2539V186.5C125 194.508 118.508 201 110.5 201V201C102.492 201 96 194.508 96 186.5V71.1263Z" fill="#8CACFF"/>
<circle cx="110.5" cy="190.5" r="14.5" fill="#2400FF"/>
<path d="M110.4 184.848C110.453 184.816 110.533 184.8 110.64 184.8H112.576C112.629 184.8 112.672 184.821 112.704 184.864C112.747 184.896 112.768 184.939 112.768 184.992V195.808C112.768 195.861 112.747 195.909 112.704 195.952C112.672 195.984 112.629 196 112.576 196H110.704C110.651 196 110.603 195.984 110.56 195.952C110.528 195.909 110.512 195.861 110.512 195.808V187.04C110.512 187.019 110.501 186.997 110.48 186.976C110.459 186.955 110.437 186.949 110.416 186.96L108.832 187.392L108.768 187.408C108.672 187.408 108.624 187.349 108.624 187.232L108.576 185.856C108.576 185.749 108.624 185.675 108.72 185.632L110.4 184.848Z" fill="white"/>
<circle cx="350.5" cy="131.5" r="14.5" fill="#2400FF"/>
<path d="M354.736 132.12C354.789 132.12 354.832 132.141 354.864 132.184C354.907 132.216 354.928 132.259 354.928 132.312V133.928C354.928 133.981 354.907 134.029 354.864 134.072C354.832 134.104 354.789 134.12 354.736 134.12H354.048C353.995 134.12 353.968 134.147 353.968 134.2V136.808C353.968 136.861 353.947 136.909 353.904 136.952C353.872 136.984 353.829 137 353.776 137H351.904C351.851 137 351.803 136.984 351.76 136.952C351.728 136.909 351.712 136.861 351.712 136.808V134.2C351.712 134.147 351.685 134.12 351.632 134.12H346.72C346.667 134.12 346.619 134.104 346.576 134.072C346.544 134.029 346.528 133.981 346.528 133.928V132.648C346.528 132.584 346.544 132.504 346.576 132.408L349.456 125.944C349.499 125.848 349.573 125.8 349.68 125.8H351.68C351.755 125.8 351.803 125.821 351.824 125.864C351.856 125.896 351.856 125.949 351.824 126.024L349.152 132.024C349.141 132.045 349.141 132.067 349.152 132.088C349.163 132.109 349.179 132.12 349.2 132.12H351.632C351.685 132.12 351.712 132.093 351.712 132.04V130.056C351.712 130.003 351.728 129.96 351.76 129.928C351.803 129.885 351.851 129.864 351.904 129.864H353.776C353.829 129.864 353.872 129.885 353.904 129.928C353.947 129.96 353.968 130.003 353.968 130.056V132.04C353.968 132.093 353.995 132.12 354.048 132.12H354.736Z" fill="white"/>
<circle cx="231.5" cy="101.5" r="14.5" fill="#2400FF"/>
<path d="M231.728 104.968C231.707 104.989 231.701 105.011 231.712 105.032C231.723 105.053 231.744 105.064 231.776 105.064H236.112C236.165 105.064 236.208 105.085 236.24 105.128C236.283 105.16 236.304 105.203 236.304 105.256V106.808C236.304 106.861 236.283 106.909 236.24 106.952C236.208 106.984 236.165 107 236.112 107H228.912C228.859 107 228.811 106.984 228.768 106.952C228.736 106.909 228.72 106.861 228.72 106.808V105.336C228.72 105.24 228.752 105.16 228.816 105.096C229.339 104.584 229.872 104.029 230.416 103.432C230.96 102.824 231.301 102.445 231.44 102.296C231.739 101.944 232.043 101.608 232.352 101.288C233.323 100.211 233.808 99.4107 233.808 98.888C233.808 98.5147 233.675 98.2107 233.408 97.976C233.141 97.7307 232.795 97.608 232.368 97.608C231.941 97.608 231.595 97.7307 231.328 97.976C231.061 98.2107 230.928 98.5253 230.928 98.92V99.32C230.928 99.3733 230.907 99.4213 230.864 99.464C230.832 99.496 230.789 99.512 230.736 99.512H228.848C228.795 99.512 228.747 99.496 228.704 99.464C228.672 99.4213 228.656 99.3733 228.656 99.32V98.568C228.688 97.992 228.869 97.4853 229.2 97.048C229.531 96.6 229.968 96.2587 230.512 96.024C231.067 95.7893 231.685 95.672 232.368 95.672C233.125 95.672 233.781 95.816 234.336 96.104C234.901 96.3813 235.333 96.76 235.632 97.24C235.941 97.72 236.096 98.2533 236.096 98.84C236.096 99.288 235.984 99.7467 235.76 100.216C235.536 100.685 235.2 101.192 234.752 101.736C234.421 102.152 234.064 102.563 233.68 102.968C233.296 103.373 232.725 103.96 231.968 104.728L231.728 104.968Z" fill="white"/>
<circle cx="350.5" cy="163.5" r="14.5" fill="#2400FF"/>
<path d="M354.632 163.656C354.845 164.147 354.952 164.712 354.952 165.352C354.952 165.928 354.856 166.461 354.664 166.952C354.408 167.635 353.976 168.168 353.368 168.552C352.771 168.936 352.061 169.128 351.24 169.128C350.429 169.128 349.715 168.925 349.096 168.52C348.488 168.115 348.051 167.565 347.784 166.872C347.635 166.456 347.549 166.008 347.528 165.528C347.528 165.4 347.592 165.336 347.72 165.336H349.608C349.736 165.336 349.8 165.4 349.8 165.528C349.843 165.88 349.901 166.141 349.976 166.312C350.072 166.589 350.227 166.808 350.44 166.968C350.664 167.117 350.925 167.192 351.224 167.192C351.821 167.192 352.232 166.931 352.456 166.408C352.605 166.088 352.68 165.715 352.68 165.288C352.68 164.787 352.6 164.376 352.44 164.056C352.195 163.555 351.784 163.304 351.208 163.304C351.091 163.304 350.968 163.341 350.84 163.416C350.712 163.48 350.557 163.576 350.376 163.704C350.333 163.736 350.291 163.752 350.248 163.752C350.184 163.752 350.136 163.72 350.104 163.656L349.16 162.328C349.139 162.296 349.128 162.259 349.128 162.216C349.128 162.152 349.149 162.099 349.192 162.056L351.736 159.832C351.757 159.811 351.763 159.789 351.752 159.768C351.752 159.747 351.736 159.736 351.704 159.736H347.944C347.891 159.736 347.843 159.72 347.8 159.688C347.768 159.645 347.752 159.597 347.752 159.544V157.992C347.752 157.939 347.768 157.896 347.8 157.864C347.843 157.821 347.891 157.8 347.944 157.8H354.616C354.669 157.8 354.712 157.821 354.744 157.864C354.787 157.896 354.808 157.939 354.808 157.992V159.752C354.808 159.837 354.771 159.917 354.696 159.992L352.6 161.912C352.579 161.933 352.568 161.955 352.568 161.976C352.579 161.997 352.605 162.008 352.648 162.008C353.576 162.189 354.237 162.739 354.632 163.656Z" fill="white"/>
<path d="M51 78.5C51 82.5 38.7467 88 33.5 88C28.2533 88 24 83.7467 24 78.5C24 73.2533 28.2533 69 33.5 69C38.7467 69 51 75 51 78.5Z" fill="#7F00FF"/>
<path d="M36.564 74.224C36.564 74.304 36.524 74.344 36.444 74.344H32.028C31.996 74.344 31.98 74.36 31.98 74.392V77.356C31.98 77.388 31.996 77.404 32.028 77.404H35.124C35.204 77.404 35.244 77.444 35.244 77.524V78.028C35.244 78.108 35.204 78.148 35.124 78.148H32.028C31.996 78.148 31.98 78.164 31.98 78.196V81.208C31.98 81.24 31.996 81.256 32.028 81.256H36.444C36.524 81.256 36.564 81.296 36.564 81.376V81.88C36.564 81.96 36.524 82 36.444 82H31.248C31.168 82 31.128 81.96 31.128 81.88V73.72C31.128 73.64 31.168 73.6 31.248 73.6H36.444C36.524 73.6 36.564 73.64 36.564 73.72V74.224Z" fill="white"/>
<path d="M51 103.5C51 107.5 38.7467 113 33.5 113C28.2533 113 24 108.747 24 103.5C24 98.2533 28.2533 94 33.5 94C38.7467 94 51 100 51 103.5Z" fill="#7F00FF"/>
<path d="M35.34 102.62C35.3 102.644 35.3 102.668 35.34 102.692C35.772 102.868 36.1 103.128 36.324 103.472C36.548 103.816 36.66 104.232 36.66 104.72C36.66 105.44 36.428 106 35.964 106.4C35.508 106.8 34.904 107 34.152 107H31.248C31.168 107 31.128 106.96 31.128 106.88V98.72C31.128 98.64 31.168 98.6 31.248 98.6H34.068C34.844 98.6 35.452 98.792 35.892 99.176C36.34 99.56 36.564 100.1 36.564 100.796C36.564 101.236 36.456 101.612 36.24 101.924C36.032 102.228 35.732 102.46 35.34 102.62ZM32.028 99.344C31.996 99.344 31.98 99.36 31.98 99.392V102.272C31.98 102.304 31.996 102.32 32.028 102.32H34.068C34.572 102.32 34.972 102.188 35.268 101.924C35.572 101.66 35.724 101.308 35.724 100.868C35.724 100.404 35.572 100.036 35.268 99.764C34.972 99.484 34.572 99.344 34.068 99.344H32.028ZM34.152 106.244C34.656 106.244 35.056 106.1 35.352 105.812C35.656 105.524 35.808 105.136 35.808 104.648C35.808 104.16 35.652 103.772 35.34 103.484C35.036 103.188 34.624 103.04 34.104 103.04H32.028C31.996 103.04 31.98 103.056 31.98 103.088V106.196C31.98 106.228 31.996 106.244 32.028 106.244H34.152Z" fill="white"/>
<path d="M51 133.5C51 137.5 38.7467 143 33.5 143C28.2533 143 24 138.747 24 133.5C24 128.253 28.2533 124 33.5 124C38.7467 124 51 130 51 133.5Z" fill="#7F00FF"/>
<path d="M33.684 137.096C33.124 137.096 32.632 136.988 32.208 136.772C31.784 136.548 31.452 136.236 31.212 135.836C30.98 135.436 30.864 134.976 30.864 134.456V131.144C30.864 130.624 30.98 130.164 31.212 129.764C31.452 129.364 31.784 129.056 32.208 128.84C32.632 128.616 33.124 128.504 33.684 128.504C34.236 128.504 34.724 128.612 35.148 128.828C35.58 129.044 35.912 129.348 36.144 129.74C36.376 130.124 36.492 130.56 36.492 131.048V131.204C36.492 131.284 36.452 131.324 36.372 131.324H35.76C35.68 131.324 35.64 131.284 35.64 131.204V131.06C35.64 130.524 35.46 130.088 35.1 129.752C34.748 129.416 34.276 129.248 33.684 129.248C33.092 129.248 32.616 129.42 32.256 129.764C31.896 130.108 31.716 130.56 31.716 131.12V134.48C31.716 135.04 31.9 135.492 32.268 135.836C32.636 136.18 33.12 136.352 33.72 136.352C34.304 136.352 34.768 136.192 35.112 135.872C35.464 135.552 35.64 135.124 35.64 134.588V133.496C35.64 133.464 35.624 133.448 35.592 133.448H33.828C33.748 133.448 33.708 133.408 33.708 133.328V132.824C33.708 132.744 33.748 132.704 33.828 132.704H36.372C36.452 132.704 36.492 132.744 36.492 132.824V134.372C36.492 135.228 36.236 135.896 35.724 136.376C35.22 136.856 34.54 137.096 33.684 137.096Z" fill="white"/>
<path d="M51 163.5C51 167.5 38.7467 173 33.5 173C28.2533 173 24 168.747 24 163.5C24 158.253 28.2533 154 33.5 154C38.7467 154 51 160 51 163.5Z" fill="#7F00FF"/>
<path d="M31.248 167C31.168 167 31.128 166.96 31.128 166.88V158.72C31.128 158.64 31.168 158.6 31.248 158.6H34.08C34.872 158.6 35.5 158.808 35.964 159.224C36.436 159.64 36.672 160.204 36.672 160.916V164.684C36.672 165.396 36.436 165.96 35.964 166.376C35.5 166.792 34.872 167 34.08 167H31.248ZM31.98 166.208C31.98 166.24 31.996 166.256 32.028 166.256H34.116C34.636 166.256 35.048 166.104 35.352 165.8C35.664 165.496 35.82 165.088 35.82 164.576V161.036C35.82 160.516 35.668 160.104 35.364 159.8C35.06 159.496 34.644 159.344 34.116 159.344H32.028C31.996 159.344 31.98 159.36 31.98 159.392V166.208Z" fill="white"/>
<path d="M51 192.5C51 196.5 38.7467 202 33.5 202C28.2533 202 24 197.747 24 192.5C24 187.253 28.2533 183 33.5 183C38.7467 183 51 189 51 192.5Z" fill="#7F00FF"/>
<path d="M36.108 196C36.036 196 35.988 195.968 35.964 195.904L35.484 194.392C35.476 194.368 35.46 194.356 35.436 194.356H31.848C31.824 194.356 31.808 194.368 31.8 194.392L31.32 195.904C31.296 195.968 31.248 196 31.176 196H30.528C30.44 196 30.408 195.956 30.432 195.868L33.084 187.696C33.108 187.632 33.156 187.6 33.228 187.6H34.044C34.116 187.6 34.164 187.632 34.188 187.696L36.852 195.868L36.864 195.916C36.864 195.972 36.828 196 36.756 196H36.108ZM32.04 193.6C32.032 193.616 32.032 193.632 32.04 193.648C32.056 193.656 32.072 193.66 32.088 193.66H35.184C35.2 193.66 35.212 193.656 35.22 193.648C35.236 193.632 35.24 193.616 35.232 193.6L33.672 188.704C33.664 188.688 33.652 188.68 33.636 188.68C33.62 188.68 33.608 188.688 33.6 188.704L32.04 193.6Z" fill="white"/>
<path d="M51 217.5C51 221.5 38.7467 227 33.5 227C28.2533 227 24 222.747 24 217.5C24 212.253 28.2533 208 33.5 208C38.7467 208 51 214 51 217.5Z" fill="#5F5F5F"/>
<path d="M36.564 213.224C36.564 213.304 36.524 213.344 36.444 213.344H32.028C31.996 213.344 31.98 213.36 31.98 213.392V216.356C31.98 216.388 31.996 216.404 32.028 216.404H35.124C35.204 216.404 35.244 216.444 35.244 216.524V217.028C35.244 217.108 35.204 217.148 35.124 217.148H32.028C31.996 217.148 31.98 217.164 31.98 217.196V220.208C31.98 220.24 31.996 220.256 32.028 220.256H36.444C36.524 220.256 36.564 220.296 36.564 220.376V220.88C36.564 220.96 36.524 221 36.444 221H31.248C31.168 221 31.128 220.96 31.128 220.88V212.72C31.128 212.64 31.168 212.6 31.248 212.6H36.444C36.524 212.6 36.564 212.64 36.564 212.72V213.224Z" fill="white"/>
</g>
<defs>
<filter id="filter0_d_508_347" x="0.856934" y="170.562" width="13.8745" height="13.874" filterUnits="userSpaceOnUse" color-interpolation-filters="sRGB">
<feFlood flood-opacity="0" result="BackgroundImageFix"/>
<feColorMatrix in="SourceAlpha" type="matrix" values="0 0 0 0 0 0 0 0 0 0 0 0 0 0 0 0 0 0 127 0" result="hardAlpha"/>
<feOffset dy="4"/>
<feGaussianBlur stdDeviation="2"/>
<feComposite in2="hardAlpha" operator="out"/>
<feColorMatrix type="matrix" values="0 0 0 0 0 0 0 0 0 0 0 0 0 0 0 0 0 0 0.25 0"/>
<feBlend mode="normal" in2="BackgroundImageFix" result="effect1_dropShadow_508_347"/>
<feBlend mode="normal" in="SourceGraphic" in2="effect1_dropShadow_508_347" result="shape"/>
</filter>
<linearGradient id="paint0_linear_508_347" x1="44.6016" y1="140.743" x2="32.6786" y2="140.743" gradientUnits="userSpaceOnUse">
<stop stop-color="#D9D9D9"/>
<stop offset="1" stop-color="#D9D9D9" stop-opacity="0"/>
</linearGradient>
<linearGradient id="paint1_linear_508_347" x1="174.14" y1="140.743" x2="164.602" y2="140.743" gradientUnits="userSpaceOnUse">
<stop stop-color="#D9D9D9"/>
<stop offset="1" stop-color="#D9D9D9" stop-opacity="0"/>
</linearGradient>
<linearGradient id="paint2_linear_508_347" x1="290.14" y1="136.16" x2="280.602" y2="136.16" gradientUnits="userSpaceOnUse">
<stop stop-color="#D9D9D9"/>
<stop offset="1" stop-color="#D9D9D9" stop-opacity="0"/>
</linearGradient>
<linearGradient id="paint3_linear_508_347" x1="404.14" y1="136.081" x2="394.602" y2="136.081" gradientUnits="userSpaceOnUse">
<stop stop-color="#D9D9D9"/>
<stop offset="1" stop-color="#D9D9D9" stop-opacity="0"/>
</linearGradient>
</defs>
</svg>
