<svg width="43" height="59" viewBox="0 0 43 59" fill="none" xmlns="http://www.w3.org/2000/svg">
<path d="M42.8413 17.0008C42.4836 16.7906 40.8439 16.6106 40.8439 16.6106L34.7052 17.498L32.7096 18.0665C32.7096 18.0665 31.052 14.2672 29.2853 13.3726C24.0747 10.7422 24.2195 10.1025 24.2195 10.1025C24.2195 10.1025 25.5821 3.82781 25.718 3.20587C25.8521 2.57859 25.0796 -0.1355 21.6517 0.00528342C18.2274 0.147849 17.657 2.70868 17.657 2.70868L17.5873 5.05387C17.5873 5.05387 16.9471 5.41029 17.3012 6.33518C17.657 7.26007 18.5153 8.32396 18.5153 8.32396L18.3723 9.60705L8.52494 14.2279C8.52494 14.2279 6.24147 16.0047 3.74343 16.5036C1.24718 16.9991 -0.251286 18.6368 0.0348176 20.3422C0.319133 22.0494 3.02996 23.4002 3.02996 23.4002C3.02996 23.4002 3.10328 26.6133 3.29282 29.0405C3.48057 31.4712 5.56555 33.0786 5.88384 33.3549C6.20213 33.6293 8.66799 34.4241 8.66799 34.4241C8.66799 34.4241 11.3073 34.5649 12.804 33.2123C13.5174 35.0603 14.8031 35.2029 14.9444 36.199C15.0874 37.197 14.3042 37.9062 15.0141 38.6155C15.7294 39.3266 17.9413 42.4559 17.9413 43.3095C17.9413 44.1631 17.0133 55.2547 17.0133 55.2547H18.2989L19.2985 51.7012L19.5077 51.3555L19.9387 53.6205C19.9387 53.6205 20.4394 55.5398 22.6513 55.6823C24.8632 55.8249 25.2191 55.7251 25.7877 55.6823C26.3599 55.6378 23.6509 50.4912 23.5793 49.9227C23.5096 49.356 24.7202 50.4912 24.5074 49.4291C24.452 49.1582 24.3035 48.4525 24.1051 47.5401H26.1471L26.9303 52.9077H28.0712L26.8123 47.5401H27.0322L28.2142 51.5586L28.1427 48.3598L27.9728 47.5401H28.8633V46.7952H27.8208L25.9594 37.7494C25.9594 37.7494 27.1431 37.6247 28.3573 38.546C29.5696 39.4727 28.5665 52.758 28.5665 52.758C28.5665 52.758 27.6384 57.1044 28.4288 57.3147C29.212 57.5197 30.1812 57.7175 30.1812 57.7175C30.1812 57.7175 30.7587 57.999 32.0176 58.6121C33.2782 59.2304 36.842 59.0986 36.749 58.2949C36.6543 57.4965 35.5492 56.6678 35.5492 56.6678L32.9689 54.7058L32.4915 52.341C32.4915 52.341 34.8429 52.979 34.8447 51.8438C34.8482 50.705 34.9984 48.2137 35.1236 45.9416C35.2488 43.6694 36.3431 37.8332 36.3431 35.2759C36.3431 32.7187 35.4151 31.9328 35.4151 31.9328L32.7025 29.8014H33.8451C33.8451 29.8014 36.9153 28.8747 33.8451 20.7004L34.7016 20.2032L35.5581 20.7717L41.2641 20.0624L41.7952 19.1892L42.8359 18.9255C42.8413 18.9219 43.1989 17.2147 42.8413 17.0008ZM8.97376 18.1182C10.6403 18.0915 12.6842 19.4904 13.5174 19.4441C14.3489 19.3977 14.9658 18.2893 16.4393 17.8135C17.9145 17.3394 19.0339 17.6192 19.8922 18.3053C20.7469 18.995 20.7469 21.0069 20.7469 21.0069L17.3226 21.7892C17.3226 21.7892 16.5376 20.9107 15.2054 21.0782C13.8733 21.2457 12.9953 22.4753 12.9953 22.4753C12.9953 22.4753 12.1567 21.399 11.5219 21.0782C10.8871 20.7592 8.3336 19.4191 7.47708 19.4441C6.62056 19.4708 6.14491 19.1839 6.26293 18.8275C6.38274 18.4728 7.309 18.1414 8.97376 18.1182ZM18.4152 29.0922C15.8224 29.9903 15.2287 28.8997 14.0628 29.2793C12.897 29.6589 11.6828 32.503 8.73415 33.2105C5.78728 33.9215 4.21729 30.9402 3.82748 29.4967C3.45733 28.1174 3.45554 23.3985 3.45554 23.3985C3.45554 23.3985 6.47572 22.8995 6.8101 22.9725C7.1427 23.0438 7.80789 24.678 7.80789 24.678L8.06896 29.6588L9.23662 29.4985L9.44941 26.4583C9.44941 26.4583 11.6131 26.9519 12.0887 26.8129C12.5661 26.6721 13.1598 25.8862 13.1598 25.8862C13.1598 25.8862 13.6623 27.0481 15.302 26.886C16.9435 26.7184 17.5622 25.0843 17.5622 25.0843L21.0563 24.1344C21.0545 24.1362 21.008 28.1904 18.4152 29.0922ZM23.9405 46.797C23.3594 44.1061 22.5297 40.3103 22.3616 39.5422C22.1166 38.4124 21.3638 36.8406 23.0018 36.7693C24.6451 36.6998 24.6522 37.3199 24.6522 37.3199L26.0363 46.797H23.9405ZM26.8141 46.797H26.6371L25.9415 43.8405L26.8141 46.797Z" fill="url(#paint0_linear_683_290)"/>
<defs>
<linearGradient id="paint0_linear_683_290" x1="21.5" y1="0" x2="21.5" y2="59" gradientUnits="userSpaceOnUse">
<stop stop-color="#2400FF"/>
<stop offset="1" stop-color="#7F00FF"/>
</linearGradient>
</defs>
</svg>
