<svg width="430" height="234" viewBox="0 0 430 234" fill="none" xmlns="http://www.w3.org/2000/svg">
<mask id="mask0_508_494" style="mask-type:alpha" maskUnits="userSpaceOnUse" x="0" y="0" width="430" height="234">
<rect width="430" height="234" fill="#D9D9D9"/>
</mask>
<g mask="url(#mask0_508_494)">
<path d="M-2 72.1278L431 59V234L-2 219V72.1278Z" fill="#232323"/>
<path d="M53.2939 70L38.2939 70.5117V220.362L53.2939 221V70Z" fill="url(#paint0_linear_508_494)"/>
<path d="M181.294 66.583L169.294 66.9539V224.705L181.294 225.109V66.583Z" fill="url(#paint1_linear_508_494)"/>
<path d="M297.294 63.0791L285.294 63.4395V228.363L297.294 228.75V63.0791Z" fill="url(#paint2_linear_508_494)"/>
<path d="M411.294 59.6328L399.294 60.0007V231.961L411.294 232.34V59.6328Z" fill="url(#paint3_linear_508_494)"/>
<line y1="-2" x2="430.01" y2="-2" transform="matrix(-0.999976 -0.00697657 -0.00697657 0.999976 430 194)" stroke="#7F00FF" stroke-width="4"/>
<line y1="-2" x2="430.01" y2="-2" transform="matrix(-0.999976 -0.00697657 -0.00697657 0.999976 430 194)" stroke="#7F00FF" stroke-width="4"/>
<line y1="-2" x2="430.01" y2="-2" transform="matrix(-0.999976 -0.00697657 -0.00697657 0.999976 430 194)" stroke="#7F00FF" stroke-width="4"/>
<line y1="-2" x2="430.01" y2="-2" transform="matrix(-0.999976 -0.00697657 -0.00697657 0.999976 430 194)" stroke="#7F00FF" stroke-width="4"/>
<line y1="-2" x2="430.01" y2="-2" transform="matrix(-0.999976 -0.00697657 -0.00697657 0.999976 430 194)" stroke="#7F00FF" stroke-width="4"/>
<line y1="-1" x2="435.074" y2="-1" transform="matrix(-0.999831 -0.0183877 -0.0183877 0.999831 430 224)" stroke="#5F5F5F" stroke-width="2"/>
<path d="M430 161.5L28 161L-3.91293e-06 161" stroke="#7F00FF" stroke-width="4"/>
<path d="M430 130.2L26 131.5L-4 131.5" stroke="#7F00FF" stroke-width="4"/>
<path d="M430 99L20.5 102.5H-3.5" stroke="#7F00FF" stroke-width="4"/>
<path d="M-2 76.5H33.5L430 70.5" stroke="#7F00FF" stroke-width="4"/>
<path d="M369.18 15.5902C369.18 24.7527 357.492 45 352.59 45C347.689 45 336 24.7527 336 15.5902C336 6.42767 343.428 -1 352.59 -1C361.753 -1 369.18 6.42767 369.18 15.5902Z" fill="white"/>
<path d="M344.552 13.908C344.552 13.948 344.536 13.984 344.504 14.016C344.48 14.04 344.448 14.052 344.408 14.052H340.484C340.444 14.052 340.424 14.072 340.424 14.112V15.972C340.424 16.012 340.444 16.032 340.484 16.032H343.064C343.104 16.032 343.136 16.048 343.16 16.08C343.192 16.104 343.208 16.136 343.208 16.176V17.34C343.208 17.38 343.192 17.416 343.16 17.448C343.136 17.472 343.104 17.484 343.064 17.484H340.484C340.444 17.484 340.424 17.504 340.424 17.544V20.856C340.424 20.896 340.408 20.932 340.376 20.964C340.352 20.988 340.32 21 340.28 21H338.876C338.836 21 338.8 20.988 338.768 20.964C338.744 20.932 338.732 20.896 338.732 20.856V12.744C338.732 12.704 338.744 12.672 338.768 12.648C338.8 12.616 338.836 12.6 338.876 12.6H344.408C344.448 12.6 344.48 12.616 344.504 12.648C344.536 12.672 344.552 12.704 344.552 12.744V13.908ZM348.059 14.748C348.347 14.748 348.575 14.804 348.743 14.916C348.807 14.948 348.831 15.008 348.815 15.096L348.563 16.464C348.555 16.56 348.499 16.588 348.395 16.548C348.275 16.508 348.135 16.488 347.975 16.488C347.911 16.488 347.823 16.496 347.711 16.512C347.423 16.536 347.179 16.644 346.979 16.836C346.779 17.02 346.679 17.268 346.679 17.58V20.856C346.679 20.896 346.663 20.932 346.631 20.964C346.607 20.988 346.575 21 346.535 21H345.131C345.091 21 345.055 20.988 345.023 20.964C344.999 20.932 344.987 20.896 344.987 20.856V14.976C344.987 14.936 344.999 14.904 345.023 14.88C345.055 14.848 345.091 14.832 345.131 14.832H346.535C346.575 14.832 346.607 14.848 346.631 14.88C346.663 14.904 346.679 14.936 346.679 14.976V15.432C346.679 15.456 346.687 15.472 346.703 15.48C346.719 15.488 346.731 15.484 346.739 15.468C347.067 14.988 347.507 14.748 348.059 14.748ZM354.889 17.28C354.937 17.584 354.953 17.924 354.937 18.3C354.929 18.396 354.877 18.444 354.781 18.444H351.073C351.025 18.444 351.009 18.464 351.025 18.504C351.049 18.664 351.093 18.824 351.157 18.984C351.365 19.432 351.789 19.656 352.429 19.656C352.941 19.648 353.345 19.44 353.641 19.032C353.673 18.984 353.709 18.96 353.749 18.96C353.773 18.96 353.801 18.976 353.833 19.008L354.697 19.86C354.737 19.9 354.757 19.936 354.757 19.968C354.757 19.984 354.741 20.016 354.709 20.064C354.445 20.392 354.105 20.648 353.689 20.832C353.273 21.008 352.817 21.096 352.321 21.096C351.633 21.096 351.049 20.94 350.569 20.628C350.097 20.316 349.757 19.88 349.549 19.32C349.381 18.92 349.297 18.396 349.297 17.748C349.297 17.308 349.357 16.92 349.477 16.584C349.661 16.016 349.981 15.564 350.437 15.228C350.901 14.892 351.449 14.724 352.081 14.724C352.881 14.724 353.521 14.956 354.001 15.42C354.489 15.884 354.785 16.504 354.889 17.28ZM352.093 16.188C351.589 16.188 351.257 16.424 351.097 16.896C351.065 17 351.037 17.128 351.013 17.28C351.013 17.32 351.033 17.34 351.073 17.34H353.149C353.197 17.34 353.213 17.32 353.197 17.28C353.157 17.048 353.137 16.936 353.137 16.944C353.065 16.704 352.937 16.52 352.753 16.392C352.577 16.256 352.357 16.188 352.093 16.188ZM359.379 16.044C359.379 16.084 359.363 16.12 359.331 16.152C359.307 16.176 359.275 16.188 359.235 16.188H358.083C358.043 16.188 358.023 16.208 358.023 16.248V18.792C358.023 19.056 358.075 19.252 358.179 19.38C358.291 19.508 358.467 19.572 358.707 19.572H359.103C359.143 19.572 359.175 19.588 359.199 19.62C359.231 19.644 359.247 19.676 359.247 19.716V20.856C359.247 20.944 359.199 20.996 359.103 21.012C358.767 21.028 358.527 21.036 358.383 21.036C357.719 21.036 357.223 20.928 356.895 20.712C356.567 20.488 356.399 20.072 356.391 19.464V16.248C356.391 16.208 356.371 16.188 356.331 16.188H355.647C355.607 16.188 355.571 16.176 355.539 16.152C355.515 16.12 355.503 16.084 355.503 16.044V14.976C355.503 14.936 355.515 14.904 355.539 14.88C355.571 14.848 355.607 14.832 355.647 14.832H356.331C356.371 14.832 356.391 14.812 356.391 14.772V13.344C356.391 13.304 356.403 13.272 356.427 13.248C356.459 13.216 356.495 13.2 356.535 13.2H357.879C357.919 13.2 357.951 13.216 357.975 13.248C358.007 13.272 358.023 13.304 358.023 13.344V14.772C358.023 14.812 358.043 14.832 358.083 14.832H359.235C359.275 14.832 359.307 14.848 359.331 14.88C359.363 14.904 359.379 14.936 359.379 14.976V16.044ZM366.325 17.34C366.365 17.34 366.397 17.356 366.421 17.388C366.453 17.412 366.469 17.444 366.469 17.484V18.696C366.469 18.736 366.453 18.772 366.421 18.804C366.397 18.828 366.365 18.84 366.325 18.84H365.809C365.769 18.84 365.749 18.86 365.749 18.9V20.856C365.749 20.896 365.733 20.932 365.701 20.964C365.677 20.988 365.645 21 365.605 21H364.201C364.161 21 364.125 20.988 364.093 20.964C364.069 20.932 364.057 20.896 364.057 20.856V18.9C364.057 18.86 364.037 18.84 363.997 18.84H360.313C360.273 18.84 360.237 18.828 360.205 18.804C360.181 18.772 360.169 18.736 360.169 18.696V17.736C360.169 17.688 360.181 17.628 360.205 17.556L362.365 12.708C362.397 12.636 362.453 12.6 362.533 12.6H364.033C364.089 12.6 364.125 12.616 364.141 12.648C364.165 12.672 364.165 12.712 364.141 12.768L362.137 17.268C362.129 17.284 362.129 17.3 362.137 17.316C362.145 17.332 362.157 17.34 362.173 17.34H363.997C364.037 17.34 364.057 17.32 364.057 17.28V15.792C364.057 15.752 364.069 15.72 364.093 15.696C364.125 15.664 364.161 15.648 364.201 15.648H365.605C365.645 15.648 365.677 15.664 365.701 15.696C365.733 15.72 365.749 15.752 365.749 15.792V17.28C365.749 17.32 365.769 17.34 365.809 17.34H366.325Z" fill="black"/>
<path d="M249.18 15.5902C249.18 24.7527 237.492 45 232.59 45C227.689 45 216 24.7527 216 15.5902C216 6.42767 223.428 -1 232.59 -1C241.753 -1 249.18 6.42767 249.18 15.5902Z" fill="white"/>
<path d="M224.552 13.908C224.552 13.948 224.536 13.984 224.504 14.016C224.48 14.04 224.448 14.052 224.408 14.052H220.484C220.444 14.052 220.424 14.072 220.424 14.112V15.972C220.424 16.012 220.444 16.032 220.484 16.032H223.064C223.104 16.032 223.136 16.048 223.16 16.08C223.192 16.104 223.208 16.136 223.208 16.176V17.34C223.208 17.38 223.192 17.416 223.16 17.448C223.136 17.472 223.104 17.484 223.064 17.484H220.484C220.444 17.484 220.424 17.504 220.424 17.544V20.856C220.424 20.896 220.408 20.932 220.376 20.964C220.352 20.988 220.32 21 220.28 21H218.876C218.836 21 218.8 20.988 218.768 20.964C218.744 20.932 218.732 20.896 218.732 20.856V12.744C218.732 12.704 218.744 12.672 218.768 12.648C218.8 12.616 218.836 12.6 218.876 12.6H224.408C224.448 12.6 224.48 12.616 224.504 12.648C224.536 12.672 224.552 12.704 224.552 12.744V13.908ZM228.059 14.748C228.347 14.748 228.575 14.804 228.743 14.916C228.807 14.948 228.831 15.008 228.815 15.096L228.563 16.464C228.555 16.56 228.499 16.588 228.395 16.548C228.275 16.508 228.135 16.488 227.975 16.488C227.911 16.488 227.823 16.496 227.711 16.512C227.423 16.536 227.179 16.644 226.979 16.836C226.779 17.02 226.679 17.268 226.679 17.58V20.856C226.679 20.896 226.663 20.932 226.631 20.964C226.607 20.988 226.575 21 226.535 21H225.131C225.091 21 225.055 20.988 225.023 20.964C224.999 20.932 224.987 20.896 224.987 20.856V14.976C224.987 14.936 224.999 14.904 225.023 14.88C225.055 14.848 225.091 14.832 225.131 14.832H226.535C226.575 14.832 226.607 14.848 226.631 14.88C226.663 14.904 226.679 14.936 226.679 14.976V15.432C226.679 15.456 226.687 15.472 226.703 15.48C226.719 15.488 226.731 15.484 226.739 15.468C227.067 14.988 227.507 14.748 228.059 14.748ZM234.889 17.28C234.937 17.584 234.953 17.924 234.937 18.3C234.929 18.396 234.877 18.444 234.781 18.444H231.073C231.025 18.444 231.009 18.464 231.025 18.504C231.049 18.664 231.093 18.824 231.157 18.984C231.365 19.432 231.789 19.656 232.429 19.656C232.941 19.648 233.345 19.44 233.641 19.032C233.673 18.984 233.709 18.96 233.749 18.96C233.773 18.96 233.801 18.976 233.833 19.008L234.697 19.86C234.737 19.9 234.757 19.936 234.757 19.968C234.757 19.984 234.741 20.016 234.709 20.064C234.445 20.392 234.105 20.648 233.689 20.832C233.273 21.008 232.817 21.096 232.321 21.096C231.633 21.096 231.049 20.94 230.569 20.628C230.097 20.316 229.757 19.88 229.549 19.32C229.381 18.92 229.297 18.396 229.297 17.748C229.297 17.308 229.357 16.92 229.477 16.584C229.661 16.016 229.981 15.564 230.437 15.228C230.901 14.892 231.449 14.724 232.081 14.724C232.881 14.724 233.521 14.956 234.001 15.42C234.489 15.884 234.785 16.504 234.889 17.28ZM232.093 16.188C231.589 16.188 231.257 16.424 231.097 16.896C231.065 17 231.037 17.128 231.013 17.28C231.013 17.32 231.033 17.34 231.073 17.34H233.149C233.197 17.34 233.213 17.32 233.197 17.28C233.157 17.048 233.137 16.936 233.137 16.944C233.065 16.704 232.937 16.52 232.753 16.392C232.577 16.256 232.357 16.188 232.093 16.188ZM239.379 16.044C239.379 16.084 239.363 16.12 239.331 16.152C239.307 16.176 239.275 16.188 239.235 16.188H238.083C238.043 16.188 238.023 16.208 238.023 16.248V18.792C238.023 19.056 238.075 19.252 238.179 19.38C238.291 19.508 238.467 19.572 238.707 19.572H239.103C239.143 19.572 239.175 19.588 239.199 19.62C239.231 19.644 239.247 19.676 239.247 19.716V20.856C239.247 20.944 239.199 20.996 239.103 21.012C238.767 21.028 238.527 21.036 238.383 21.036C237.719 21.036 237.223 20.928 236.895 20.712C236.567 20.488 236.399 20.072 236.391 19.464V16.248C236.391 16.208 236.371 16.188 236.331 16.188H235.647C235.607 16.188 235.571 16.176 235.539 16.152C235.515 16.12 235.503 16.084 235.503 16.044V14.976C235.503 14.936 235.515 14.904 235.539 14.88C235.571 14.848 235.607 14.832 235.647 14.832H236.331C236.371 14.832 236.391 14.812 236.391 14.772V13.344C236.391 13.304 236.403 13.272 236.427 13.248C236.459 13.216 236.495 13.2 236.535 13.2H237.879C237.919 13.2 237.951 13.216 237.975 13.248C238.007 13.272 238.023 13.304 238.023 13.344V14.772C238.023 14.812 238.043 14.832 238.083 14.832H239.235C239.275 14.832 239.307 14.848 239.331 14.88C239.363 14.904 239.379 14.936 239.379 14.976V16.044ZM245.497 16.992C245.657 17.36 245.737 17.784 245.737 18.264C245.737 18.696 245.665 19.096 245.521 19.464C245.329 19.976 245.005 20.376 244.549 20.664C244.101 20.952 243.569 21.096 242.953 21.096C242.345 21.096 241.809 20.944 241.345 20.64C240.889 20.336 240.561 19.924 240.361 19.404C240.249 19.092 240.185 18.756 240.169 18.396C240.169 18.3 240.217 18.252 240.313 18.252H241.729C241.825 18.252 241.873 18.3 241.873 18.396C241.905 18.66 241.949 18.856 242.005 18.984C242.077 19.192 242.193 19.356 242.353 19.476C242.521 19.588 242.717 19.644 242.941 19.644C243.389 19.644 243.697 19.448 243.865 19.056C243.977 18.816 244.033 18.536 244.033 18.216C244.033 17.84 243.973 17.532 243.853 17.292C243.669 16.916 243.361 16.728 242.929 16.728C242.841 16.728 242.749 16.756 242.653 16.812C242.557 16.86 242.441 16.932 242.305 17.028C242.273 17.052 242.241 17.064 242.209 17.064C242.161 17.064 242.125 17.04 242.101 16.992L241.393 15.996C241.377 15.972 241.369 15.944 241.369 15.912C241.369 15.864 241.385 15.824 241.417 15.792L243.325 14.124C243.341 14.108 243.345 14.092 243.337 14.076C243.337 14.06 243.325 14.052 243.301 14.052H240.481C240.441 14.052 240.405 14.04 240.373 14.016C240.349 13.984 240.337 13.948 240.337 13.908V12.744C240.337 12.704 240.349 12.672 240.373 12.648C240.405 12.616 240.441 12.6 240.481 12.6H245.485C245.525 12.6 245.557 12.616 245.581 12.648C245.613 12.672 245.629 12.704 245.629 12.744V14.064C245.629 14.128 245.601 14.188 245.545 14.244L243.973 15.684C243.957 15.7 243.949 15.716 243.949 15.732C243.957 15.748 243.977 15.756 244.009 15.756C244.705 15.892 245.201 16.304 245.497 16.992Z" fill="black"/>
<path d="M124.18 15.5902C124.18 24.7527 112.492 45 107.59 45C102.689 45 91 24.7527 91 15.5902C91 6.42767 98.4277 -1 107.59 -1C116.753 -1 124.18 6.42767 124.18 15.5902Z" fill="white"/>
<path d="M99.552 13.908C99.552 13.948 99.536 13.984 99.504 14.016C99.48 14.04 99.448 14.052 99.408 14.052H95.484C95.444 14.052 95.424 14.072 95.424 14.112V15.972C95.424 16.012 95.444 16.032 95.484 16.032H98.064C98.104 16.032 98.136 16.048 98.16 16.08C98.192 16.104 98.208 16.136 98.208 16.176V17.34C98.208 17.38 98.192 17.416 98.16 17.448C98.136 17.472 98.104 17.484 98.064 17.484H95.484C95.444 17.484 95.424 17.504 95.424 17.544V20.856C95.424 20.896 95.408 20.932 95.376 20.964C95.352 20.988 95.32 21 95.28 21H93.876C93.836 21 93.8 20.988 93.768 20.964C93.744 20.932 93.732 20.896 93.732 20.856V12.744C93.732 12.704 93.744 12.672 93.768 12.648C93.8 12.616 93.836 12.6 93.876 12.6H99.408C99.448 12.6 99.48 12.616 99.504 12.648C99.536 12.672 99.552 12.704 99.552 12.744V13.908ZM103.059 14.748C103.347 14.748 103.575 14.804 103.743 14.916C103.807 14.948 103.831 15.008 103.815 15.096L103.563 16.464C103.555 16.56 103.499 16.588 103.395 16.548C103.275 16.508 103.135 16.488 102.975 16.488C102.911 16.488 102.823 16.496 102.711 16.512C102.423 16.536 102.179 16.644 101.979 16.836C101.779 17.02 101.679 17.268 101.679 17.58V20.856C101.679 20.896 101.663 20.932 101.631 20.964C101.607 20.988 101.575 21 101.535 21H100.131C100.091 21 100.055 20.988 100.023 20.964C99.9993 20.932 99.9873 20.896 99.9873 20.856V14.976C99.9873 14.936 99.9993 14.904 100.023 14.88C100.055 14.848 100.091 14.832 100.131 14.832H101.535C101.575 14.832 101.607 14.848 101.631 14.88C101.663 14.904 101.679 14.936 101.679 14.976V15.432C101.679 15.456 101.687 15.472 101.703 15.48C101.719 15.488 101.731 15.484 101.739 15.468C102.067 14.988 102.507 14.748 103.059 14.748ZM109.889 17.28C109.937 17.584 109.953 17.924 109.937 18.3C109.929 18.396 109.877 18.444 109.781 18.444H106.073C106.025 18.444 106.009 18.464 106.025 18.504C106.049 18.664 106.093 18.824 106.157 18.984C106.365 19.432 106.789 19.656 107.429 19.656C107.941 19.648 108.345 19.44 108.641 19.032C108.673 18.984 108.709 18.96 108.749 18.96C108.773 18.96 108.801 18.976 108.833 19.008L109.697 19.86C109.737 19.9 109.757 19.936 109.757 19.968C109.757 19.984 109.741 20.016 109.709 20.064C109.445 20.392 109.105 20.648 108.689 20.832C108.273 21.008 107.817 21.096 107.321 21.096C106.633 21.096 106.049 20.94 105.569 20.628C105.097 20.316 104.757 19.88 104.549 19.32C104.381 18.92 104.297 18.396 104.297 17.748C104.297 17.308 104.357 16.92 104.477 16.584C104.661 16.016 104.981 15.564 105.437 15.228C105.901 14.892 106.449 14.724 107.081 14.724C107.881 14.724 108.521 14.956 109.001 15.42C109.489 15.884 109.785 16.504 109.889 17.28ZM107.093 16.188C106.589 16.188 106.257 16.424 106.097 16.896C106.065 17 106.037 17.128 106.013 17.28C106.013 17.32 106.033 17.34 106.073 17.34H108.149C108.197 17.34 108.213 17.32 108.197 17.28C108.157 17.048 108.137 16.936 108.137 16.944C108.065 16.704 107.937 16.52 107.753 16.392C107.577 16.256 107.357 16.188 107.093 16.188ZM114.379 16.044C114.379 16.084 114.363 16.12 114.331 16.152C114.307 16.176 114.275 16.188 114.235 16.188H113.083C113.043 16.188 113.023 16.208 113.023 16.248V18.792C113.023 19.056 113.075 19.252 113.179 19.38C113.291 19.508 113.467 19.572 113.707 19.572H114.103C114.143 19.572 114.175 19.588 114.199 19.62C114.231 19.644 114.247 19.676 114.247 19.716V20.856C114.247 20.944 114.199 20.996 114.103 21.012C113.767 21.028 113.527 21.036 113.383 21.036C112.719 21.036 112.223 20.928 111.895 20.712C111.567 20.488 111.399 20.072 111.391 19.464V16.248C111.391 16.208 111.371 16.188 111.331 16.188H110.647C110.607 16.188 110.571 16.176 110.539 16.152C110.515 16.12 110.503 16.084 110.503 16.044V14.976C110.503 14.936 110.515 14.904 110.539 14.88C110.571 14.848 110.607 14.832 110.647 14.832H111.331C111.371 14.832 111.391 14.812 111.391 14.772V13.344C111.391 13.304 111.403 13.272 111.427 13.248C111.459 13.216 111.495 13.2 111.535 13.2H112.879C112.919 13.2 112.951 13.216 112.975 13.248C113.007 13.272 113.023 13.304 113.023 13.344V14.772C113.023 14.812 113.043 14.832 113.083 14.832H114.235C114.275 14.832 114.307 14.848 114.331 14.88C114.363 14.904 114.379 14.936 114.379 14.976V16.044ZM117.569 19.476C117.553 19.492 117.549 19.508 117.557 19.524C117.565 19.54 117.581 19.548 117.605 19.548H120.857C120.897 19.548 120.929 19.564 120.953 19.596C120.985 19.62 121.001 19.652 121.001 19.692V20.856C121.001 20.896 120.985 20.932 120.953 20.964C120.929 20.988 120.897 21 120.857 21H115.457C115.417 21 115.381 20.988 115.349 20.964C115.325 20.932 115.313 20.896 115.313 20.856V19.752C115.313 19.68 115.337 19.62 115.385 19.572C115.777 19.188 116.177 18.772 116.585 18.324C116.993 17.868 117.249 17.584 117.353 17.472C117.577 17.208 117.805 16.956 118.037 16.716C118.765 15.908 119.129 15.308 119.129 14.916C119.129 14.636 119.029 14.408 118.829 14.232C118.629 14.048 118.369 13.956 118.049 13.956C117.729 13.956 117.469 14.048 117.269 14.232C117.069 14.408 116.969 14.644 116.969 14.94V15.24C116.969 15.28 116.953 15.316 116.921 15.348C116.897 15.372 116.865 15.384 116.825 15.384H115.409C115.369 15.384 115.333 15.372 115.301 15.348C115.277 15.316 115.265 15.28 115.265 15.24V14.676C115.289 14.244 115.425 13.864 115.673 13.536C115.921 13.2 116.249 12.944 116.657 12.768C117.073 12.592 117.537 12.504 118.049 12.504C118.617 12.504 119.109 12.612 119.525 12.828C119.949 13.036 120.273 13.32 120.497 13.68C120.729 14.04 120.845 14.44 120.845 14.88C120.845 15.216 120.761 15.56 120.593 15.912C120.425 16.264 120.173 16.644 119.837 17.052C119.589 17.364 119.321 17.672 119.033 17.976C118.745 18.28 118.317 18.72 117.749 19.296L117.569 19.476Z" fill="black"/>
<circle cx="354.5" cy="163.5" r="14.5" fill="#2400FF"/>
<path d="M358.632 163.656C358.845 164.147 358.952 164.712 358.952 165.352C358.952 165.928 358.856 166.461 358.664 166.952C358.408 167.635 357.976 168.168 357.368 168.552C356.771 168.936 356.061 169.128 355.24 169.128C354.429 169.128 353.715 168.925 353.096 168.52C352.488 168.115 352.051 167.565 351.784 166.872C351.635 166.456 351.549 166.008 351.528 165.528C351.528 165.4 351.592 165.336 351.72 165.336H353.608C353.736 165.336 353.8 165.4 353.8 165.528C353.843 165.88 353.901 166.141 353.976 166.312C354.072 166.589 354.227 166.808 354.44 166.968C354.664 167.117 354.925 167.192 355.224 167.192C355.821 167.192 356.232 166.931 356.456 166.408C356.605 166.088 356.68 165.715 356.68 165.288C356.68 164.787 356.6 164.376 356.44 164.056C356.195 163.555 355.784 163.304 355.208 163.304C355.091 163.304 354.968 163.341 354.84 163.416C354.712 163.48 354.557 163.576 354.376 163.704C354.333 163.736 354.291 163.752 354.248 163.752C354.184 163.752 354.136 163.72 354.104 163.656L353.16 162.328C353.139 162.296 353.128 162.259 353.128 162.216C353.128 162.152 353.149 162.099 353.192 162.056L355.736 159.832C355.757 159.811 355.763 159.789 355.752 159.768C355.752 159.747 355.736 159.736 355.704 159.736H351.944C351.891 159.736 351.843 159.72 351.8 159.688C351.768 159.645 351.752 159.597 351.752 159.544V157.992C351.752 157.939 351.768 157.896 351.8 157.864C351.843 157.821 351.891 157.8 351.944 157.8H358.616C358.669 157.8 358.712 157.821 358.744 157.864C358.787 157.896 358.808 157.939 358.808 157.992V159.752C358.808 159.837 358.771 159.917 358.696 159.992L356.6 161.912C356.579 161.933 356.568 161.955 356.568 161.976C356.579 161.997 356.605 162.008 356.648 162.008C357.576 162.189 358.237 162.739 358.632 163.656Z" fill="white"/>
<circle cx="354.5" cy="131.5" r="14.5" fill="#2400FF"/>
<path d="M358.736 132.12C358.789 132.12 358.832 132.141 358.864 132.184C358.907 132.216 358.928 132.259 358.928 132.312V133.928C358.928 133.981 358.907 134.029 358.864 134.072C358.832 134.104 358.789 134.12 358.736 134.12H358.048C357.995 134.12 357.968 134.147 357.968 134.2V136.808C357.968 136.861 357.947 136.909 357.904 136.952C357.872 136.984 357.829 137 357.776 137H355.904C355.851 137 355.803 136.984 355.76 136.952C355.728 136.909 355.712 136.861 355.712 136.808V134.2C355.712 134.147 355.685 134.12 355.632 134.12H350.72C350.667 134.12 350.619 134.104 350.576 134.072C350.544 134.029 350.528 133.981 350.528 133.928V132.648C350.528 132.584 350.544 132.504 350.576 132.408L353.456 125.944C353.499 125.848 353.573 125.8 353.68 125.8H355.68C355.755 125.8 355.803 125.821 355.824 125.864C355.856 125.896 355.856 125.949 355.824 126.024L353.152 132.024C353.141 132.045 353.141 132.067 353.152 132.088C353.163 132.109 353.179 132.12 353.2 132.12H355.632C355.685 132.12 355.712 132.093 355.712 132.04V130.056C355.712 130.003 355.728 129.96 355.76 129.928C355.803 129.885 355.851 129.864 355.904 129.864H357.776C357.829 129.864 357.872 129.885 357.904 129.928C357.947 129.96 357.968 130.003 357.968 130.056V132.04C357.968 132.093 357.995 132.12 358.048 132.12H358.736Z" fill="white"/>
<circle cx="236.5" cy="102.5" r="14.5" fill="#2400FF"/>
<path d="M236.728 105.968C236.707 105.989 236.701 106.011 236.712 106.032C236.723 106.053 236.744 106.064 236.776 106.064H241.112C241.165 106.064 241.208 106.085 241.24 106.128C241.283 106.16 241.304 106.203 241.304 106.256V107.808C241.304 107.861 241.283 107.909 241.24 107.952C241.208 107.984 241.165 108 241.112 108H233.912C233.859 108 233.811 107.984 233.768 107.952C233.736 107.909 233.72 107.861 233.72 107.808V106.336C233.72 106.24 233.752 106.16 233.816 106.096C234.339 105.584 234.872 105.029 235.416 104.432C235.96 103.824 236.301 103.445 236.44 103.296C236.739 102.944 237.043 102.608 237.352 102.288C238.323 101.211 238.808 100.411 238.808 99.888C238.808 99.5147 238.675 99.2107 238.408 98.976C238.141 98.7307 237.795 98.608 237.368 98.608C236.941 98.608 236.595 98.7307 236.328 98.976C236.061 99.2107 235.928 99.5253 235.928 99.92V100.32C235.928 100.373 235.907 100.421 235.864 100.464C235.832 100.496 235.789 100.512 235.736 100.512H233.848C233.795 100.512 233.747 100.496 233.704 100.464C233.672 100.421 233.656 100.373 233.656 100.32V99.568C233.688 98.992 233.869 98.4853 234.2 98.048C234.531 97.6 234.968 97.2587 235.512 97.024C236.067 96.7893 236.685 96.672 237.368 96.672C238.125 96.672 238.781 96.816 239.336 97.104C239.901 97.3813 240.333 97.76 240.632 98.24C240.941 98.72 241.096 99.2533 241.096 99.84C241.096 100.288 240.984 100.747 240.76 101.216C240.536 101.685 240.2 102.192 239.752 102.736C239.421 103.152 239.064 103.563 238.68 103.968C238.296 104.373 237.725 104.96 236.968 105.728L236.728 105.968Z" fill="white"/>
<path d="M52 76.5C52 80.5 39.7467 86 34.5 86C29.2533 86 25 81.7467 25 76.5C25 71.2533 29.2533 67 34.5 67C39.7467 67 52 73 52 76.5Z" fill="#7F00FF"/>
<path d="M37.564 72.224C37.564 72.304 37.524 72.344 37.444 72.344H33.028C32.996 72.344 32.98 72.36 32.98 72.392V75.356C32.98 75.388 32.996 75.404 33.028 75.404H36.124C36.204 75.404 36.244 75.444 36.244 75.524V76.028C36.244 76.108 36.204 76.148 36.124 76.148H33.028C32.996 76.148 32.98 76.164 32.98 76.196V79.208C32.98 79.24 32.996 79.256 33.028 79.256H37.444C37.524 79.256 37.564 79.296 37.564 79.376V79.88C37.564 79.96 37.524 80 37.444 80H32.248C32.168 80 32.128 79.96 32.128 79.88V71.72C32.128 71.64 32.168 71.6 32.248 71.6H37.444C37.524 71.6 37.564 71.64 37.564 71.72V72.224Z" fill="white"/>
<path d="M52 101.5C52 105.5 39.7467 111 34.5 111C29.2533 111 25 106.747 25 101.5C25 96.2533 29.2533 92 34.5 92C39.7467 92 52 98 52 101.5Z" fill="#7F00FF"/>
<path d="M36.34 100.62C36.3 100.644 36.3 100.668 36.34 100.692C36.772 100.868 37.1 101.128 37.324 101.472C37.548 101.816 37.66 102.232 37.66 102.72C37.66 103.44 37.428 104 36.964 104.4C36.508 104.8 35.904 105 35.152 105H32.248C32.168 105 32.128 104.96 32.128 104.88V96.72C32.128 96.64 32.168 96.6 32.248 96.6H35.068C35.844 96.6 36.452 96.792 36.892 97.176C37.34 97.56 37.564 98.1 37.564 98.796C37.564 99.236 37.456 99.612 37.24 99.924C37.032 100.228 36.732 100.46 36.34 100.62ZM33.028 97.344C32.996 97.344 32.98 97.36 32.98 97.392V100.272C32.98 100.304 32.996 100.32 33.028 100.32H35.068C35.572 100.32 35.972 100.188 36.268 99.924C36.572 99.66 36.724 99.308 36.724 98.868C36.724 98.404 36.572 98.036 36.268 97.764C35.972 97.484 35.572 97.344 35.068 97.344H33.028ZM35.152 104.244C35.656 104.244 36.056 104.1 36.352 103.812C36.656 103.524 36.808 103.136 36.808 102.648C36.808 102.16 36.652 101.772 36.34 101.484C36.036 101.188 35.624 101.04 35.104 101.04H33.028C32.996 101.04 32.98 101.056 32.98 101.088V104.196C32.98 104.228 32.996 104.244 33.028 104.244H35.152Z" fill="white"/>
<path d="M52 131.5C52 135.5 39.7467 141 34.5 141C29.2533 141 25 136.747 25 131.5C25 126.253 29.2533 122 34.5 122C39.7467 122 52 128 52 131.5Z" fill="#7F00FF"/>
<path d="M34.684 135.096C34.124 135.096 33.632 134.988 33.208 134.772C32.784 134.548 32.452 134.236 32.212 133.836C31.98 133.436 31.864 132.976 31.864 132.456V129.144C31.864 128.624 31.98 128.164 32.212 127.764C32.452 127.364 32.784 127.056 33.208 126.84C33.632 126.616 34.124 126.504 34.684 126.504C35.236 126.504 35.724 126.612 36.148 126.828C36.58 127.044 36.912 127.348 37.144 127.74C37.376 128.124 37.492 128.56 37.492 129.048V129.204C37.492 129.284 37.452 129.324 37.372 129.324H36.76C36.68 129.324 36.64 129.284 36.64 129.204V129.06C36.64 128.524 36.46 128.088 36.1 127.752C35.748 127.416 35.276 127.248 34.684 127.248C34.092 127.248 33.616 127.42 33.256 127.764C32.896 128.108 32.716 128.56 32.716 129.12V132.48C32.716 133.04 32.9 133.492 33.268 133.836C33.636 134.18 34.12 134.352 34.72 134.352C35.304 134.352 35.768 134.192 36.112 133.872C36.464 133.552 36.64 133.124 36.64 132.588V131.496C36.64 131.464 36.624 131.448 36.592 131.448H34.828C34.748 131.448 34.708 131.408 34.708 131.328V130.824C34.708 130.744 34.748 130.704 34.828 130.704H37.372C37.452 130.704 37.492 130.744 37.492 130.824V132.372C37.492 133.228 37.236 133.896 36.724 134.376C36.22 134.856 35.54 135.096 34.684 135.096Z" fill="white"/>
<path d="M52 161.5C52 165.5 39.7467 171 34.5 171C29.2533 171 25 166.747 25 161.5C25 156.253 29.2533 152 34.5 152C39.7467 152 52 158 52 161.5Z" fill="#7F00FF"/>
<path d="M32.248 165C32.168 165 32.128 164.96 32.128 164.88V156.72C32.128 156.64 32.168 156.6 32.248 156.6H35.08C35.872 156.6 36.5 156.808 36.964 157.224C37.436 157.64 37.672 158.204 37.672 158.916V162.684C37.672 163.396 37.436 163.96 36.964 164.376C36.5 164.792 35.872 165 35.08 165H32.248ZM32.98 164.208C32.98 164.24 32.996 164.256 33.028 164.256H35.116C35.636 164.256 36.048 164.104 36.352 163.8C36.664 163.496 36.82 163.088 36.82 162.576V159.036C36.82 158.516 36.668 158.104 36.364 157.8C36.06 157.496 35.644 157.344 35.116 157.344H33.028C32.996 157.344 32.98 157.36 32.98 157.392V164.208Z" fill="white"/>
<path d="M52 190.5C52 194.5 39.7467 200 34.5 200C29.2533 200 25 195.747 25 190.5C25 185.253 29.2533 181 34.5 181C39.7467 181 52 187 52 190.5Z" fill="#7F00FF"/>
<path d="M37.108 194C37.036 194 36.988 193.968 36.964 193.904L36.484 192.392C36.476 192.368 36.46 192.356 36.436 192.356H32.848C32.824 192.356 32.808 192.368 32.8 192.392L32.32 193.904C32.296 193.968 32.248 194 32.176 194H31.528C31.44 194 31.408 193.956 31.432 193.868L34.084 185.696C34.108 185.632 34.156 185.6 34.228 185.6H35.044C35.116 185.6 35.164 185.632 35.188 185.696L37.852 193.868L37.864 193.916C37.864 193.972 37.828 194 37.756 194H37.108ZM33.04 191.6C33.032 191.616 33.032 191.632 33.04 191.648C33.056 191.656 33.072 191.66 33.088 191.66H36.184C36.2 191.66 36.212 191.656 36.22 191.648C36.236 191.632 36.24 191.616 36.232 191.6L34.672 186.704C34.664 186.688 34.652 186.68 34.636 186.68C34.62 186.68 34.608 186.688 34.6 186.704L33.04 191.6Z" fill="white"/>
<path d="M52 215.5C52 219.5 39.7467 225 34.5 225C29.2533 225 25 220.747 25 215.5C25 210.253 29.2533 206 34.5 206C39.7467 206 52 212 52 215.5Z" fill="#5F5F5F"/>
<path d="M37.564 211.224C37.564 211.304 37.524 211.344 37.444 211.344H33.028C32.996 211.344 32.98 211.36 32.98 211.392V214.356C32.98 214.388 32.996 214.404 33.028 214.404H36.124C36.204 214.404 36.244 214.444 36.244 214.524V215.028C36.244 215.108 36.204 215.148 36.124 215.148H33.028C32.996 215.148 32.98 215.164 32.98 215.196V218.208C32.98 218.24 32.996 218.256 33.028 218.256H37.444C37.524 218.256 37.564 218.296 37.564 218.376V218.88C37.564 218.96 37.524 219 37.444 219H32.248C32.168 219 32.128 218.96 32.128 218.88V210.72C32.128 210.64 32.168 210.6 32.248 210.6H37.444C37.524 210.6 37.564 210.64 37.564 210.72V211.224Z" fill="white"/>
<path d="M96 69.1559L125 68.2695V185.245C125 193.253 118.508 199.745 110.5 199.745V199.745C102.492 199.745 96 193.253 96 185.245V69.1559Z" fill="#8CACFF"/>
<circle cx="110.5" cy="189.246" r="14.5" fill="#2400FF"/>
<path d="M110.4 183.594C110.453 183.562 110.533 183.546 110.64 183.546H112.576C112.629 183.546 112.672 183.567 112.704 183.61C112.747 183.642 112.768 183.685 112.768 183.738V194.554C112.768 194.607 112.747 194.655 112.704 194.698C112.672 194.73 112.629 194.746 112.576 194.746H110.704C110.651 194.746 110.603 194.73 110.56 194.698C110.528 194.655 110.512 194.607 110.512 194.554V185.786C110.512 185.765 110.501 185.743 110.48 185.722C110.459 185.701 110.437 185.695 110.416 185.706L108.832 186.138L108.768 186.154C108.672 186.154 108.624 186.095 108.624 185.978L108.576 184.602C108.576 184.495 108.624 184.421 108.72 184.378L110.4 183.594Z" fill="white"/>
</g>
<defs>
<linearGradient id="paint0_linear_508_494" x1="45.6016" y1="138.743" x2="33.6786" y2="138.743" gradientUnits="userSpaceOnUse">
<stop stop-color="#D9D9D9"/>
<stop offset="1" stop-color="#D9D9D9" stop-opacity="0"/>
</linearGradient>
<linearGradient id="paint1_linear_508_494" x1="175.14" y1="138.743" x2="165.602" y2="138.743" gradientUnits="userSpaceOnUse">
<stop stop-color="#D9D9D9"/>
<stop offset="1" stop-color="#D9D9D9" stop-opacity="0"/>
</linearGradient>
<linearGradient id="paint2_linear_508_494" x1="291.14" y1="134.16" x2="281.602" y2="134.16" gradientUnits="userSpaceOnUse">
<stop stop-color="#D9D9D9"/>
<stop offset="1" stop-color="#D9D9D9" stop-opacity="0"/>
</linearGradient>
<linearGradient id="paint3_linear_508_494" x1="405.14" y1="134.081" x2="395.602" y2="134.081" gradientUnits="userSpaceOnUse">
<stop stop-color="#D9D9D9"/>
<stop offset="1" stop-color="#D9D9D9" stop-opacity="0"/>
</linearGradient>
</defs>
</svg>
