<svg width="430" height="234" viewBox="0 0 430 234" fill="none" xmlns="http://www.w3.org/2000/svg">
<mask id="mask0_508_72" style="mask-type:alpha" maskUnits="userSpaceOnUse" x="0" y="0" width="430" height="234">
<rect width="430" height="234" fill="#D9D9D9"/>
</mask>
<g mask="url(#mask0_508_72)">
<path d="M-0.70459 232.958V63.1257C15.6574 71.8778 27.2304 71.982 34.713 71.982L430.293 60V234L34.713 221.497C20.3465 221.497 5.11521 230.527 -0.70459 232.958Z" fill="#232323"/>
<mask id="mask1_508_72" style="mask-type:alpha" maskUnits="userSpaceOnUse" x="-61" y="92" width="92" height="110">
<path d="M3.43386 92.2704L19.8477 125.257L30.6712 147.489L14.549 179.291L3.78564 201.062L-27.9894 190.286L-60.0792 180.492L-59.6734 146.872L-60.2966 113.255L-28.2708 103.253L3.43386 92.2704Z" fill="#404040"/>
</mask>
<g mask="url(#mask1_508_72)">
<rect x="-0.705078" y="55" width="67.8422" height="167" fill="#404040"/>
</g>
<ellipse cx="6.77789" cy="122.5" rx="4.48956" ry="4.5" fill="#D9D9D9"/>
<path fill-rule="evenodd" clip-rule="evenodd" d="M5.6937 124.437C5.6937 124.989 6.14141 125.437 6.6937 125.437C7.24598 125.437 7.6937 124.989 7.6937 124.437V123.415H8.71056C9.26284 123.415 9.71056 122.968 9.71056 122.415C9.71056 121.863 9.26284 121.415 8.71056 121.415H7.6937V120.562C7.6937 120.01 7.24598 119.562 6.6937 119.562C6.14141 119.563 5.6937 120.01 5.6937 120.563V121.415H4.84521C4.29293 121.415 3.84521 121.863 3.84521 122.415C3.84521 122.968 4.29293 123.415 4.84521 123.415H5.6937V124.437Z" fill="black"/>
<ellipse cx="7.77569" cy="172.5" rx="4.48956" ry="4.5" fill="#D9D9D9"/>
<g filter="url(#filter0_d_508_72)">
<path fill-rule="evenodd" clip-rule="evenodd" d="M6.69126 174.437C6.69126 174.989 7.13897 175.437 7.69126 175.437C8.24354 175.437 8.69126 174.989 8.69126 174.437V173.415H9.70812C10.2604 173.415 10.7081 172.968 10.7081 172.415C10.7081 171.863 10.2604 171.415 9.70812 171.415H8.69126V170.562C8.69126 170.01 8.24354 169.562 7.69126 169.562C7.13897 169.563 6.69126 170.01 6.69126 170.563V171.415H5.84277C5.29049 171.415 4.84277 171.863 4.84277 172.415C4.84277 172.968 5.29049 173.415 5.84277 173.415H6.69126V174.437Z" fill="black"/>
</g>
<path d="M52.1725 71L37.2073 71.5117V221.362L52.1725 222V71Z" fill="url(#paint0_linear_508_72)"/>
<path d="M179.875 67.583L167.903 67.9539V225.705L179.875 226.109V67.583Z" fill="url(#paint1_linear_508_72)"/>
<path d="M295.606 64.0791L283.634 64.4395V229.363L295.606 229.75V64.0791Z" fill="url(#paint2_linear_508_72)"/>
<path d="M409.342 60.6328L397.37 61.0007V232.961L409.342 233.34V60.6328Z" fill="url(#paint3_linear_508_72)"/>
<line y1="-2" x2="429.013" y2="-2" transform="matrix(-0.999976 -0.0069928 -0.00696039 0.999976 428.005 195)" stroke="#7F00FF" stroke-width="4"/>
<line y1="-2" x2="429.013" y2="-2" transform="matrix(-0.999976 -0.0069928 -0.00696039 0.999976 428.005 195)" stroke="#7F00FF" stroke-width="4"/>
<line y1="-2" x2="429.013" y2="-2" transform="matrix(-0.999976 -0.0069928 -0.00696039 0.999976 428.005 195)" stroke="#7F00FF" stroke-width="4"/>
<line y1="-2" x2="429.013" y2="-2" transform="matrix(-0.999976 -0.0069928 -0.00696039 0.999976 428.005 195)" stroke="#7F00FF" stroke-width="4"/>
<line y1="-2" x2="429.013" y2="-2" transform="matrix(-0.999976 -0.0069928 -0.00696039 0.999976 428.005 195)" stroke="#7F00FF" stroke-width="4"/>
<line y1="-1" x2="434.064" y2="-1" transform="matrix(-0.99983 -0.0184304 -0.018345 0.999832 428.005 225)" stroke="#5F5F5F" stroke-width="2"/>
<path d="M428.005 162.5L26.9373 162L-1.99536 165" stroke="#7F00FF" stroke-width="4"/>
<path d="M428.005 131.2L24.942 132.5L-3.49189 129" stroke="#7F00FF" stroke-width="4"/>
<path d="M428.005 100L19.4547 103.5L-3.49189 102" stroke="#7F00FF" stroke-width="4"/>
<path d="M-0.498779 81L32.4247 77.5L428.005 71.5" stroke="#7F00FF" stroke-width="4"/>
<path d="M367.326 16.5902C367.326 25.7527 355.665 46 350.774 46C345.884 46 334.223 25.7527 334.223 16.5902C334.223 7.42767 341.633 0 350.774 0C359.916 0 367.326 7.42767 367.326 16.5902Z" fill="white"/>
<path d="M343.768 14.908C343.768 14.948 343.752 14.984 343.72 15.016C343.696 15.04 343.664 15.052 343.624 15.052H339.7C339.66 15.052 339.64 15.072 339.64 15.112V16.972C339.64 17.012 339.66 17.032 339.7 17.032H342.28C342.32 17.032 342.352 17.048 342.376 17.08C342.408 17.104 342.424 17.136 342.424 17.176V18.34C342.424 18.38 342.408 18.416 342.376 18.448C342.352 18.472 342.32 18.484 342.28 18.484H339.7C339.66 18.484 339.64 18.504 339.64 18.544V21.856C339.64 21.896 339.624 21.932 339.592 21.964C339.568 21.988 339.536 22 339.496 22H338.092C338.052 22 338.016 21.988 337.984 21.964C337.96 21.932 337.948 21.896 337.948 21.856V13.744C337.948 13.704 337.96 13.672 337.984 13.648C338.016 13.616 338.052 13.6 338.092 13.6H343.624C343.664 13.6 343.696 13.616 343.72 13.648C343.752 13.672 343.768 13.704 343.768 13.744V14.908ZM347.275 15.748C347.563 15.748 347.791 15.804 347.959 15.916C348.023 15.948 348.047 16.008 348.031 16.096L347.779 17.464C347.771 17.56 347.715 17.588 347.611 17.548C347.491 17.508 347.351 17.488 347.191 17.488C347.127 17.488 347.039 17.496 346.927 17.512C346.639 17.536 346.395 17.644 346.195 17.836C345.995 18.02 345.895 18.268 345.895 18.58V21.856C345.895 21.896 345.879 21.932 345.847 21.964C345.823 21.988 345.791 22 345.751 22H344.347C344.307 22 344.271 21.988 344.239 21.964C344.215 21.932 344.203 21.896 344.203 21.856V15.976C344.203 15.936 344.215 15.904 344.239 15.88C344.271 15.848 344.307 15.832 344.347 15.832H345.751C345.791 15.832 345.823 15.848 345.847 15.88C345.879 15.904 345.895 15.936 345.895 15.976V16.432C345.895 16.456 345.903 16.472 345.919 16.48C345.935 16.488 345.947 16.484 345.955 16.468C346.283 15.988 346.723 15.748 347.275 15.748ZM354.105 18.28C354.153 18.584 354.169 18.924 354.153 19.3C354.145 19.396 354.093 19.444 353.997 19.444H350.289C350.241 19.444 350.225 19.464 350.241 19.504C350.265 19.664 350.309 19.824 350.373 19.984C350.581 20.432 351.005 20.656 351.645 20.656C352.157 20.648 352.561 20.44 352.857 20.032C352.889 19.984 352.925 19.96 352.965 19.96C352.989 19.96 353.017 19.976 353.049 20.008L353.913 20.86C353.953 20.9 353.973 20.936 353.973 20.968C353.973 20.984 353.957 21.016 353.925 21.064C353.661 21.392 353.321 21.648 352.905 21.832C352.489 22.008 352.033 22.096 351.537 22.096C350.849 22.096 350.265 21.94 349.785 21.628C349.313 21.316 348.973 20.88 348.765 20.32C348.597 19.92 348.513 19.396 348.513 18.748C348.513 18.308 348.573 17.92 348.693 17.584C348.877 17.016 349.197 16.564 349.653 16.228C350.117 15.892 350.665 15.724 351.297 15.724C352.097 15.724 352.737 15.956 353.217 16.42C353.705 16.884 354.001 17.504 354.105 18.28ZM351.309 17.188C350.805 17.188 350.473 17.424 350.313 17.896C350.281 18 350.253 18.128 350.229 18.28C350.229 18.32 350.249 18.34 350.289 18.34H352.365C352.413 18.34 352.429 18.32 352.413 18.28C352.373 18.048 352.353 17.936 352.353 17.944C352.281 17.704 352.153 17.52 351.969 17.392C351.793 17.256 351.573 17.188 351.309 17.188ZM358.595 17.044C358.595 17.084 358.579 17.12 358.547 17.152C358.523 17.176 358.491 17.188 358.451 17.188H357.299C357.259 17.188 357.239 17.208 357.239 17.248V19.792C357.239 20.056 357.291 20.252 357.395 20.38C357.507 20.508 357.683 20.572 357.923 20.572H358.319C358.359 20.572 358.391 20.588 358.415 20.62C358.447 20.644 358.463 20.676 358.463 20.716V21.856C358.463 21.944 358.415 21.996 358.319 22.012C357.983 22.028 357.743 22.036 357.599 22.036C356.935 22.036 356.439 21.928 356.111 21.712C355.783 21.488 355.615 21.072 355.607 20.464V17.248C355.607 17.208 355.587 17.188 355.547 17.188H354.863C354.823 17.188 354.787 17.176 354.755 17.152C354.731 17.12 354.719 17.084 354.719 17.044V15.976C354.719 15.936 354.731 15.904 354.755 15.88C354.787 15.848 354.823 15.832 354.863 15.832H355.547C355.587 15.832 355.607 15.812 355.607 15.772V14.344C355.607 14.304 355.619 14.272 355.643 14.248C355.675 14.216 355.711 14.2 355.751 14.2H357.095C357.135 14.2 357.167 14.216 357.191 14.248C357.223 14.272 357.239 14.304 357.239 14.344V15.772C357.239 15.812 357.259 15.832 357.299 15.832H358.451C358.491 15.832 358.523 15.848 358.547 15.88C358.579 15.904 358.595 15.936 358.595 15.976V17.044ZM364.713 17.992C364.873 18.36 364.953 18.784 364.953 19.264C364.953 19.696 364.881 20.096 364.737 20.464C364.545 20.976 364.221 21.376 363.765 21.664C363.317 21.952 362.785 22.096 362.169 22.096C361.561 22.096 361.025 21.944 360.561 21.64C360.105 21.336 359.777 20.924 359.577 20.404C359.465 20.092 359.401 19.756 359.385 19.396C359.385 19.3 359.433 19.252 359.529 19.252H360.945C361.041 19.252 361.089 19.3 361.089 19.396C361.121 19.66 361.165 19.856 361.221 19.984C361.293 20.192 361.409 20.356 361.569 20.476C361.737 20.588 361.933 20.644 362.157 20.644C362.605 20.644 362.913 20.448 363.081 20.056C363.193 19.816 363.249 19.536 363.249 19.216C363.249 18.84 363.189 18.532 363.069 18.292C362.885 17.916 362.577 17.728 362.145 17.728C362.057 17.728 361.965 17.756 361.869 17.812C361.773 17.86 361.657 17.932 361.521 18.028C361.489 18.052 361.457 18.064 361.425 18.064C361.377 18.064 361.341 18.04 361.317 17.992L360.609 16.996C360.593 16.972 360.585 16.944 360.585 16.912C360.585 16.864 360.601 16.824 360.633 16.792L362.541 15.124C362.557 15.108 362.561 15.092 362.553 15.076C362.553 15.06 362.541 15.052 362.517 15.052H359.697C359.657 15.052 359.621 15.04 359.589 15.016C359.565 14.984 359.553 14.948 359.553 14.908V13.744C359.553 13.704 359.565 13.672 359.589 13.648C359.621 13.616 359.657 13.6 359.697 13.6H364.701C364.741 13.6 364.773 13.616 364.797 13.648C364.829 13.672 364.845 13.704 364.845 13.744V15.064C364.845 15.128 364.817 15.188 364.761 15.244L363.189 16.684C363.173 16.7 363.165 16.716 363.165 16.732C363.173 16.748 363.193 16.756 363.225 16.756C363.921 16.892 364.417 17.304 364.713 17.992Z" fill="black"/>
<path d="M247.605 16.5902C247.605 25.7527 235.943 46 231.053 46C226.163 46 214.501 25.7527 214.501 16.5902C214.501 7.42767 221.912 0 231.053 0C240.194 0 247.605 7.42767 247.605 16.5902Z" fill="white"/>
<path d="M224.046 14.908C224.046 14.948 224.03 14.984 223.998 15.016C223.974 15.04 223.942 15.052 223.902 15.052H219.978C219.938 15.052 219.918 15.072 219.918 15.112V16.972C219.918 17.012 219.938 17.032 219.978 17.032H222.558C222.598 17.032 222.63 17.048 222.654 17.08C222.686 17.104 222.702 17.136 222.702 17.176V18.34C222.702 18.38 222.686 18.416 222.654 18.448C222.63 18.472 222.598 18.484 222.558 18.484H219.978C219.938 18.484 219.918 18.504 219.918 18.544V21.856C219.918 21.896 219.902 21.932 219.87 21.964C219.846 21.988 219.814 22 219.774 22H218.37C218.33 22 218.294 21.988 218.262 21.964C218.238 21.932 218.226 21.896 218.226 21.856V13.744C218.226 13.704 218.238 13.672 218.262 13.648C218.294 13.616 218.33 13.6 218.37 13.6H223.902C223.942 13.6 223.974 13.616 223.998 13.648C224.03 13.672 224.046 13.704 224.046 13.744V14.908ZM227.553 15.748C227.841 15.748 228.069 15.804 228.237 15.916C228.301 15.948 228.325 16.008 228.309 16.096L228.057 17.464C228.049 17.56 227.993 17.588 227.889 17.548C227.769 17.508 227.629 17.488 227.469 17.488C227.405 17.488 227.317 17.496 227.205 17.512C226.917 17.536 226.673 17.644 226.473 17.836C226.273 18.02 226.173 18.268 226.173 18.58V21.856C226.173 21.896 226.157 21.932 226.125 21.964C226.101 21.988 226.069 22 226.029 22H224.625C224.585 22 224.549 21.988 224.517 21.964C224.493 21.932 224.481 21.896 224.481 21.856V15.976C224.481 15.936 224.493 15.904 224.517 15.88C224.549 15.848 224.585 15.832 224.625 15.832H226.029C226.069 15.832 226.101 15.848 226.125 15.88C226.157 15.904 226.173 15.936 226.173 15.976V16.432C226.173 16.456 226.181 16.472 226.197 16.48C226.213 16.488 226.225 16.484 226.233 16.468C226.561 15.988 227.001 15.748 227.553 15.748ZM234.383 18.28C234.431 18.584 234.447 18.924 234.431 19.3C234.423 19.396 234.371 19.444 234.275 19.444H230.567C230.519 19.444 230.503 19.464 230.519 19.504C230.543 19.664 230.587 19.824 230.651 19.984C230.859 20.432 231.283 20.656 231.923 20.656C232.435 20.648 232.839 20.44 233.135 20.032C233.167 19.984 233.203 19.96 233.243 19.96C233.267 19.96 233.295 19.976 233.327 20.008L234.191 20.86C234.231 20.9 234.251 20.936 234.251 20.968C234.251 20.984 234.235 21.016 234.203 21.064C233.939 21.392 233.599 21.648 233.183 21.832C232.767 22.008 232.311 22.096 231.815 22.096C231.127 22.096 230.543 21.94 230.063 21.628C229.591 21.316 229.251 20.88 229.043 20.32C228.875 19.92 228.791 19.396 228.791 18.748C228.791 18.308 228.851 17.92 228.971 17.584C229.155 17.016 229.475 16.564 229.931 16.228C230.395 15.892 230.943 15.724 231.575 15.724C232.375 15.724 233.015 15.956 233.495 16.42C233.983 16.884 234.279 17.504 234.383 18.28ZM231.587 17.188C231.083 17.188 230.751 17.424 230.591 17.896C230.559 18 230.531 18.128 230.507 18.28C230.507 18.32 230.527 18.34 230.567 18.34H232.643C232.691 18.34 232.707 18.32 232.691 18.28C232.651 18.048 232.631 17.936 232.631 17.944C232.559 17.704 232.431 17.52 232.247 17.392C232.071 17.256 231.851 17.188 231.587 17.188ZM238.873 17.044C238.873 17.084 238.857 17.12 238.825 17.152C238.801 17.176 238.769 17.188 238.729 17.188H237.577C237.537 17.188 237.517 17.208 237.517 17.248V19.792C237.517 20.056 237.569 20.252 237.673 20.38C237.785 20.508 237.961 20.572 238.201 20.572H238.597C238.637 20.572 238.669 20.588 238.693 20.62C238.725 20.644 238.741 20.676 238.741 20.716V21.856C238.741 21.944 238.693 21.996 238.597 22.012C238.261 22.028 238.021 22.036 237.877 22.036C237.213 22.036 236.717 21.928 236.389 21.712C236.061 21.488 235.893 21.072 235.885 20.464V17.248C235.885 17.208 235.865 17.188 235.825 17.188H235.141C235.101 17.188 235.065 17.176 235.033 17.152C235.009 17.12 234.997 17.084 234.997 17.044V15.976C234.997 15.936 235.009 15.904 235.033 15.88C235.065 15.848 235.101 15.832 235.141 15.832H235.825C235.865 15.832 235.885 15.812 235.885 15.772V14.344C235.885 14.304 235.897 14.272 235.921 14.248C235.953 14.216 235.989 14.2 236.029 14.2H237.373C237.413 14.2 237.445 14.216 237.469 14.248C237.501 14.272 237.517 14.304 237.517 14.344V15.772C237.517 15.812 237.537 15.832 237.577 15.832H238.729C238.769 15.832 238.801 15.848 238.825 15.88C238.857 15.904 238.873 15.936 238.873 15.976V17.044ZM242.064 20.476C242.048 20.492 242.044 20.508 242.052 20.524C242.06 20.54 242.076 20.548 242.1 20.548H245.352C245.392 20.548 245.424 20.564 245.448 20.596C245.48 20.62 245.496 20.652 245.496 20.692V21.856C245.496 21.896 245.48 21.932 245.448 21.964C245.424 21.988 245.392 22 245.352 22H239.952C239.912 22 239.876 21.988 239.844 21.964C239.82 21.932 239.808 21.896 239.808 21.856V20.752C239.808 20.68 239.832 20.62 239.88 20.572C240.272 20.188 240.672 19.772 241.08 19.324C241.488 18.868 241.744 18.584 241.848 18.472C242.072 18.208 242.3 17.956 242.532 17.716C243.26 16.908 243.624 16.308 243.624 15.916C243.624 15.636 243.524 15.408 243.324 15.232C243.124 15.048 242.864 14.956 242.544 14.956C242.224 14.956 241.964 15.048 241.764 15.232C241.564 15.408 241.464 15.644 241.464 15.94V16.24C241.464 16.28 241.448 16.316 241.416 16.348C241.392 16.372 241.36 16.384 241.32 16.384H239.904C239.864 16.384 239.828 16.372 239.796 16.348C239.772 16.316 239.76 16.28 239.76 16.24V15.676C239.784 15.244 239.92 14.864 240.168 14.536C240.416 14.2 240.744 13.944 241.152 13.768C241.568 13.592 242.032 13.504 242.544 13.504C243.112 13.504 243.604 13.612 244.02 13.828C244.444 14.036 244.768 14.32 244.992 14.68C245.224 15.04 245.34 15.44 245.34 15.88C245.34 16.216 245.256 16.56 245.088 16.912C244.92 17.264 244.668 17.644 244.332 18.052C244.084 18.364 243.816 18.672 243.528 18.976C243.24 19.28 242.812 19.72 242.244 20.296L242.064 20.476Z" fill="black"/>
<path d="M122.895 16.5902C122.895 25.7527 111.233 46 106.343 46C101.453 46 89.7913 25.7527 89.7913 16.5902C89.7913 7.42767 97.2017 0 106.343 0C115.484 0 122.895 7.42767 122.895 16.5902Z" fill="white"/>
<path d="M99.3362 14.908C99.3362 14.948 99.3202 14.984 99.2882 15.016C99.2642 15.04 99.2322 15.052 99.1922 15.052H95.2682C95.2282 15.052 95.2082 15.072 95.2082 15.112V16.972C95.2082 17.012 95.2282 17.032 95.2682 17.032H97.8482C97.8882 17.032 97.9202 17.048 97.9442 17.08C97.9762 17.104 97.9922 17.136 97.9922 17.176V18.34C97.9922 18.38 97.9762 18.416 97.9442 18.448C97.9202 18.472 97.8882 18.484 97.8482 18.484H95.2682C95.2282 18.484 95.2082 18.504 95.2082 18.544V21.856C95.2082 21.896 95.1922 21.932 95.1602 21.964C95.1362 21.988 95.1042 22 95.0642 22H93.6602C93.6202 22 93.5842 21.988 93.5522 21.964C93.5282 21.932 93.5162 21.896 93.5162 21.856V13.744C93.5162 13.704 93.5282 13.672 93.5522 13.648C93.5842 13.616 93.6202 13.6 93.6602 13.6H99.1922C99.2322 13.6 99.2642 13.616 99.2882 13.648C99.3202 13.672 99.3362 13.704 99.3362 13.744V14.908ZM102.843 15.748C103.131 15.748 103.359 15.804 103.527 15.916C103.591 15.948 103.615 16.008 103.599 16.096L103.347 17.464C103.339 17.56 103.283 17.588 103.179 17.548C103.059 17.508 102.919 17.488 102.759 17.488C102.695 17.488 102.607 17.496 102.495 17.512C102.207 17.536 101.963 17.644 101.763 17.836C101.563 18.02 101.463 18.268 101.463 18.58V21.856C101.463 21.896 101.447 21.932 101.415 21.964C101.391 21.988 101.359 22 101.319 22H99.9155C99.8755 22 99.8395 21.988 99.8075 21.964C99.7835 21.932 99.7715 21.896 99.7715 21.856V15.976C99.7715 15.936 99.7835 15.904 99.8075 15.88C99.8395 15.848 99.8755 15.832 99.9155 15.832H101.319C101.359 15.832 101.391 15.848 101.415 15.88C101.447 15.904 101.463 15.936 101.463 15.976V16.432C101.463 16.456 101.471 16.472 101.487 16.48C101.503 16.488 101.515 16.484 101.523 16.468C101.851 15.988 102.291 15.748 102.843 15.748ZM109.673 18.28C109.721 18.584 109.737 18.924 109.721 19.3C109.713 19.396 109.661 19.444 109.565 19.444H105.857C105.809 19.444 105.793 19.464 105.809 19.504C105.833 19.664 105.877 19.824 105.941 19.984C106.149 20.432 106.573 20.656 107.213 20.656C107.725 20.648 108.129 20.44 108.425 20.032C108.457 19.984 108.493 19.96 108.533 19.96C108.557 19.96 108.585 19.976 108.617 20.008L109.481 20.86C109.521 20.9 109.541 20.936 109.541 20.968C109.541 20.984 109.525 21.016 109.493 21.064C109.229 21.392 108.889 21.648 108.473 21.832C108.057 22.008 107.601 22.096 107.105 22.096C106.417 22.096 105.833 21.94 105.353 21.628C104.881 21.316 104.541 20.88 104.333 20.32C104.165 19.92 104.081 19.396 104.081 18.748C104.081 18.308 104.141 17.92 104.261 17.584C104.445 17.016 104.765 16.564 105.221 16.228C105.685 15.892 106.233 15.724 106.865 15.724C107.665 15.724 108.305 15.956 108.785 16.42C109.273 16.884 109.569 17.504 109.673 18.28ZM106.877 17.188C106.373 17.188 106.041 17.424 105.881 17.896C105.849 18 105.821 18.128 105.797 18.28C105.797 18.32 105.817 18.34 105.857 18.34H107.933C107.981 18.34 107.997 18.32 107.981 18.28C107.941 18.048 107.921 17.936 107.921 17.944C107.849 17.704 107.721 17.52 107.537 17.392C107.361 17.256 107.141 17.188 106.877 17.188ZM114.163 17.044C114.163 17.084 114.147 17.12 114.115 17.152C114.091 17.176 114.059 17.188 114.019 17.188H112.867C112.827 17.188 112.807 17.208 112.807 17.248V19.792C112.807 20.056 112.859 20.252 112.963 20.38C113.075 20.508 113.251 20.572 113.491 20.572H113.887C113.927 20.572 113.959 20.588 113.983 20.62C114.015 20.644 114.031 20.676 114.031 20.716V21.856C114.031 21.944 113.983 21.996 113.887 22.012C113.551 22.028 113.311 22.036 113.167 22.036C112.503 22.036 112.007 21.928 111.679 21.712C111.351 21.488 111.183 21.072 111.175 20.464V17.248C111.175 17.208 111.155 17.188 111.115 17.188H110.431C110.391 17.188 110.355 17.176 110.323 17.152C110.299 17.12 110.287 17.084 110.287 17.044V15.976C110.287 15.936 110.299 15.904 110.323 15.88C110.355 15.848 110.391 15.832 110.431 15.832H111.115C111.155 15.832 111.175 15.812 111.175 15.772V14.344C111.175 14.304 111.187 14.272 111.211 14.248C111.243 14.216 111.279 14.2 111.319 14.2H112.663C112.703 14.2 112.735 14.216 112.759 14.248C112.791 14.272 112.807 14.304 112.807 14.344V15.772C112.807 15.812 112.827 15.832 112.867 15.832H114.019C114.059 15.832 114.091 15.848 114.115 15.88C114.147 15.904 114.163 15.936 114.163 15.976V17.044ZM116.358 13.636C116.398 13.612 116.458 13.6 116.538 13.6H117.99C118.03 13.6 118.062 13.616 118.086 13.648C118.118 13.672 118.134 13.704 118.134 13.744V21.856C118.134 21.896 118.118 21.932 118.086 21.964C118.062 21.988 118.03 22 117.99 22H116.586C116.546 22 116.51 21.988 116.478 21.964C116.454 21.932 116.442 21.896 116.442 21.856V15.28C116.442 15.264 116.434 15.248 116.418 15.232C116.402 15.216 116.386 15.212 116.37 15.22L115.182 15.544L115.134 15.556C115.062 15.556 115.026 15.512 115.026 15.424L114.99 14.392C114.99 14.312 115.026 14.256 115.098 14.224L116.358 13.636Z" fill="black"/>
<ellipse cx="103.26" cy="100.5" rx="14.4664" ry="14.5" fill="#2400FF"/>
<path d="M103.166 94.848C103.219 94.816 103.299 94.8 103.406 94.8H105.342C105.395 94.8 105.438 94.8213 105.47 94.864C105.512 94.896 105.534 94.9387 105.534 94.992V105.808C105.534 105.861 105.512 105.909 105.47 105.952C105.438 105.984 105.395 106 105.342 106H103.47C103.416 106 103.368 105.984 103.326 105.952C103.294 105.909 103.278 105.861 103.278 105.808V97.04C103.278 97.0187 103.267 96.9973 103.246 96.976C103.224 96.9547 103.203 96.9493 103.182 96.96L101.598 97.392L101.534 97.408C101.438 97.408 101.39 97.3493 101.39 97.232L101.342 95.856C101.342 95.7493 101.39 95.6747 101.486 95.632L103.166 94.848Z" fill="white"/>
<ellipse cx="232.958" cy="160.5" rx="14.4664" ry="14.5" fill="#2400FF"/>
<path d="M233.194 163.968C233.173 163.989 233.168 164.011 233.178 164.032C233.189 164.053 233.21 164.064 233.242 164.064H237.578C237.632 164.064 237.674 164.085 237.706 164.128C237.749 164.16 237.77 164.203 237.77 164.256V165.808C237.77 165.861 237.749 165.909 237.706 165.952C237.674 165.984 237.632 166 237.578 166H230.378C230.325 166 230.277 165.984 230.234 165.952C230.202 165.909 230.186 165.861 230.186 165.808V164.336C230.186 164.24 230.218 164.16 230.282 164.096C230.805 163.584 231.338 163.029 231.882 162.432C232.426 161.824 232.768 161.445 232.906 161.296C233.205 160.944 233.509 160.608 233.818 160.288C234.789 159.211 235.274 158.411 235.274 157.888C235.274 157.515 235.141 157.211 234.874 156.976C234.608 156.731 234.261 156.608 233.834 156.608C233.408 156.608 233.061 156.731 232.794 156.976C232.528 157.211 232.394 157.525 232.394 157.92V158.32C232.394 158.373 232.373 158.421 232.33 158.464C232.298 158.496 232.256 158.512 232.202 158.512H230.314C230.261 158.512 230.213 158.496 230.17 158.464C230.138 158.421 230.122 158.373 230.122 158.32V157.568C230.154 156.992 230.336 156.485 230.666 156.048C230.997 155.6 231.434 155.259 231.978 155.024C232.533 154.789 233.152 154.672 233.834 154.672C234.592 154.672 235.248 154.816 235.802 155.104C236.368 155.381 236.8 155.76 237.098 156.24C237.408 156.72 237.562 157.253 237.562 157.84C237.562 158.288 237.45 158.747 237.226 159.216C237.002 159.685 236.666 160.192 236.218 160.736C235.888 161.152 235.53 161.563 235.146 161.968C234.762 162.373 234.192 162.96 233.434 163.728L233.194 163.968Z" fill="white"/>
<ellipse cx="352.68" cy="192.5" rx="14.4664" ry="14.5" fill="#2400FF"/>
<path d="M356.82 192.656C357.033 193.147 357.14 193.712 357.14 194.352C357.14 194.928 357.044 195.461 356.852 195.952C356.596 196.635 356.164 197.168 355.556 197.552C354.959 197.936 354.249 198.128 353.428 198.128C352.617 198.128 351.903 197.925 351.284 197.52C350.676 197.115 350.239 196.565 349.972 195.872C349.823 195.456 349.737 195.008 349.716 194.528C349.716 194.4 349.78 194.336 349.908 194.336H351.796C351.924 194.336 351.988 194.4 351.988 194.528C352.031 194.88 352.089 195.141 352.164 195.312C352.26 195.589 352.415 195.808 352.628 195.968C352.852 196.117 353.113 196.192 353.412 196.192C354.009 196.192 354.42 195.931 354.644 195.408C354.793 195.088 354.868 194.715 354.868 194.288C354.868 193.787 354.788 193.376 354.628 193.056C354.383 192.555 353.972 192.304 353.396 192.304C353.279 192.304 353.156 192.341 353.028 192.416C352.9 192.48 352.745 192.576 352.564 192.704C352.521 192.736 352.479 192.752 352.436 192.752C352.372 192.752 352.324 192.72 352.292 192.656L351.348 191.328C351.327 191.296 351.316 191.259 351.316 191.216C351.316 191.152 351.337 191.099 351.38 191.056L353.924 188.832C353.945 188.811 353.951 188.789 353.94 188.768C353.94 188.747 353.924 188.736 353.892 188.736H350.132C350.079 188.736 350.031 188.72 349.988 188.688C349.956 188.645 349.94 188.597 349.94 188.544V186.992C349.94 186.939 349.956 186.896 349.988 186.864C350.031 186.821 350.079 186.8 350.132 186.8H356.804C356.857 186.8 356.9 186.821 356.932 186.864C356.975 186.896 356.996 186.939 356.996 186.992V188.752C356.996 188.837 356.959 188.917 356.884 188.992L354.788 190.912C354.767 190.933 354.756 190.955 354.756 190.976C354.767 190.997 354.793 191.008 354.836 191.008C355.764 191.189 356.425 191.739 356.82 192.656Z" fill="white"/>
<path d="M50.8817 77.5C50.8817 81.5 38.6568 87 33.4223 87C28.1878 87 23.9443 82.7467 23.9443 77.5C23.9443 72.2533 28.1878 68 33.4223 68C38.6568 68 50.8817 74 50.8817 77.5Z" fill="#7F00FF"/>
<path d="M36.4944 73.224C36.4944 73.304 36.4544 73.344 36.3744 73.344H31.9584C31.9264 73.344 31.9104 73.36 31.9104 73.392V76.356C31.9104 76.388 31.9264 76.404 31.9584 76.404H35.0544C35.1344 76.404 35.1744 76.444 35.1744 76.524V77.028C35.1744 77.108 35.1344 77.148 35.0544 77.148H31.9584C31.9264 77.148 31.9104 77.164 31.9104 77.196V80.208C31.9104 80.24 31.9264 80.256 31.9584 80.256H36.3744C36.4544 80.256 36.4944 80.296 36.4944 80.376V80.88C36.4944 80.96 36.4544 81 36.3744 81H31.1784C31.0984 81 31.0584 80.96 31.0584 80.88V72.72C31.0584 72.64 31.0984 72.6 31.1784 72.6H36.3744C36.4544 72.6 36.4944 72.64 36.4944 72.72V73.224Z" fill="white"/>
<path d="M50.8817 102.5C50.8817 106.5 38.6568 112 33.4223 112C28.1878 112 23.9443 107.747 23.9443 102.5C23.9443 97.2533 28.1878 93 33.4223 93C38.6568 93 50.8817 99 50.8817 102.5Z" fill="#7F00FF"/>
<path d="M35.2704 101.62C35.2304 101.644 35.2304 101.668 35.2704 101.692C35.7024 101.868 36.0304 102.128 36.2544 102.472C36.4784 102.816 36.5904 103.232 36.5904 103.72C36.5904 104.44 36.3584 105 35.8944 105.4C35.4384 105.8 34.8344 106 34.0824 106H31.1784C31.0984 106 31.0584 105.96 31.0584 105.88V97.72C31.0584 97.64 31.0984 97.6 31.1784 97.6H33.9984C34.7744 97.6 35.3824 97.792 35.8224 98.176C36.2704 98.56 36.4944 99.1 36.4944 99.796C36.4944 100.236 36.3864 100.612 36.1704 100.924C35.9624 101.228 35.6624 101.46 35.2704 101.62ZM31.9584 98.344C31.9264 98.344 31.9104 98.36 31.9104 98.392V101.272C31.9104 101.304 31.9264 101.32 31.9584 101.32H33.9984C34.5024 101.32 34.9024 101.188 35.1984 100.924C35.5024 100.66 35.6544 100.308 35.6544 99.868C35.6544 99.404 35.5024 99.036 35.1984 98.764C34.9024 98.484 34.5024 98.344 33.9984 98.344H31.9584ZM34.0824 105.244C34.5864 105.244 34.9864 105.1 35.2824 104.812C35.5864 104.524 35.7384 104.136 35.7384 103.648C35.7384 103.16 35.5824 102.772 35.2704 102.484C34.9664 102.188 34.5544 102.04 34.0344 102.04H31.9584C31.9264 102.04 31.9104 102.056 31.9104 102.088V105.196C31.9104 105.228 31.9264 105.244 31.9584 105.244H34.0824Z" fill="white"/>
<path d="M50.8817 132.5C50.8817 136.5 38.6568 142 33.4223 142C28.1878 142 23.9443 137.747 23.9443 132.5C23.9443 127.253 28.1878 123 33.4223 123C38.6568 123 50.8817 129 50.8817 132.5Z" fill="#7F00FF"/>
<path d="M33.6144 136.096C33.0544 136.096 32.5624 135.988 32.1384 135.772C31.7144 135.548 31.3824 135.236 31.1424 134.836C30.9104 134.436 30.7944 133.976 30.7944 133.456V130.144C30.7944 129.624 30.9104 129.164 31.1424 128.764C31.3824 128.364 31.7144 128.056 32.1384 127.84C32.5624 127.616 33.0544 127.504 33.6144 127.504C34.1664 127.504 34.6544 127.612 35.0784 127.828C35.5104 128.044 35.8424 128.348 36.0744 128.74C36.3064 129.124 36.4224 129.56 36.4224 130.048V130.204C36.4224 130.284 36.3824 130.324 36.3024 130.324H35.6904C35.6104 130.324 35.5704 130.284 35.5704 130.204V130.06C35.5704 129.524 35.3904 129.088 35.0304 128.752C34.6784 128.416 34.2064 128.248 33.6144 128.248C33.0224 128.248 32.5464 128.42 32.1864 128.764C31.8264 129.108 31.6464 129.56 31.6464 130.12V133.48C31.6464 134.04 31.8304 134.492 32.1984 134.836C32.5664 135.18 33.0504 135.352 33.6504 135.352C34.2344 135.352 34.6984 135.192 35.0424 134.872C35.3944 134.552 35.5704 134.124 35.5704 133.588V132.496C35.5704 132.464 35.5544 132.448 35.5224 132.448H33.7584C33.6784 132.448 33.6384 132.408 33.6384 132.328V131.824C33.6384 131.744 33.6784 131.704 33.7584 131.704H36.3024C36.3824 131.704 36.4224 131.744 36.4224 131.824V133.372C36.4224 134.228 36.1664 134.896 35.6544 135.376C35.1504 135.856 34.4704 136.096 33.6144 136.096Z" fill="white"/>
<path d="M50.8817 162.5C50.8817 166.5 38.6568 172 33.4223 172C28.1878 172 23.9443 167.747 23.9443 162.5C23.9443 157.253 28.1878 153 33.4223 153C38.6568 153 50.8817 159 50.8817 162.5Z" fill="#7F00FF"/>
<path d="M31.1784 166C31.0984 166 31.0584 165.96 31.0584 165.88V157.72C31.0584 157.64 31.0984 157.6 31.1784 157.6H34.0104C34.8024 157.6 35.4304 157.808 35.8944 158.224C36.3664 158.64 36.6024 159.204 36.6024 159.916V163.684C36.6024 164.396 36.3664 164.96 35.8944 165.376C35.4304 165.792 34.8024 166 34.0104 166H31.1784ZM31.9104 165.208C31.9104 165.24 31.9264 165.256 31.9584 165.256H34.0464C34.5664 165.256 34.9784 165.104 35.2824 164.8C35.5944 164.496 35.7504 164.088 35.7504 163.576V160.036C35.7504 159.516 35.5984 159.104 35.2944 158.8C34.9904 158.496 34.5744 158.344 34.0464 158.344H31.9584C31.9264 158.344 31.9104 158.36 31.9104 158.392V165.208Z" fill="white"/>
<path d="M50.8817 191.5C50.8817 195.5 38.6568 201 33.4223 201C28.1878 201 23.9443 196.747 23.9443 191.5C23.9443 186.253 28.1878 182 33.4223 182C38.6568 182 50.8817 188 50.8817 191.5Z" fill="#7F00FF"/>
<path d="M36.0384 195C35.9664 195 35.9184 194.968 35.8944 194.904L35.4144 193.392C35.4064 193.368 35.3904 193.356 35.3664 193.356H31.7784C31.7544 193.356 31.7384 193.368 31.7304 193.392L31.2504 194.904C31.2264 194.968 31.1784 195 31.1064 195H30.4584C30.3704 195 30.3384 194.956 30.3624 194.868L33.0144 186.696C33.0384 186.632 33.0864 186.6 33.1584 186.6H33.9744C34.0464 186.6 34.0944 186.632 34.1184 186.696L36.7824 194.868L36.7944 194.916C36.7944 194.972 36.7584 195 36.6864 195H36.0384ZM31.9704 192.6C31.9624 192.616 31.9624 192.632 31.9704 192.648C31.9864 192.656 32.0024 192.66 32.0184 192.66H35.1144C35.1304 192.66 35.1424 192.656 35.1504 192.648C35.1664 192.632 35.1704 192.616 35.1624 192.6L33.6024 187.704C33.5944 187.688 33.5824 187.68 33.5664 187.68C33.5504 187.68 33.5384 187.688 33.5304 187.704L31.9704 192.6Z" fill="white"/>
<path d="M50.8817 216.5C50.8817 220.5 38.6568 226 33.4223 226C28.1878 226 23.9443 221.747 23.9443 216.5C23.9443 211.253 28.1878 207 33.4223 207C38.6568 207 50.8817 213 50.8817 216.5Z" fill="#5F5F5F"/>
<path d="M36.4944 212.224C36.4944 212.304 36.4544 212.344 36.3744 212.344H31.9584C31.9264 212.344 31.9104 212.36 31.9104 212.392V215.356C31.9104 215.388 31.9264 215.404 31.9584 215.404H35.0544C35.1344 215.404 35.1744 215.444 35.1744 215.524V216.028C35.1744 216.108 35.1344 216.148 35.0544 216.148H31.9584C31.9264 216.148 31.9104 216.164 31.9104 216.196V219.208C31.9104 219.24 31.9264 219.256 31.9584 219.256H36.3744C36.4544 219.256 36.4944 219.296 36.4944 219.376V219.88C36.4944 219.96 36.4544 220 36.3744 220H31.1784C31.0984 220 31.0584 219.96 31.0584 219.88V211.72C31.0584 211.64 31.0984 211.6 31.1784 211.6H36.3744C36.4544 211.6 36.4944 211.64 36.4944 211.72V212.224Z" fill="white"/>
</g>
<defs>
<filter id="filter0_d_508_72" x="0.842773" y="169.562" width="13.8652" height="13.874" filterUnits="userSpaceOnUse" color-interpolation-filters="sRGB">
<feFlood flood-opacity="0" result="BackgroundImageFix"/>
<feColorMatrix in="SourceAlpha" type="matrix" values="0 0 0 0 0 0 0 0 0 0 0 0 0 0 0 0 0 0 127 0" result="hardAlpha"/>
<feOffset dy="4"/>
<feGaussianBlur stdDeviation="2"/>
<feComposite in2="hardAlpha" operator="out"/>
<feColorMatrix type="matrix" values="0 0 0 0 0 0 0 0 0 0 0 0 0 0 0 0 0 0 0.25 0"/>
<feBlend mode="normal" in2="BackgroundImageFix" result="effect1_dropShadow_508_72"/>
<feBlend mode="normal" in="SourceGraphic" in2="effect1_dropShadow_508_72" result="shape"/>
</filter>
<linearGradient id="paint0_linear_508_72" x1="44.498" y1="139.743" x2="32.6026" y2="139.743" gradientUnits="userSpaceOnUse">
<stop stop-color="#D9D9D9"/>
<stop offset="1" stop-color="#D9D9D9" stop-opacity="0"/>
</linearGradient>
<linearGradient id="paint1_linear_508_72" x1="173.736" y1="139.743" x2="164.22" y2="139.743" gradientUnits="userSpaceOnUse">
<stop stop-color="#D9D9D9"/>
<stop offset="1" stop-color="#D9D9D9" stop-opacity="0"/>
</linearGradient>
<linearGradient id="paint2_linear_508_72" x1="289.467" y1="135.16" x2="279.95" y2="135.16" gradientUnits="userSpaceOnUse">
<stop stop-color="#D9D9D9"/>
<stop offset="1" stop-color="#D9D9D9" stop-opacity="0"/>
</linearGradient>
<linearGradient id="paint3_linear_508_72" x1="403.202" y1="135.081" x2="393.686" y2="135.081" gradientUnits="userSpaceOnUse">
<stop stop-color="#D9D9D9"/>
<stop offset="1" stop-color="#D9D9D9" stop-opacity="0"/>
</linearGradient>
</defs>
</svg>
