<svg width="430" height="234" viewBox="0 0 430 234" fill="none" xmlns="http://www.w3.org/2000/svg">
<mask id="mask0_508_1121" style="mask-type:alpha" maskUnits="userSpaceOnUse" x="0" y="0" width="430" height="234">
<rect width="430" height="234" fill="#D9D9D9"/>
</mask>
<g mask="url(#mask0_508_1121)">
<path d="M-0.706299 233.958V64.1257C15.6937 72.8778 27.2937 72.982 34.7937 72.982L431.294 61V235L34.7937 222.497C20.3937 222.497 5.12703 231.527 -0.706299 233.958Z" fill="#232323"/>
<mask id="mask1_508_1121" style="mask-type:alpha" maskUnits="userSpaceOnUse" x="-61" y="93" width="92" height="110">
<path d="M3.44195 93.2704L19.8939 126.257L30.7426 148.489L14.583 180.291L3.79456 202.062L-28.0543 191.286L-60.2188 181.492L-59.812 147.872L-60.4367 114.255L-28.3364 104.253L3.44195 93.2704Z" fill="#404040"/>
</mask>
<g mask="url(#mask1_508_1121)">
<rect x="-0.706787" y="56" width="68" height="167" fill="#404040"/>
</g>
<circle cx="6.7937" cy="123.5" r="4.5" fill="#D9D9D9"/>
<path fill-rule="evenodd" clip-rule="evenodd" d="M5.70934 125.437C5.70934 125.989 6.15705 126.437 6.70934 126.437C7.26162 126.437 7.70934 125.989 7.70934 125.437V124.415H8.73078C9.28306 124.415 9.73078 123.968 9.73078 123.415C9.73078 122.863 9.28306 122.415 8.73078 122.415H7.70934V121.562C7.70934 121.01 7.26162 120.562 6.70934 120.562C6.15705 120.562 5.70934 121.01 5.70934 121.562V122.415H4.85645C4.30416 122.415 3.85645 122.863 3.85645 123.415C3.85645 123.968 4.30416 124.415 4.85645 124.415H5.70934V125.437Z" fill="black"/>
<circle cx="7.7937" cy="173.5" r="4.5" fill="#D9D9D9"/>
<g filter="url(#filter0_d_508_1121)">
<path fill-rule="evenodd" clip-rule="evenodd" d="M6.70934 175.437C6.70934 175.989 7.15705 176.437 7.70934 176.437C8.26162 176.437 8.70934 175.989 8.70934 175.437V174.415H9.73078C10.2831 174.415 10.7308 173.968 10.7308 173.415C10.7308 172.863 10.2831 172.415 9.73078 172.415H8.70934V171.562C8.70934 171.01 8.26162 170.562 7.70934 170.562C7.15705 170.562 6.70934 171.01 6.70934 171.562V172.415H5.85645C5.30416 172.415 4.85645 172.863 4.85645 173.415C4.85645 173.968 5.30416 174.415 5.85645 174.415H6.70934V175.437Z" fill="black"/>
</g>
<path d="M52.2937 72L37.2937 72.5117V222.362L52.2937 223V72Z" fill="url(#paint0_linear_508_1121)"/>
<path d="M180.294 68.583L168.294 68.9539V226.705L180.294 227.109V68.583Z" fill="url(#paint1_linear_508_1121)"/>
<path d="M296.294 65.0791L284.294 65.4395V230.363L296.294 230.75V65.0791Z" fill="url(#paint2_linear_508_1121)"/>
<path d="M410.294 61.6328L398.294 62.0007V233.961L410.294 234.34V61.6328Z" fill="url(#paint3_linear_508_1121)"/>
<path d="M430.5 195L-0.993058 192" stroke="#7F00FF" stroke-width="4"/>
<path d="M430.5 195L-0.993058 192" stroke="#7F00FF" stroke-width="4"/>
<path d="M430.5 195L-0.993058 192" stroke="#7F00FF" stroke-width="4"/>
<path d="M430.5 195L-0.993058 192" stroke="#7F00FF" stroke-width="4"/>
<path d="M430.5 195L-0.993058 192" stroke="#7F00FF" stroke-width="4"/>
<path d="M431.5 225L-5.9816 217" stroke="#7F00FF" stroke-width="4"/>
<path d="M430.5 163.5L27 163L-2 166" stroke="#7F00FF" stroke-width="4"/>
<path d="M430.5 132L25 133.5L-3.5 130" stroke="#7F00FF" stroke-width="4"/>
<path d="M430 101L19.5 104.5L-3.5 103" stroke="#7F00FF" stroke-width="4"/>
<path d="M-0.5 82L32.5 78.5L430 72.5" stroke="#7F00FF" stroke-width="4"/>
<path d="M368.18 17.5902C368.18 26.7527 356.492 47 351.59 47C346.689 47 335 26.7527 335 17.5902C335 8.42767 342.428 1 351.59 1C360.753 1 368.18 8.42767 368.18 17.5902Z" fill="white"/>
<path d="M344.552 15.908C344.552 15.948 344.536 15.984 344.504 16.016C344.48 16.04 344.448 16.052 344.408 16.052H340.484C340.444 16.052 340.424 16.072 340.424 16.112V17.972C340.424 18.012 340.444 18.032 340.484 18.032H343.064C343.104 18.032 343.136 18.048 343.16 18.08C343.192 18.104 343.208 18.136 343.208 18.176V19.34C343.208 19.38 343.192 19.416 343.16 19.448C343.136 19.472 343.104 19.484 343.064 19.484H340.484C340.444 19.484 340.424 19.504 340.424 19.544V22.856C340.424 22.896 340.408 22.932 340.376 22.964C340.352 22.988 340.32 23 340.28 23H338.876C338.836 23 338.8 22.988 338.768 22.964C338.744 22.932 338.732 22.896 338.732 22.856V14.744C338.732 14.704 338.744 14.672 338.768 14.648C338.8 14.616 338.836 14.6 338.876 14.6H344.408C344.448 14.6 344.48 14.616 344.504 14.648C344.536 14.672 344.552 14.704 344.552 14.744V15.908ZM348.059 16.748C348.347 16.748 348.575 16.804 348.743 16.916C348.807 16.948 348.831 17.008 348.815 17.096L348.563 18.464C348.555 18.56 348.499 18.588 348.395 18.548C348.275 18.508 348.135 18.488 347.975 18.488C347.911 18.488 347.823 18.496 347.711 18.512C347.423 18.536 347.179 18.644 346.979 18.836C346.779 19.02 346.679 19.268 346.679 19.58V22.856C346.679 22.896 346.663 22.932 346.631 22.964C346.607 22.988 346.575 23 346.535 23H345.131C345.091 23 345.055 22.988 345.023 22.964C344.999 22.932 344.987 22.896 344.987 22.856V16.976C344.987 16.936 344.999 16.904 345.023 16.88C345.055 16.848 345.091 16.832 345.131 16.832H346.535C346.575 16.832 346.607 16.848 346.631 16.88C346.663 16.904 346.679 16.936 346.679 16.976V17.432C346.679 17.456 346.687 17.472 346.703 17.48C346.719 17.488 346.731 17.484 346.739 17.468C347.067 16.988 347.507 16.748 348.059 16.748ZM354.889 19.28C354.937 19.584 354.953 19.924 354.937 20.3C354.929 20.396 354.877 20.444 354.781 20.444H351.073C351.025 20.444 351.009 20.464 351.025 20.504C351.049 20.664 351.093 20.824 351.157 20.984C351.365 21.432 351.789 21.656 352.429 21.656C352.941 21.648 353.345 21.44 353.641 21.032C353.673 20.984 353.709 20.96 353.749 20.96C353.773 20.96 353.801 20.976 353.833 21.008L354.697 21.86C354.737 21.9 354.757 21.936 354.757 21.968C354.757 21.984 354.741 22.016 354.709 22.064C354.445 22.392 354.105 22.648 353.689 22.832C353.273 23.008 352.817 23.096 352.321 23.096C351.633 23.096 351.049 22.94 350.569 22.628C350.097 22.316 349.757 21.88 349.549 21.32C349.381 20.92 349.297 20.396 349.297 19.748C349.297 19.308 349.357 18.92 349.477 18.584C349.661 18.016 349.981 17.564 350.437 17.228C350.901 16.892 351.449 16.724 352.081 16.724C352.881 16.724 353.521 16.956 354.001 17.42C354.489 17.884 354.785 18.504 354.889 19.28ZM352.093 18.188C351.589 18.188 351.257 18.424 351.097 18.896C351.065 19 351.037 19.128 351.013 19.28C351.013 19.32 351.033 19.34 351.073 19.34H353.149C353.197 19.34 353.213 19.32 353.197 19.28C353.157 19.048 353.137 18.936 353.137 18.944C353.065 18.704 352.937 18.52 352.753 18.392C352.577 18.256 352.357 18.188 352.093 18.188ZM359.379 18.044C359.379 18.084 359.363 18.12 359.331 18.152C359.307 18.176 359.275 18.188 359.235 18.188H358.083C358.043 18.188 358.023 18.208 358.023 18.248V20.792C358.023 21.056 358.075 21.252 358.179 21.38C358.291 21.508 358.467 21.572 358.707 21.572H359.103C359.143 21.572 359.175 21.588 359.199 21.62C359.231 21.644 359.247 21.676 359.247 21.716V22.856C359.247 22.944 359.199 22.996 359.103 23.012C358.767 23.028 358.527 23.036 358.383 23.036C357.719 23.036 357.223 22.928 356.895 22.712C356.567 22.488 356.399 22.072 356.391 21.464V18.248C356.391 18.208 356.371 18.188 356.331 18.188H355.647C355.607 18.188 355.571 18.176 355.539 18.152C355.515 18.12 355.503 18.084 355.503 18.044V16.976C355.503 16.936 355.515 16.904 355.539 16.88C355.571 16.848 355.607 16.832 355.647 16.832H356.331C356.371 16.832 356.391 16.812 356.391 16.772V15.344C356.391 15.304 356.403 15.272 356.427 15.248C356.459 15.216 356.495 15.2 356.535 15.2H357.879C357.919 15.2 357.951 15.216 357.975 15.248C358.007 15.272 358.023 15.304 358.023 15.344V16.772C358.023 16.812 358.043 16.832 358.083 16.832H359.235C359.275 16.832 359.307 16.848 359.331 16.88C359.363 16.904 359.379 16.936 359.379 16.976V18.044ZM365.497 18.992C365.657 19.36 365.737 19.784 365.737 20.264C365.737 20.696 365.665 21.096 365.521 21.464C365.329 21.976 365.005 22.376 364.549 22.664C364.101 22.952 363.569 23.096 362.953 23.096C362.345 23.096 361.809 22.944 361.345 22.64C360.889 22.336 360.561 21.924 360.361 21.404C360.249 21.092 360.185 20.756 360.169 20.396C360.169 20.3 360.217 20.252 360.313 20.252H361.729C361.825 20.252 361.873 20.3 361.873 20.396C361.905 20.66 361.949 20.856 362.005 20.984C362.077 21.192 362.193 21.356 362.353 21.476C362.521 21.588 362.717 21.644 362.941 21.644C363.389 21.644 363.697 21.448 363.865 21.056C363.977 20.816 364.033 20.536 364.033 20.216C364.033 19.84 363.973 19.532 363.853 19.292C363.669 18.916 363.361 18.728 362.929 18.728C362.841 18.728 362.749 18.756 362.653 18.812C362.557 18.86 362.441 18.932 362.305 19.028C362.273 19.052 362.241 19.064 362.209 19.064C362.161 19.064 362.125 19.04 362.101 18.992L361.393 17.996C361.377 17.972 361.369 17.944 361.369 17.912C361.369 17.864 361.385 17.824 361.417 17.792L363.325 16.124C363.341 16.108 363.345 16.092 363.337 16.076C363.337 16.06 363.325 16.052 363.301 16.052H360.481C360.441 16.052 360.405 16.04 360.373 16.016C360.349 15.984 360.337 15.948 360.337 15.908V14.744C360.337 14.704 360.349 14.672 360.373 14.648C360.405 14.616 360.441 14.6 360.481 14.6H365.485C365.525 14.6 365.557 14.616 365.581 14.648C365.613 14.672 365.629 14.704 365.629 14.744V16.064C365.629 16.128 365.601 16.188 365.545 16.244L363.973 17.684C363.957 17.7 363.949 17.716 363.949 17.732C363.957 17.748 363.977 17.756 364.009 17.756C364.705 17.892 365.201 18.304 365.497 18.992Z" fill="black"/>
<path d="M248.18 17.5902C248.18 26.7527 236.492 47 231.59 47C226.689 47 215 26.7527 215 17.5902C215 8.42767 222.428 1 231.59 1C240.753 1 248.18 8.42767 248.18 17.5902Z" fill="white"/>
<path d="M224.552 15.908C224.552 15.948 224.536 15.984 224.504 16.016C224.48 16.04 224.448 16.052 224.408 16.052H220.484C220.444 16.052 220.424 16.072 220.424 16.112V17.972C220.424 18.012 220.444 18.032 220.484 18.032H223.064C223.104 18.032 223.136 18.048 223.16 18.08C223.192 18.104 223.208 18.136 223.208 18.176V19.34C223.208 19.38 223.192 19.416 223.16 19.448C223.136 19.472 223.104 19.484 223.064 19.484H220.484C220.444 19.484 220.424 19.504 220.424 19.544V22.856C220.424 22.896 220.408 22.932 220.376 22.964C220.352 22.988 220.32 23 220.28 23H218.876C218.836 23 218.8 22.988 218.768 22.964C218.744 22.932 218.732 22.896 218.732 22.856V14.744C218.732 14.704 218.744 14.672 218.768 14.648C218.8 14.616 218.836 14.6 218.876 14.6H224.408C224.448 14.6 224.48 14.616 224.504 14.648C224.536 14.672 224.552 14.704 224.552 14.744V15.908ZM228.059 16.748C228.347 16.748 228.575 16.804 228.743 16.916C228.807 16.948 228.831 17.008 228.815 17.096L228.563 18.464C228.555 18.56 228.499 18.588 228.395 18.548C228.275 18.508 228.135 18.488 227.975 18.488C227.911 18.488 227.823 18.496 227.711 18.512C227.423 18.536 227.179 18.644 226.979 18.836C226.779 19.02 226.679 19.268 226.679 19.58V22.856C226.679 22.896 226.663 22.932 226.631 22.964C226.607 22.988 226.575 23 226.535 23H225.131C225.091 23 225.055 22.988 225.023 22.964C224.999 22.932 224.987 22.896 224.987 22.856V16.976C224.987 16.936 224.999 16.904 225.023 16.88C225.055 16.848 225.091 16.832 225.131 16.832H226.535C226.575 16.832 226.607 16.848 226.631 16.88C226.663 16.904 226.679 16.936 226.679 16.976V17.432C226.679 17.456 226.687 17.472 226.703 17.48C226.719 17.488 226.731 17.484 226.739 17.468C227.067 16.988 227.507 16.748 228.059 16.748ZM234.889 19.28C234.937 19.584 234.953 19.924 234.937 20.3C234.929 20.396 234.877 20.444 234.781 20.444H231.073C231.025 20.444 231.009 20.464 231.025 20.504C231.049 20.664 231.093 20.824 231.157 20.984C231.365 21.432 231.789 21.656 232.429 21.656C232.941 21.648 233.345 21.44 233.641 21.032C233.673 20.984 233.709 20.96 233.749 20.96C233.773 20.96 233.801 20.976 233.833 21.008L234.697 21.86C234.737 21.9 234.757 21.936 234.757 21.968C234.757 21.984 234.741 22.016 234.709 22.064C234.445 22.392 234.105 22.648 233.689 22.832C233.273 23.008 232.817 23.096 232.321 23.096C231.633 23.096 231.049 22.94 230.569 22.628C230.097 22.316 229.757 21.88 229.549 21.32C229.381 20.92 229.297 20.396 229.297 19.748C229.297 19.308 229.357 18.92 229.477 18.584C229.661 18.016 229.981 17.564 230.437 17.228C230.901 16.892 231.449 16.724 232.081 16.724C232.881 16.724 233.521 16.956 234.001 17.42C234.489 17.884 234.785 18.504 234.889 19.28ZM232.093 18.188C231.589 18.188 231.257 18.424 231.097 18.896C231.065 19 231.037 19.128 231.013 19.28C231.013 19.32 231.033 19.34 231.073 19.34H233.149C233.197 19.34 233.213 19.32 233.197 19.28C233.157 19.048 233.137 18.936 233.137 18.944C233.065 18.704 232.937 18.52 232.753 18.392C232.577 18.256 232.357 18.188 232.093 18.188ZM239.379 18.044C239.379 18.084 239.363 18.12 239.331 18.152C239.307 18.176 239.275 18.188 239.235 18.188H238.083C238.043 18.188 238.023 18.208 238.023 18.248V20.792C238.023 21.056 238.075 21.252 238.179 21.38C238.291 21.508 238.467 21.572 238.707 21.572H239.103C239.143 21.572 239.175 21.588 239.199 21.62C239.231 21.644 239.247 21.676 239.247 21.716V22.856C239.247 22.944 239.199 22.996 239.103 23.012C238.767 23.028 238.527 23.036 238.383 23.036C237.719 23.036 237.223 22.928 236.895 22.712C236.567 22.488 236.399 22.072 236.391 21.464V18.248C236.391 18.208 236.371 18.188 236.331 18.188H235.647C235.607 18.188 235.571 18.176 235.539 18.152C235.515 18.12 235.503 18.084 235.503 18.044V16.976C235.503 16.936 235.515 16.904 235.539 16.88C235.571 16.848 235.607 16.832 235.647 16.832H236.331C236.371 16.832 236.391 16.812 236.391 16.772V15.344C236.391 15.304 236.403 15.272 236.427 15.248C236.459 15.216 236.495 15.2 236.535 15.2H237.879C237.919 15.2 237.951 15.216 237.975 15.248C238.007 15.272 238.023 15.304 238.023 15.344V16.772C238.023 16.812 238.043 16.832 238.083 16.832H239.235C239.275 16.832 239.307 16.848 239.331 16.88C239.363 16.904 239.379 16.936 239.379 16.976V18.044ZM242.569 21.476C242.553 21.492 242.549 21.508 242.557 21.524C242.565 21.54 242.581 21.548 242.605 21.548H245.857C245.897 21.548 245.929 21.564 245.953 21.596C245.985 21.62 246.001 21.652 246.001 21.692V22.856C246.001 22.896 245.985 22.932 245.953 22.964C245.929 22.988 245.897 23 245.857 23H240.457C240.417 23 240.381 22.988 240.349 22.964C240.325 22.932 240.313 22.896 240.313 22.856V21.752C240.313 21.68 240.337 21.62 240.385 21.572C240.777 21.188 241.177 20.772 241.585 20.324C241.993 19.868 242.249 19.584 242.353 19.472C242.577 19.208 242.805 18.956 243.037 18.716C243.765 17.908 244.129 17.308 244.129 16.916C244.129 16.636 244.029 16.408 243.829 16.232C243.629 16.048 243.369 15.956 243.049 15.956C242.729 15.956 242.469 16.048 242.269 16.232C242.069 16.408 241.969 16.644 241.969 16.94V17.24C241.969 17.28 241.953 17.316 241.921 17.348C241.897 17.372 241.865 17.384 241.825 17.384H240.409C240.369 17.384 240.333 17.372 240.301 17.348C240.277 17.316 240.265 17.28 240.265 17.24V16.676C240.289 16.244 240.425 15.864 240.673 15.536C240.921 15.2 241.249 14.944 241.657 14.768C242.073 14.592 242.537 14.504 243.049 14.504C243.617 14.504 244.109 14.612 244.525 14.828C244.949 15.036 245.273 15.32 245.497 15.68C245.729 16.04 245.845 16.44 245.845 16.88C245.845 17.216 245.761 17.56 245.593 17.912C245.425 18.264 245.173 18.644 244.837 19.052C244.589 19.364 244.321 19.672 244.033 19.976C243.745 20.28 243.317 20.72 242.749 21.296L242.569 21.476Z" fill="black"/>
<path d="M123.18 17.5902C123.18 26.7527 111.492 47 106.59 47C101.689 47 90 26.7527 90 17.5902C90 8.42767 97.4277 1 106.59 1C115.753 1 123.18 8.42767 123.18 17.5902Z" fill="white"/>
<path d="M99.552 15.908C99.552 15.948 99.536 15.984 99.504 16.016C99.48 16.04 99.448 16.052 99.408 16.052H95.484C95.444 16.052 95.424 16.072 95.424 16.112V17.972C95.424 18.012 95.444 18.032 95.484 18.032H98.064C98.104 18.032 98.136 18.048 98.16 18.08C98.192 18.104 98.208 18.136 98.208 18.176V19.34C98.208 19.38 98.192 19.416 98.16 19.448C98.136 19.472 98.104 19.484 98.064 19.484H95.484C95.444 19.484 95.424 19.504 95.424 19.544V22.856C95.424 22.896 95.408 22.932 95.376 22.964C95.352 22.988 95.32 23 95.28 23H93.876C93.836 23 93.8 22.988 93.768 22.964C93.744 22.932 93.732 22.896 93.732 22.856V14.744C93.732 14.704 93.744 14.672 93.768 14.648C93.8 14.616 93.836 14.6 93.876 14.6H99.408C99.448 14.6 99.48 14.616 99.504 14.648C99.536 14.672 99.552 14.704 99.552 14.744V15.908ZM103.059 16.748C103.347 16.748 103.575 16.804 103.743 16.916C103.807 16.948 103.831 17.008 103.815 17.096L103.563 18.464C103.555 18.56 103.499 18.588 103.395 18.548C103.275 18.508 103.135 18.488 102.975 18.488C102.911 18.488 102.823 18.496 102.711 18.512C102.423 18.536 102.179 18.644 101.979 18.836C101.779 19.02 101.679 19.268 101.679 19.58V22.856C101.679 22.896 101.663 22.932 101.631 22.964C101.607 22.988 101.575 23 101.535 23H100.131C100.091 23 100.055 22.988 100.023 22.964C99.9993 22.932 99.9873 22.896 99.9873 22.856V16.976C99.9873 16.936 99.9993 16.904 100.023 16.88C100.055 16.848 100.091 16.832 100.131 16.832H101.535C101.575 16.832 101.607 16.848 101.631 16.88C101.663 16.904 101.679 16.936 101.679 16.976V17.432C101.679 17.456 101.687 17.472 101.703 17.48C101.719 17.488 101.731 17.484 101.739 17.468C102.067 16.988 102.507 16.748 103.059 16.748ZM109.889 19.28C109.937 19.584 109.953 19.924 109.937 20.3C109.929 20.396 109.877 20.444 109.781 20.444H106.073C106.025 20.444 106.009 20.464 106.025 20.504C106.049 20.664 106.093 20.824 106.157 20.984C106.365 21.432 106.789 21.656 107.429 21.656C107.941 21.648 108.345 21.44 108.641 21.032C108.673 20.984 108.709 20.96 108.749 20.96C108.773 20.96 108.801 20.976 108.833 21.008L109.697 21.86C109.737 21.9 109.757 21.936 109.757 21.968C109.757 21.984 109.741 22.016 109.709 22.064C109.445 22.392 109.105 22.648 108.689 22.832C108.273 23.008 107.817 23.096 107.321 23.096C106.633 23.096 106.049 22.94 105.569 22.628C105.097 22.316 104.757 21.88 104.549 21.32C104.381 20.92 104.297 20.396 104.297 19.748C104.297 19.308 104.357 18.92 104.477 18.584C104.661 18.016 104.981 17.564 105.437 17.228C105.901 16.892 106.449 16.724 107.081 16.724C107.881 16.724 108.521 16.956 109.001 17.42C109.489 17.884 109.785 18.504 109.889 19.28ZM107.093 18.188C106.589 18.188 106.257 18.424 106.097 18.896C106.065 19 106.037 19.128 106.013 19.28C106.013 19.32 106.033 19.34 106.073 19.34H108.149C108.197 19.34 108.213 19.32 108.197 19.28C108.157 19.048 108.137 18.936 108.137 18.944C108.065 18.704 107.937 18.52 107.753 18.392C107.577 18.256 107.357 18.188 107.093 18.188ZM114.379 18.044C114.379 18.084 114.363 18.12 114.331 18.152C114.307 18.176 114.275 18.188 114.235 18.188H113.083C113.043 18.188 113.023 18.208 113.023 18.248V20.792C113.023 21.056 113.075 21.252 113.179 21.38C113.291 21.508 113.467 21.572 113.707 21.572H114.103C114.143 21.572 114.175 21.588 114.199 21.62C114.231 21.644 114.247 21.676 114.247 21.716V22.856C114.247 22.944 114.199 22.996 114.103 23.012C113.767 23.028 113.527 23.036 113.383 23.036C112.719 23.036 112.223 22.928 111.895 22.712C111.567 22.488 111.399 22.072 111.391 21.464V18.248C111.391 18.208 111.371 18.188 111.331 18.188H110.647C110.607 18.188 110.571 18.176 110.539 18.152C110.515 18.12 110.503 18.084 110.503 18.044V16.976C110.503 16.936 110.515 16.904 110.539 16.88C110.571 16.848 110.607 16.832 110.647 16.832H111.331C111.371 16.832 111.391 16.812 111.391 16.772V15.344C111.391 15.304 111.403 15.272 111.427 15.248C111.459 15.216 111.495 15.2 111.535 15.2H112.879C112.919 15.2 112.951 15.216 112.975 15.248C113.007 15.272 113.023 15.304 113.023 15.344V16.772C113.023 16.812 113.043 16.832 113.083 16.832H114.235C114.275 16.832 114.307 16.848 114.331 16.88C114.363 16.904 114.379 16.936 114.379 16.976V18.044ZM116.573 14.636C116.613 14.612 116.673 14.6 116.753 14.6H118.205C118.245 14.6 118.277 14.616 118.301 14.648C118.333 14.672 118.349 14.704 118.349 14.744V22.856C118.349 22.896 118.333 22.932 118.301 22.964C118.277 22.988 118.245 23 118.205 23H116.801C116.761 23 116.725 22.988 116.693 22.964C116.669 22.932 116.657 22.896 116.657 22.856V16.28C116.657 16.264 116.649 16.248 116.633 16.232C116.617 16.216 116.601 16.212 116.585 16.22L115.397 16.544L115.349 16.556C115.277 16.556 115.241 16.512 115.241 16.424L115.205 15.392C115.205 15.312 115.241 15.256 115.313 15.224L116.573 14.636Z" fill="black"/>
<circle cx="352.5" cy="194.5" r="14.5" fill="#2400FF"/>
<path d="M356.632 194.656C356.845 195.147 356.952 195.712 356.952 196.352C356.952 196.928 356.856 197.461 356.664 197.952C356.408 198.635 355.976 199.168 355.368 199.552C354.771 199.936 354.061 200.128 353.24 200.128C352.429 200.128 351.715 199.925 351.096 199.52C350.488 199.115 350.051 198.565 349.784 197.872C349.635 197.456 349.549 197.008 349.528 196.528C349.528 196.4 349.592 196.336 349.72 196.336H351.608C351.736 196.336 351.8 196.4 351.8 196.528C351.843 196.88 351.901 197.141 351.976 197.312C352.072 197.589 352.227 197.808 352.44 197.968C352.664 198.117 352.925 198.192 353.224 198.192C353.821 198.192 354.232 197.931 354.456 197.408C354.605 197.088 354.68 196.715 354.68 196.288C354.68 195.787 354.6 195.376 354.44 195.056C354.195 194.555 353.784 194.304 353.208 194.304C353.091 194.304 352.968 194.341 352.84 194.416C352.712 194.48 352.557 194.576 352.376 194.704C352.333 194.736 352.291 194.752 352.248 194.752C352.184 194.752 352.136 194.72 352.104 194.656L351.16 193.328C351.139 193.296 351.128 193.259 351.128 193.216C351.128 193.152 351.149 193.099 351.192 193.056L353.736 190.832C353.757 190.811 353.763 190.789 353.752 190.768C353.752 190.747 353.736 190.736 353.704 190.736H349.944C349.891 190.736 349.843 190.72 349.8 190.688C349.768 190.645 349.752 190.597 349.752 190.544V188.992C349.752 188.939 349.768 188.896 349.8 188.864C349.843 188.821 349.891 188.8 349.944 188.8H356.616C356.669 188.8 356.712 188.821 356.744 188.864C356.787 188.896 356.808 188.939 356.808 188.992V190.752C356.808 190.837 356.771 190.917 356.696 190.992L354.6 192.912C354.579 192.933 354.568 192.955 354.568 192.976C354.579 192.997 354.605 193.008 354.648 193.008C355.576 193.189 356.237 193.739 356.632 194.656Z" fill="white"/>
<circle cx="229.5" cy="131.5" r="14.5" fill="#2400FF"/>
<path d="M229.728 134.968C229.707 134.989 229.701 135.011 229.712 135.032C229.723 135.053 229.744 135.064 229.776 135.064H234.112C234.165 135.064 234.208 135.085 234.24 135.128C234.283 135.16 234.304 135.203 234.304 135.256V136.808C234.304 136.861 234.283 136.909 234.24 136.952C234.208 136.984 234.165 137 234.112 137H226.912C226.859 137 226.811 136.984 226.768 136.952C226.736 136.909 226.72 136.861 226.72 136.808V135.336C226.72 135.24 226.752 135.16 226.816 135.096C227.339 134.584 227.872 134.029 228.416 133.432C228.96 132.824 229.301 132.445 229.44 132.296C229.739 131.944 230.043 131.608 230.352 131.288C231.323 130.211 231.808 129.411 231.808 128.888C231.808 128.515 231.675 128.211 231.408 127.976C231.141 127.731 230.795 127.608 230.368 127.608C229.941 127.608 229.595 127.731 229.328 127.976C229.061 128.211 228.928 128.525 228.928 128.92V129.32C228.928 129.373 228.907 129.421 228.864 129.464C228.832 129.496 228.789 129.512 228.736 129.512H226.848C226.795 129.512 226.747 129.496 226.704 129.464C226.672 129.421 226.656 129.373 226.656 129.32V128.568C226.688 127.992 226.869 127.485 227.2 127.048C227.531 126.6 227.968 126.259 228.512 126.024C229.067 125.789 229.685 125.672 230.368 125.672C231.125 125.672 231.781 125.816 232.336 126.104C232.901 126.381 233.333 126.76 233.632 127.24C233.941 127.72 234.096 128.253 234.096 128.84C234.096 129.288 233.984 129.747 233.76 130.216C233.536 130.685 233.2 131.192 232.752 131.736C232.421 132.152 232.064 132.563 231.68 132.968C231.296 133.373 230.725 133.96 229.968 134.728L229.728 134.968Z" fill="white"/>
<circle cx="352.5" cy="162.5" r="14.5" fill="#2400FF"/>
<path d="M357.736 163.12C357.789 163.12 357.832 163.141 357.864 163.184C357.907 163.216 357.928 163.259 357.928 163.312V164.928C357.928 164.981 357.907 165.029 357.864 165.072C357.832 165.104 357.789 165.12 357.736 165.12H357.048C356.995 165.12 356.968 165.147 356.968 165.2V167.808C356.968 167.861 356.947 167.909 356.904 167.952C356.872 167.984 356.829 168 356.776 168H354.904C354.851 168 354.803 167.984 354.76 167.952C354.728 167.909 354.712 167.861 354.712 167.808V165.2C354.712 165.147 354.685 165.12 354.632 165.12H349.72C349.667 165.12 349.619 165.104 349.576 165.072C349.544 165.029 349.528 164.981 349.528 164.928V163.648C349.528 163.584 349.544 163.504 349.576 163.408L352.456 156.944C352.499 156.848 352.573 156.8 352.68 156.8H354.68C354.755 156.8 354.803 156.821 354.824 156.864C354.856 156.896 354.856 156.949 354.824 157.024L352.152 163.024C352.141 163.045 352.141 163.067 352.152 163.088C352.163 163.109 352.179 163.12 352.2 163.12H354.632C354.685 163.12 354.712 163.093 354.712 163.04V161.056C354.712 161.003 354.728 160.96 354.76 160.928C354.803 160.885 354.851 160.864 354.904 160.864H356.776C356.829 160.864 356.872 160.885 356.904 160.928C356.947 160.96 356.968 161.003 356.968 161.056V163.04C356.968 163.093 356.995 163.12 357.048 163.12H357.736Z" fill="white"/>
<path d="M51 78.5C51 82.5 38.7467 88 33.5 88C28.2533 88 24 83.7467 24 78.5C24 73.2533 28.2533 69 33.5 69C38.7467 69 51 75 51 78.5Z" fill="#7F00FF"/>
<path d="M36.564 74.224C36.564 74.304 36.524 74.344 36.444 74.344H32.028C31.996 74.344 31.98 74.36 31.98 74.392V77.356C31.98 77.388 31.996 77.404 32.028 77.404H35.124C35.204 77.404 35.244 77.444 35.244 77.524V78.028C35.244 78.108 35.204 78.148 35.124 78.148H32.028C31.996 78.148 31.98 78.164 31.98 78.196V81.208C31.98 81.24 31.996 81.256 32.028 81.256H36.444C36.524 81.256 36.564 81.296 36.564 81.376V81.88C36.564 81.96 36.524 82 36.444 82H31.248C31.168 82 31.128 81.96 31.128 81.88V73.72C31.128 73.64 31.168 73.6 31.248 73.6H36.444C36.524 73.6 36.564 73.64 36.564 73.72V74.224Z" fill="white"/>
<path d="M51 103.5C51 107.5 38.7467 113 33.5 113C28.2533 113 24 108.747 24 103.5C24 98.2533 28.2533 94 33.5 94C38.7467 94 51 100 51 103.5Z" fill="#7F00FF"/>
<path d="M35.34 102.62C35.3 102.644 35.3 102.668 35.34 102.692C35.772 102.868 36.1 103.128 36.324 103.472C36.548 103.816 36.66 104.232 36.66 104.72C36.66 105.44 36.428 106 35.964 106.4C35.508 106.8 34.904 107 34.152 107H31.248C31.168 107 31.128 106.96 31.128 106.88V98.72C31.128 98.64 31.168 98.6 31.248 98.6H34.068C34.844 98.6 35.452 98.792 35.892 99.176C36.34 99.56 36.564 100.1 36.564 100.796C36.564 101.236 36.456 101.612 36.24 101.924C36.032 102.228 35.732 102.46 35.34 102.62ZM32.028 99.344C31.996 99.344 31.98 99.36 31.98 99.392V102.272C31.98 102.304 31.996 102.32 32.028 102.32H34.068C34.572 102.32 34.972 102.188 35.268 101.924C35.572 101.66 35.724 101.308 35.724 100.868C35.724 100.404 35.572 100.036 35.268 99.764C34.972 99.484 34.572 99.344 34.068 99.344H32.028ZM34.152 106.244C34.656 106.244 35.056 106.1 35.352 105.812C35.656 105.524 35.808 105.136 35.808 104.648C35.808 104.16 35.652 103.772 35.34 103.484C35.036 103.188 34.624 103.04 34.104 103.04H32.028C31.996 103.04 31.98 103.056 31.98 103.088V106.196C31.98 106.228 31.996 106.244 32.028 106.244H34.152Z" fill="white"/>
<path d="M51 133.5C51 137.5 38.7467 143 33.5 143C28.2533 143 24 138.747 24 133.5C24 128.253 28.2533 124 33.5 124C38.7467 124 51 130 51 133.5Z" fill="#7F00FF"/>
<path d="M33.684 137.096C33.124 137.096 32.632 136.988 32.208 136.772C31.784 136.548 31.452 136.236 31.212 135.836C30.98 135.436 30.864 134.976 30.864 134.456V131.144C30.864 130.624 30.98 130.164 31.212 129.764C31.452 129.364 31.784 129.056 32.208 128.84C32.632 128.616 33.124 128.504 33.684 128.504C34.236 128.504 34.724 128.612 35.148 128.828C35.58 129.044 35.912 129.348 36.144 129.74C36.376 130.124 36.492 130.56 36.492 131.048V131.204C36.492 131.284 36.452 131.324 36.372 131.324H35.76C35.68 131.324 35.64 131.284 35.64 131.204V131.06C35.64 130.524 35.46 130.088 35.1 129.752C34.748 129.416 34.276 129.248 33.684 129.248C33.092 129.248 32.616 129.42 32.256 129.764C31.896 130.108 31.716 130.56 31.716 131.12V134.48C31.716 135.04 31.9 135.492 32.268 135.836C32.636 136.18 33.12 136.352 33.72 136.352C34.304 136.352 34.768 136.192 35.112 135.872C35.464 135.552 35.64 135.124 35.64 134.588V133.496C35.64 133.464 35.624 133.448 35.592 133.448H33.828C33.748 133.448 33.708 133.408 33.708 133.328V132.824C33.708 132.744 33.748 132.704 33.828 132.704H36.372C36.452 132.704 36.492 132.744 36.492 132.824V134.372C36.492 135.228 36.236 135.896 35.724 136.376C35.22 136.856 34.54 137.096 33.684 137.096Z" fill="white"/>
<path d="M51 163.5C51 167.5 38.7467 173 33.5 173C28.2533 173 24 168.747 24 163.5C24 158.253 28.2533 154 33.5 154C38.7467 154 51 160 51 163.5Z" fill="#7F00FF"/>
<path d="M31.248 167C31.168 167 31.128 166.96 31.128 166.88V158.72C31.128 158.64 31.168 158.6 31.248 158.6H34.08C34.872 158.6 35.5 158.808 35.964 159.224C36.436 159.64 36.672 160.204 36.672 160.916V164.684C36.672 165.396 36.436 165.96 35.964 166.376C35.5 166.792 34.872 167 34.08 167H31.248ZM31.98 166.208C31.98 166.24 31.996 166.256 32.028 166.256H34.116C34.636 166.256 35.048 166.104 35.352 165.8C35.664 165.496 35.82 165.088 35.82 164.576V161.036C35.82 160.516 35.668 160.104 35.364 159.8C35.06 159.496 34.644 159.344 34.116 159.344H32.028C31.996 159.344 31.98 159.36 31.98 159.392V166.208Z" fill="white"/>
<path d="M51 192.5C51 196.5 38.7467 202 33.5 202C28.2533 202 24 197.747 24 192.5C24 187.253 28.2533 183 33.5 183C38.7467 183 51 189 51 192.5Z" fill="#7F00FF"/>
<path d="M36.108 196C36.036 196 35.988 195.968 35.964 195.904L35.484 194.392C35.476 194.368 35.46 194.356 35.436 194.356H31.848C31.824 194.356 31.808 194.368 31.8 194.392L31.32 195.904C31.296 195.968 31.248 196 31.176 196H30.528C30.44 196 30.408 195.956 30.432 195.868L33.084 187.696C33.108 187.632 33.156 187.6 33.228 187.6H34.044C34.116 187.6 34.164 187.632 34.188 187.696L36.852 195.868L36.864 195.916C36.864 195.972 36.828 196 36.756 196H36.108ZM32.04 193.6C32.032 193.616 32.032 193.632 32.04 193.648C32.056 193.656 32.072 193.66 32.088 193.66H35.184C35.2 193.66 35.212 193.656 35.22 193.648C35.236 193.632 35.24 193.616 35.232 193.6L33.672 188.704C33.664 188.688 33.652 188.68 33.636 188.68C33.62 188.68 33.608 188.688 33.6 188.704L32.04 193.6Z" fill="white"/>
<path d="M51 217.5C51 221.5 38.7467 227 33.5 227C28.2533 227 24 222.747 24 217.5C24 212.253 28.2533 208 33.5 208C38.7467 208 51 214 51 217.5Z" fill="#7F00FF"/>
<path d="M36.564 213.224C36.564 213.304 36.524 213.344 36.444 213.344H32.028C31.996 213.344 31.98 213.36 31.98 213.392V216.356C31.98 216.388 31.996 216.404 32.028 216.404H35.124C35.204 216.404 35.244 216.444 35.244 216.524V217.028C35.244 217.108 35.204 217.148 35.124 217.148H32.028C31.996 217.148 31.98 217.164 31.98 217.196V220.208C31.98 220.24 31.996 220.256 32.028 220.256H36.444C36.524 220.256 36.564 220.296 36.564 220.376V220.88C36.564 220.96 36.524 221 36.444 221H31.248C31.168 221 31.128 220.96 31.128 220.88V212.72C31.128 212.64 31.168 212.6 31.248 212.6H36.444C36.524 212.6 36.564 212.64 36.564 212.72V213.224Z" fill="white"/>
<path d="M98 71.0615L127 70.167V214.501C127 222.509 120.508 229.001 112.5 229.001V229.001C104.492 229.001 98 222.509 98 214.501V71.0615Z" fill="#8CACFF"/>
<circle cx="112.5" cy="216.501" r="14.5" fill="#2400FF"/>
<path d="M112.4 210.849C112.453 210.817 112.533 210.801 112.64 210.801H114.576C114.629 210.801 114.672 210.822 114.704 210.865C114.747 210.897 114.768 210.94 114.768 210.993V221.809C114.768 221.862 114.747 221.91 114.704 221.953C114.672 221.985 114.629 222.001 114.576 222.001H112.704C112.651 222.001 112.603 221.985 112.56 221.953C112.528 221.91 112.512 221.862 112.512 221.809V213.041C112.512 213.02 112.501 212.998 112.48 212.977C112.459 212.956 112.437 212.95 112.416 212.961L110.832 213.393L110.768 213.409C110.672 213.409 110.624 213.35 110.624 213.233L110.576 211.857C110.576 211.75 110.624 211.676 110.72 211.633L112.4 210.849Z" fill="white"/>
</g>
<defs>
<filter id="filter0_d_508_1121" x="0.856445" y="170.562" width="13.8743" height="13.874" filterUnits="userSpaceOnUse" color-interpolation-filters="sRGB">
<feFlood flood-opacity="0" result="BackgroundImageFix"/>
<feColorMatrix in="SourceAlpha" type="matrix" values="0 0 0 0 0 0 0 0 0 0 0 0 0 0 0 0 0 0 127 0" result="hardAlpha"/>
<feOffset dy="4"/>
<feGaussianBlur stdDeviation="2"/>
<feComposite in2="hardAlpha" operator="out"/>
<feColorMatrix type="matrix" values="0 0 0 0 0 0 0 0 0 0 0 0 0 0 0 0 0 0 0.25 0"/>
<feBlend mode="normal" in2="BackgroundImageFix" result="effect1_dropShadow_508_1121"/>
<feBlend mode="normal" in="SourceGraphic" in2="effect1_dropShadow_508_1121" result="shape"/>
</filter>
<linearGradient id="paint0_linear_508_1121" x1="44.6014" y1="140.743" x2="32.6783" y2="140.743" gradientUnits="userSpaceOnUse">
<stop stop-color="#D9D9D9"/>
<stop offset="1" stop-color="#D9D9D9" stop-opacity="0"/>
</linearGradient>
<linearGradient id="paint1_linear_508_1121" x1="174.14" y1="140.743" x2="164.601" y2="140.743" gradientUnits="userSpaceOnUse">
<stop stop-color="#D9D9D9"/>
<stop offset="1" stop-color="#D9D9D9" stop-opacity="0"/>
</linearGradient>
<linearGradient id="paint2_linear_508_1121" x1="290.14" y1="136.16" x2="280.601" y2="136.16" gradientUnits="userSpaceOnUse">
<stop stop-color="#D9D9D9"/>
<stop offset="1" stop-color="#D9D9D9" stop-opacity="0"/>
</linearGradient>
<linearGradient id="paint3_linear_508_1121" x1="404.14" y1="136.081" x2="394.601" y2="136.081" gradientUnits="userSpaceOnUse">
<stop stop-color="#D9D9D9"/>
<stop offset="1" stop-color="#D9D9D9" stop-opacity="0"/>
</linearGradient>
</defs>
</svg>
