<svg width="246" height="246" viewBox="0 0 246 246" fill="none" xmlns="http://www.w3.org/2000/svg">
<mask id="mask0_293_2080" style="mask-type:alpha" maskUnits="userSpaceOnUse" x="0" y="0" width="246" height="246">
<circle cx="123" cy="123" r="123" fill="white"/>
</mask>
<g mask="url(#mask0_293_2080)">
<path d="M210 201.28C210 258.396 177.803 284 132.868 284C104.326 284 83.0977 274.732 66.1144 257.238C42.5266 232.677 34.7425 195.488 30.2609 180.89C26.7223 169.421 20 154.708 20 146.945C20 141.963 26.7223 137.561 31.2044 137.561C41.347 137.561 45.1211 142.079 51.136 154.592C57.7406 168.378 65.7602 194.098 72.1293 194.098C75.785 194.098 77.0823 187.726 77.0823 175.561V63.7624C77.0823 57.6221 80.8564 52.0611 88.8765 52.0611C96.7784 52.0611 100.671 57.6221 100.671 63.7624V155.287C104.445 154.244 108.808 153.433 113.526 152.738V48.5856C113.526 42.4453 117.418 37 125.32 37C133.222 37 137.113 42.4453 137.113 48.5856V151.927C141.477 152.159 145.723 152.622 149.969 153.317V57.5064C149.969 51.3661 153.979 45.8051 161.763 45.8051C169.547 45.8051 173.557 51.3661 173.557 57.5064V159.805C178.157 161.659 182.52 163.86 186.412 166.293V93.5365C186.412 87.3962 190.068 81.8358 197.97 81.8358C206.108 81.8358 210 87.3962 210 93.5365V201.28Z" fill="white"/>
</g>
</svg>
