<svg width="22" height="27" viewBox="0 0 22 27" fill="none" xmlns="http://www.w3.org/2000/svg">
<path d="M3.85 7.3125V11.25H2.2C0.9845 11.25 0 12.2569 0 13.5V24.75C0 25.9931 0.9845 27 2.2 27H19.8C21.0155 27 22 25.9931 22 24.75V13.5C22 12.2569 21.0155 11.25 19.8 11.25H18.15V7.3125C18.15 3.27375 14.949 0 11 0C7.051 0 3.85 3.27375 3.85 7.3125ZM6.6 11.25V7.3125C6.6 4.82737 8.5701 2.8125 11 2.8125C13.4299 2.8125 15.4 4.82737 15.4 7.3125V11.25H6.6ZM8.8 17.4375C8.8 16.1944 9.7845 15.1875 11 15.1875C12.2155 15.1875 13.2 16.1944 13.2 17.4375C13.2 18.2261 12.8029 18.9214 12.2012 19.323L12.1924 19.3286C12.1924 19.3286 12.4069 20.6561 12.6489 22.2199V22.221C12.6489 22.6868 12.2804 23.0636 11.825 23.0636C11.8239 23.0636 11.8239 23.0636 11.8228 23.0636H10.1739C9.7185 23.0636 9.3489 22.6868 9.3489 22.221V22.2199L9.8054 19.3286C9.196 18.9225 8.7978 18.2273 8.7978 17.4386L8.8 17.4375Z" fill="white"/>
</svg>
