<svg width="32" height="32" viewBox="0 0 32 32" fill="none" xmlns="http://www.w3.org/2000/svg">
<path d="M6.66667 29.9998C9.244 29.9998 11.3333 27.9105 11.3333 25.3332C11.3333 22.7558 9.244 20.6665 6.66667 20.6665C4.08934 20.6665 2 22.7558 2 25.3332C2 27.9105 4.08934 29.9998 6.66667 29.9998Z" fill="#A1A1A1" stroke="#A1A1A1" stroke-width="3" stroke-linecap="round" stroke-linejoin="round"/>
<path d="M25.3334 28.4447C27.9107 28.4447 30.0001 26.3553 30.0001 23.778C30.0001 21.2007 27.9107 19.1113 25.3334 19.1113C22.7561 19.1113 20.6667 21.2007 20.6667 23.778C20.6667 26.3553 22.7561 28.4447 25.3334 28.4447Z" fill="#A1A1A1" stroke="#A1A1A1" stroke-width="3" stroke-linecap="round" stroke-linejoin="round"/>
<path d="M29.9999 2L11.3333 6.66667V12.8889L29.9999 8.22222V2Z" fill="#A1A1A1"/>
<path d="M11.3333 25.3333V12.8889V25.3333ZM29.9999 23.7778V8.22222V23.7778ZM11.3333 12.8889V6.66667L29.9999 2V8.22222M11.3333 12.8889L29.9999 8.22222L11.3333 12.8889Z" fill="#A1A1A1"/>
<path d="M11.3333 25.3333V12.8889M11.3333 12.8889V6.66667L29.9999 2V8.22222M11.3333 12.8889L29.9999 8.22222M29.9999 23.7778V8.22222" stroke="#A1A1A1" stroke-width="3" stroke-linecap="round" stroke-linejoin="round"/>
</svg>
