<svg width="26" height="34" viewBox="0 0 26 34" fill="none" xmlns="http://www.w3.org/2000/svg">
<path d="M26 22.6135C26 30.4756 21.5941 34 15.4451 34C11.5394 34 8.63442 32.7242 6.31039 30.3161C3.08258 26.9353 2.01739 21.8162 1.40412 19.8067C0.919899 18.228 0 16.2027 0 15.1341C0 14.4484 0.919899 13.8424 1.53323 13.8424C2.92118 13.8424 3.43763 14.4643 4.26071 16.1867C5.1645 18.0845 6.26192 21.6248 7.13348 21.6248C7.63375 21.6248 7.81127 20.7476 7.81127 19.0732V3.68389C7.81127 2.83866 8.32772 2.07319 9.42521 2.07319C10.5065 2.07319 11.0391 2.83866 11.0391 3.68389V16.2824C11.5556 16.1389 12.1527 16.0272 12.7982 15.9315V1.59478C12.7982 0.749556 13.3309 0 14.4122 0C15.4935 0 16.0261 0.749556 16.0261 1.59478V15.8199C16.6232 15.8518 17.2042 15.9156 17.7852 16.0113V2.82274C17.7852 1.97752 18.334 1.21204 19.3992 1.21204C20.4643 1.21204 21.013 1.97752 21.013 2.82274V16.9043C21.6425 17.1595 22.2396 17.4625 22.7722 17.7974V7.78236C22.7722 6.93713 23.2725 6.17172 24.3538 6.17172C25.4674 6.17172 26 6.93713 26 7.78236V22.6135Z" fill="url(#paint0_linear_293_1449)"/>
<defs>
<linearGradient id="paint0_linear_293_1449" x1="13" y1="0" x2="13" y2="34" gradientUnits="userSpaceOnUse">
<stop stop-color="#2400FF"/>
<stop offset="1" stop-color="#7F00FF"/>
</linearGradient>
</defs>
</svg>
