<svg width="246" height="246" viewBox="0 0 246 246" fill="none" xmlns="http://www.w3.org/2000/svg">
<circle cx="123" cy="123" r="123" fill="url(#paint0_linear_524_8)"/>
<mask id="mask0_524_8" style="mask-type:alpha" maskUnits="userSpaceOnUse" x="0" y="0" width="246" height="246">
<circle cx="123" cy="123" r="123" fill="white"/>
</mask>
<g mask="url(#mask0_524_8)">
<path d="M210 201.28C210 258.396 177.803 284 132.868 284C104.326 284 83.0977 274.732 66.1144 257.238C42.5266 232.677 34.7425 195.488 30.2609 180.89C26.7223 169.421 20 154.708 20 146.945C20 141.963 26.7223 137.561 31.2044 137.561C41.347 137.561 45.1211 142.079 51.136 154.592C57.7406 168.378 65.7602 194.098 72.1293 194.098C75.785 194.098 77.0823 187.726 77.0823 175.561V63.7624C77.0823 57.6221 80.8564 52.0611 88.8765 52.0611C96.7784 52.0611 100.671 57.6221 100.671 63.7624V155.287C104.445 154.244 108.808 153.433 113.526 152.738V48.5856C113.526 42.4453 117.418 37 125.32 37C133.222 37 137.113 42.4453 137.113 48.5856V151.927C141.477 152.159 145.723 152.622 149.969 153.317V57.5064C149.969 51.3661 153.979 45.8051 161.763 45.8051C169.547 45.8051 173.557 51.3661 173.557 57.5064V159.805C178.157 161.659 182.52 163.86 186.412 166.293V93.5365C186.412 87.3962 190.068 81.8358 197.97 81.8358C206.108 81.8358 210 87.3962 210 93.5365V201.28Z" fill="white"/>
</g>
<circle cx="161.5" cy="72.5" r="14.5" fill="black"/>
<path d="M166.54 73.32C166.807 73.9333 166.94 74.64 166.94 75.44C166.94 76.16 166.82 76.8267 166.58 77.44C166.26 78.2933 165.72 78.96 164.96 79.44C164.213 79.92 163.327 80.16 162.3 80.16C161.287 80.16 160.393 79.9067 159.62 79.4C158.86 78.8933 158.313 78.2067 157.98 77.34C157.793 76.82 157.687 76.26 157.66 75.66C157.66 75.5 157.74 75.42 157.9 75.42H160.26C160.42 75.42 160.5 75.5 160.5 75.66C160.553 76.1 160.627 76.4267 160.72 76.64C160.84 76.9867 161.033 77.26 161.3 77.46C161.58 77.6467 161.907 77.74 162.28 77.74C163.027 77.74 163.54 77.4133 163.82 76.76C164.007 76.36 164.1 75.8933 164.1 75.36C164.1 74.7333 164 74.22 163.8 73.82C163.493 73.1933 162.98 72.88 162.26 72.88C162.113 72.88 161.96 72.9267 161.8 73.02C161.64 73.1 161.447 73.22 161.22 73.38C161.167 73.42 161.113 73.44 161.06 73.44C160.98 73.44 160.92 73.4 160.88 73.32L159.7 71.66C159.673 71.62 159.66 71.5733 159.66 71.52C159.66 71.44 159.687 71.3733 159.74 71.32L162.92 68.54C162.947 68.5133 162.953 68.4867 162.94 68.46C162.94 68.4333 162.92 68.42 162.88 68.42H158.18C158.113 68.42 158.053 68.4 158 68.36C157.96 68.3067 157.94 68.2467 157.94 68.18V66.24C157.94 66.1733 157.96 66.12 158 66.08C158.053 66.0267 158.113 66 158.18 66H166.52C166.587 66 166.64 66.0267 166.68 66.08C166.733 66.12 166.76 66.1733 166.76 66.24V68.44C166.76 68.5467 166.713 68.6467 166.62 68.74L164 71.14C163.973 71.1667 163.96 71.1933 163.96 71.22C163.973 71.2467 164.007 71.26 164.06 71.26C165.22 71.4867 166.047 72.1733 166.54 73.32Z" fill="white"/>
<circle cx="198.5" cy="109.5" r="14.5" fill="black"/>
<path d="M203.92 109.9C203.987 109.9 204.04 109.927 204.08 109.98C204.133 110.02 204.16 110.073 204.16 110.14V112.16C204.16 112.227 204.133 112.287 204.08 112.34C204.04 112.38 203.987 112.4 203.92 112.4H203.06C202.993 112.4 202.96 112.433 202.96 112.5V115.76C202.96 115.827 202.933 115.887 202.88 115.94C202.84 115.98 202.787 116 202.72 116H200.38C200.313 116 200.253 115.98 200.2 115.94C200.16 115.887 200.14 115.827 200.14 115.76V112.5C200.14 112.433 200.107 112.4 200.04 112.4H193.9C193.833 112.4 193.773 112.38 193.72 112.34C193.68 112.287 193.66 112.227 193.66 112.16V110.56C193.66 110.48 193.68 110.38 193.72 110.26L197.32 102.18C197.373 102.06 197.467 102 197.6 102H200.1C200.193 102 200.253 102.027 200.28 102.08C200.32 102.12 200.32 102.187 200.28 102.28L196.94 109.78C196.927 109.807 196.927 109.833 196.94 109.86C196.953 109.887 196.973 109.9 197 109.9H200.04C200.107 109.9 200.14 109.867 200.14 109.8V107.32C200.14 107.253 200.16 107.2 200.2 107.16C200.253 107.107 200.313 107.08 200.38 107.08H202.72C202.787 107.08 202.84 107.107 202.88 107.16C202.933 107.2 202.96 107.253 202.96 107.32V109.8C202.96 109.867 202.993 109.9 203.06 109.9H203.92Z" fill="white"/>
<circle cx="125.5" cy="63.5" r="14.5" fill="black"/>
<path d="M124.66 67.46C124.633 67.4867 124.627 67.5133 124.64 67.54C124.653 67.5667 124.68 67.58 124.72 67.58H130.14C130.207 67.58 130.26 67.6067 130.3 67.66C130.353 67.7 130.38 67.7533 130.38 67.82V69.76C130.38 69.8267 130.353 69.8867 130.3 69.94C130.26 69.98 130.207 70 130.14 70H121.14C121.073 70 121.013 69.98 120.96 69.94C120.92 69.8867 120.9 69.8267 120.9 69.76V67.92C120.9 67.8 120.94 67.7 121.02 67.62C121.673 66.98 122.34 66.2867 123.02 65.54C123.7 64.78 124.127 64.3067 124.3 64.12C124.673 63.68 125.053 63.26 125.44 62.86C126.653 61.5133 127.26 60.5133 127.26 59.86C127.26 59.3933 127.093 59.0133 126.76 58.72C126.427 58.4133 125.993 58.26 125.46 58.26C124.927 58.26 124.493 58.4133 124.16 58.72C123.827 59.0133 123.66 59.4067 123.66 59.9V60.4C123.66 60.4667 123.633 60.5267 123.58 60.58C123.54 60.62 123.487 60.64 123.42 60.64H121.06C120.993 60.64 120.933 60.62 120.88 60.58C120.84 60.5267 120.82 60.4667 120.82 60.4V59.46C120.86 58.74 121.087 58.1067 121.5 57.56C121.913 57 122.46 56.5733 123.14 56.28C123.833 55.9867 124.607 55.84 125.46 55.84C126.407 55.84 127.227 56.02 127.92 56.38C128.627 56.7267 129.167 57.2 129.54 57.8C129.927 58.4 130.12 59.0667 130.12 59.8C130.12 60.36 129.98 60.9333 129.7 61.52C129.42 62.1067 129 62.74 128.44 63.42C128.027 63.94 127.58 64.4533 127.1 64.96C126.62 65.4667 125.907 66.2 124.96 67.16L124.66 67.46Z" fill="white"/>
<circle cx="88.5" cy="78.5" r="14.5" fill="black"/>
<path d="M88 72.06C88.0667 72.02 88.1667 72 88.3 72H90.72C90.7867 72 90.84 72.0267 90.88 72.08C90.9333 72.12 90.96 72.1733 90.96 72.24V85.76C90.96 85.8267 90.9333 85.8867 90.88 85.94C90.84 85.98 90.7867 86 90.72 86H88.38C88.3133 86 88.2533 85.98 88.2 85.94C88.16 85.8867 88.14 85.8267 88.14 85.76V74.8C88.14 74.7733 88.1267 74.7467 88.1 74.72C88.0733 74.6933 88.0467 74.6867 88.02 74.7L86.04 75.24L85.96 75.26C85.84 75.26 85.78 75.1867 85.78 75.04L85.72 73.32C85.72 73.1867 85.78 73.0933 85.9 73.04L88 72.06Z" fill="white"/>
<defs>
<linearGradient id="paint0_linear_524_8" x1="123" y1="0" x2="123" y2="246" gradientUnits="userSpaceOnUse">
<stop stop-color="#2500FF"/>
<stop offset="1" stop-color="#7F00FF"/>
</linearGradient>
</defs>
</svg>
