<svg width="31" height="30" viewBox="0 0 31 30" fill="none" xmlns="http://www.w3.org/2000/svg">
<path d="M30.5418 16.0682C30.3978 16.2087 30.2264 16.3203 30.0377 16.3964C29.8489 16.4725 29.6464 16.5117 29.4419 16.5117C29.2374 16.5117 29.0349 16.4725 28.8462 16.3964C28.6574 16.3203 28.4861 16.2087 28.3421 16.0682L27.8928 15.6333V27.4493C27.8646 28.1507 27.5504 28.8127 27.0191 29.2904C26.4879 29.7682 25.7827 30.0227 25.058 29.9984H21.6964C21.2856 29.9984 20.8915 29.8404 20.601 29.5592C20.3105 29.278 20.1473 28.8966 20.1473 28.4989V19.652C20.1473 19.2543 19.9841 18.8729 19.6936 18.5917C19.4031 18.3104 19.0091 18.1525 18.5982 18.1525H12.4018C11.9909 18.1525 11.5969 18.3104 11.3064 18.5917C11.0159 18.8729 10.8527 19.2543 10.8527 19.652V28.4989C10.8527 28.8966 10.6895 29.278 10.399 29.5592C10.1085 29.8404 9.71444 29.9984 9.30359 29.9984H5.94204C5.21732 30.0227 4.51215 29.7682 3.98086 29.2904C3.44957 28.8127 3.13543 28.1507 3.10719 27.4493V15.6333L2.65795 16.0682C2.51394 16.2087 2.3426 16.3203 2.15383 16.3964C1.96506 16.4725 1.76258 16.5117 1.55808 16.5117C1.35358 16.5117 1.15111 16.4725 0.962336 16.3964C0.773563 16.3203 0.602231 16.2087 0.458222 16.0682C0.313027 15.9288 0.197783 15.7629 0.119137 15.5802C0.0404908 15.3975 0 15.2015 0 15.0035C0 14.8056 0.0404908 14.6096 0.119137 14.4269C0.197783 14.2442 0.313027 14.0783 0.458222 13.9389L14.4001 0.443545C14.5441 0.303001 14.7155 0.191448 14.9043 0.115321C15.093 0.0391939 15.2955 0 15.5 0C15.7045 0 15.907 0.0391939 16.0957 0.115321C16.2845 0.191448 16.4559 0.303001 16.5999 0.443545L30.5418 13.9389C30.687 14.0783 30.8022 14.2442 30.8809 14.4269C30.9595 14.6096 31 14.8056 31 15.0035C31 15.2015 30.9595 15.3975 30.8809 15.5802C30.8022 15.7629 30.687 15.9288 30.5418 16.0682Z" fill="url(#paint0_linear_293_118)"/>
<defs>
<linearGradient id="paint0_linear_293_118" x1="15.5" y1="0" x2="15.5" y2="30" gradientUnits="userSpaceOnUse">
<stop stop-color="#2400FF"/>
<stop offset="1" stop-color="#7F00FF"/>
</linearGradient>
</defs>
</svg>
